<mxfile host="app.diagrams.net" modified="2023-02-06T22:48:49.118Z" agent="5.0 (Windows)" etag="bBuvod0MmycNsUyp407T" version="20.8.13" type="github">
  <diagram name="Page-1" id="36zrW_25FPgMvAY_WiQf">
    <mxGraphModel dx="1434" dy="902" grid="1" gridSize="10" guides="1" tooltips="1" connect="1" arrows="1" fold="1" page="1" pageScale="1" pageWidth="850" pageHeight="1100" math="0" shadow="0">
      <root>
        <mxCell id="0" />
        <mxCell id="1" parent="0" />
        <mxCell id="iSGLch66N1L1B1IXM_Cr-1" value="" style="shape=image;verticalLabelPosition=bottom;labelBackgroundColor=default;verticalAlign=top;aspect=fixed;imageAspect=0;image=data:image/png,iVBORw0KGgoAAAANSUhEUgAAAggAAAE2CAYAAAAEZGojAAAgAElEQVR4Xux9B2AdV5X2kfSe9PSeeu+Se41b4hY7vQcINbSFQIBlqT8s7FKyhR7aLrD0tiwLBLIBQklIL7YTx4kTtziJuyWr965XJD3p/747utK80bwqWXFsX2McaWbu3Llz597vnvOd7yT9fFtgXOawjI+NiSThf0nJc3jXV96trlzUL25naB8Fg0HJyvDIkM8/+UDjeHtJ6E9dcrIypK2vS9KS0kIeOjA+LOM42ZUc+vtIPcN6h4dHxOl0qtOyMj3SPzAU9pLC/Fzp6OpRx93pLjmwf79s2rRRHI4UefChR2XN2rVRX8S4jGN4JEnzcLsc9Z6UoqQ8WZa1MGS8pLtS5cnWPTIgU215fc01kop2tnV0T96jqDBPRtD+TrQpxeGIem/rCSOjo5KEPkvHs2SjX5OTkyWI8dvfPyBeX0B1vHOiXvbVWHBMSooL5J7axyPea2FKleSl58bUnrRUhwSGR+XE8WOSlZUpSxYvQh/3SkpKirre7w8Ix4XH7ZK8vJzJ9lgr57sPon1t7Z3iDwyLx+NG86cGjiMlWUZxPFrheKgsL5Z7T26T8aTIUwff42f/+A25eslWOdXdKLdeerP8euef5N1b3yg9vX2y7fgz8pHL3yl9g/2SkpwiX37oh+LAv9+/+fMy4BuUPx98WF5oPSZ/d/Fr5XN//rb87C23S3OgQ36x4/fy95e9RXr7+mXHid2S7kiTWza/QXoH+qTXNyB9/gGZX1ItfcMD6nF++OQd0pnaK+M9Y/K56z4a7RFjPt7duhp9GJTc4hfCXnNF0UYJ+IdllPOeqbjSnHgPI9Ou4zvZ2/uCjKSMqmPsQ5ay1GIpx18Wvm+n0yFjY0b/87Xh9cnIyNS3aq54bCwoeTnZ0ts/GLad/E6cqcZ3HsS4199LQV62dHb32V53/PhRKSoslFHcd+HCBXL4eL2cOHZINm++OGof8jsfGw/tk8GgV81PjiRjbM9GaR/pkobhlhlXdW3ZFklLS5W/YdyPRRn3+mZ8d+nJLlmWjr5pc0lt99TcOy8/IEuLpubx+w9lx9XGBe56ues3P5WPfuJf5LndT8kVl18hf7z79/Lsrh3y5W/+SB59Kfq3HMsNk+YaIOhGBYZ6JM0T2yQZy4OcbefcsKxPkvGhmNb+yUdMd6VhYfCrpfRQW6osKx6ePJaNRbwvwiIeTz9xshrDxMZ/ucCkYQIZHjEmLmvhwsG26kmGx7n+EMA88/QuWbZsqQSwMBUWGZNcuLKt9+lph4qTCwASFsg4JkQu+n88/qDtR/qWRTdKS1unWshZgkFMdCkGMAgEApKBRTEnO1OGvD7VR2yvAwstJ9tUPBtBDRfPfkykfM7MDHfY57VrPyfoirJiue/EDgkmB8M+Y74zT6qSSyaBl7F4BwFwHKoN6enpuBYTKPp+aMgnfvRtU1ODPPrY4/L+994q2dmhkwkXCv5h/w54B6XfOyS9gX7pDfaLI90py9MXRn3thfk5CnhEKyPol4qyIrn/+A4ZTQn/jLqeyvQS+fFTv5U0LOJXX7BFqjPK5D8f/bn889XvVwvRnfvulVevuUp+/+x9eBcOyUh1y01rrhanOOSXT/9BCjLyZEX1clmQWSpdw31q0a9CHd9CHZ9CHQ8f2SmXLdwodx94QF694krZ33hIMtLckp2TpcasLl94+vvy75s+Yvs9RXvmcMfb67dgrI1KQcUzIack4y7J2ADlp+TKwswqcWFhGRj0TZ7DdnGjlIRxqkEa3zUBXDIGJccjPx6Oh7TUVAXKI0Ex/2iSuByYDSa+N96I9yAwKMjLle7e/hAwaG4sz2MbzACB44iLIQs3HGZgMToSELfbIy+8+CLe34g0t7bK8mXL0NZUGXeXS4F7ai6K1K92ACHR9xDpur7RQTkeqJtR1deUXqz6476TO2QsOfrCm5HskfyxRSH3PASAMBiYHeCzyFMnD/7tz1J98fvF3f+MLJxXI7/59S9kwxu/KO60ZPGfekQ2XXKdbD9sP1fH0xkvG0BgI4d6msSTWx5Pe8+ZcxVAwB/zLs/68Hm5WdLa3ouP01gQjQmRH/zsWGdSUpIwaRlTkzH58L/tIItIfm62dPVM32mkYBJ8bs9zsn79RfLww4/IjTdcr3bf4Z7rsPeEtA93yRj+mEtpSqFUZJTIs30HbccA0fqbF92ACatD7a6Hh4ex6BuTXKyFEzkBgi4Z7nQZBJiIpxQDwDxRu0d6pT/sZemw7ixNXTAJENgXhqVmupUjw4M2ACTQCvObO+5QAKG1vVtdaz2/LzgoR3wnQu6blpwqq93LprVFTdBYkPiMbtyD/WVexCI9M59x28ndMpAU3poUT59FOjc44pZg31rpGr9bSgsjg8tI9Xxt24/lM5d/YLaaFbGeC9yLJTXJGHsOjP+ignxYZ4Lq+xmBNSiAvub7pjWK74BfFcdsCswAPIfAYGR0CnwRmAdwvrnwXAIKluOdTllYMIL75KrfsW4/7uGDpdExYeEKjtuDOX43BDNmgMAvXAMSJ8Yd28I21Z2qlwJYCZ8/eFA2rF8vf/rzX+VVr7oRi6dLRnFOcDwJzxu7QTpcm2b7Je0ZCm/hiXavq0o2SbrLJfcDHARjAAesryZ5meyuy4tWdULHy/OSZM+DP5ULr3u/tLxwvyxYuES8qdVSmj0u9/3xf8Q9/0bJyCtLqG67i15WgMAG9TQfltyypbP2QGdLRbEAhG0n3HLZ/CG1OHd290hudtasWQ/Yj+lYMH2mBZO73EJMQl0wOZoXeJriuRMPt+jz2FO7npKOjk6prq6UizdtkgEseuYdnvW9ecd8sm/gRRkZjw0FZwYz5Mall05aEGgypxWAbQrXrsAYJmq4XriwVqSW4BmSlTmfky9LHnah3H2ZC9uczDpxCnd32gJBUMZFly6Hgy1Hpc7fNG0opgDwEWDx+nWeFZOTcCSAkAUrRv+gV9XF3RwtHY3Nbbbgh321b+jFafdd71k10Q+CMZKpFqbunn5ladF9Q4CgXUmswOi3qapMm3EhQNjd8Ly0jXbNyefGnXpu0UFxusKDrjlpSIw3MQMEAoCK0uIQ15euhtYYO1BotQK609MMl5apmH+342S6XDrfpwBCe6fh4tNWqWgAgeemwFJJgFBUhEUN63tXd6+ybiiQThcm/jy351nJzsySC9etkT642IYxLzQ0NcmSJUuUlfCltjRZXhzaxmjddaYDBLqHPADQD5x8QkYjWATNz8m+LA2ukr2N7miPn/Dx5md+IitWrpa8/EJpaW6UbY89KAUFhXL5VddLQ32dJFfeoNxOs1FedoDAh2g5ulNKF2+Zjec5a+pYW+GVssxg2MWtdSBFSnBcl1Es0vkwE/f2DkS0OsTTQTRRJsMnbC1jAArZ8If3D8JMj1UkBXZR+q8jWTt4zO/3KTfFqfp6uftPf5H3vudW+NUj+9646D438LwMBSPv5Be75snaymUhE7Eyn6LxOTmZalc15IXPjxMe2mtdTLnLplmbRbsorOZVWmz8mKj7BgbVOZoHYO6ffJxDUOGH3zlSYV2qPSixWBDY50/ufFK2btkM3y12ag7DX2wuuwcPTPtd6niqrM9dqRYYu8VIX0DQ4MFCNAyARMBnmLyDk89ouGaM9nIherH1uNT6G+MZTgmfG/Dmy2BfleSX7ku4jrm80AwQOO5qKspg9emadNXxeyHQ4w4/yeb7Yl/39hn8CRYzSNS/M4/N5n6HlGWNKuCmOThWS0SkxZiLmrnoc2m1GsN4KCkpkqd3PyteWNNWrFiJ793g4phLU59DyrNjA/OTYy6MVWO231UiFoTLC9fDJemRB0/ulJHk6VyRcG28wL1EjrZmSUNvfNbLeJ+5Oh8WwIFTMtTbJseOHpL8Ne+Wp+/6jNx469ekexYNe2cEQGDnNB3aJuXLLo+3n87q81+1zH6xpxGPCNFh8iQMj4/I/qGXpCylSJYXLQTKH5wVoEATo96JWzs7jT5zmKe5a+aiogvvTVOnHWDg5Pj4tm2ycsUKLEYBKS0rVzuQWArdD63DHbanbi24UPLTcyJaUDhp0jrASXuvP3SnvQx++vRxFybuKfKXdWI2E/mCMKmmoG+sJQNkQbop9GIa7rmqKkomJ/NIAIGETB/Axu7dz8j8eTXy8KOPyTve/na8/9BOIxmrLjB9wc5IcstSkKQ06InUzySbOSYIqTzP7KYhH2NgwpLBfmkf7JbnB4/E8trOuXPMAIE782oAhKYWuL44XiZ8/uwUu4WWv8/NzpCevilCYWZG+jT3jxVEcDSUmAAC6zGDiFgAAkmD2gp2qrYOVr9dUlNdLcuWLwOQz1FjiMDRrnA4kj8RT5krC0LPaL+cDNTH3LRLMJdkZ2TKwyefkkBybJwK9T4BtNZgo/HYsUwJjM6OmzdSo1eUjcmpl3ZKxfLL5O7//rKsu+k28ceOZWLqjzMGILC1bSeekeIFG2Nq+Llw0uULh0Damr56vtiaJitK7M15XCS4WCzLmC9FafniBcs90s4+ln7kTpLmdi78IXbniYtJrPOaIiv460wABy6U9J1aFyfuZLdv3yFtbW0wUS6SC1ZeMG3Bi9SuntE+2d/VKVcUL5AOPOsJX71cU3ax8tXHAjayszzycPNTIbeoTiuXYmcBwI7hc2WxgiOa53tMOzuCIh3FoCujrzYZM2Vff2QYX1leAnOwEXERCSCwPvYhz+nsRASCzysrMGFbiah21gO12DiyZJ6jSnEYohUzB8NqojYvNmTgcwe5s2dvtCrPyePcRbrAM6GJnv1YXlwEgNCuSLa0HOgvmhabIZPrgAsmFxmra0+DRHNncgybxxg3DAW5oePT7CKLtBiTg0DTGt0RTrgDn9uzRxbOXyBFxYWTnAYzJ2K2XqoGJLNVX6R6XvIdF9/YVNRAuHM35q6Wopw8efTkLvEmRT/fXA/fe2qSU+KNSEjk+fvaT0p20Xyp3f4dufKaV8m+Pc/I0i3vkNZZ9sKdUQCBHdXfUSdZhTWJ9NlZd01R5ohcVOEz/MET5EBr1ILdQ3NiOgyy2tCoTy7KXyHOoDOmELZoHcjdAxdJM1BQjGzsPLQronG4VfnzWXiMERf81wegYgYKXLAOHDgg/QhVI0P40ksvUTvUWMGMtR8KEOLXgQXXA2BCXgDvyYWVlgy6Xzgp6/vzmCM9WXZ17p985BKAgyqABDMhTEdw6DaZfby8kCCIgIn1sg+4ABAUufDMnVEiAhjtoENCDYAQygHQDaPVgtwAgjTu8P/wpz/JB9//vhBXSjhwwDqKUvOkIrl0kqwW6R0XFeRNghZlbeGOcQJxabIkrydwcsNSYgVZ0cbPuXJ8tXupIilqom1ZEXzFiK5R/BUT78McQqgXcAIEBuGYN+oEidboIYIIM/hvH0yRCgSFDY9MuR3NFrBIAOHYkSNSC4sBuQWZCKNmG7dsuRjWQY/iIricaSEWwtl6jxpAzVZ90erZC34OLSThytrMZVJRUCLbakHANYVQR6uXx1MAsta4l0vXkEN213tiuSThczrrD0hB1erJ66vcbZKdWygHm2bfanHGAQQ+9egwWNupDPU6Xxgv6xtB6Ar+9vtTZOs8r2S5YmOgcFLYB7cD9rRycck68Q0GIoZLxdrbDNGiiZOLPndE+7sOy3xXFVjMvJ9huicJz5Fk+PR1iKTeCev7tDQ3wfLglZqa+cp/Sp8+CXhmspxdmxhYMTYGDYKUqY+d15tDHPV1hkkU5EEssvSvawIiraFHvLXSO2ZA7uwUaAykzwerH+FIE772YSzI1FbQxazzoEAGFkrNJNfn0MyaB9IoTcqRSg7MyHQd6P4hmc3OZUFgoBeVPc89CyvJkLz5TW+QnQ37QLAckcFgZEtFuasYbqfimICXleSmwmknSKpm4ETyIsFENL2HWMfT2XJeZopHih0FkufMMcIMJyJxCBBaoT9Bpj8jazQ51xxaagYIekxoYEqLFAmNVs4LwRsJryxP1qbLxdXkxkxZirQ1LFJIIUP6dz/zjLz2plfLiy8dlpp50I8Ax8Zc8hFWG0lDIdH3N1ehjrp9x/x10g9Csl1ZARfj/JJK9OMe6YkQgRTuWVfBeuCcA+vBXK6N1y8FGf3l0kGINqjGQZCzI/BEu+5cOJ7pCsol8xjHH56hb+6HvuCAHPPVSSbic9cXrwQByiDZzVZ5bvDgtLBE1q3N9vo+ZnO5/p3TyZBEI9qAYj/UKmiGOTaSsFFjr1MqcqacbVq8h2Zczdq2ezZrVAItAI+2GboL7uR0WYnwNApRkXzJQnBh7ier6dfqcjDuOQ6wky/1ja0Ru5dcBx2OqgSssCO0hrKxAkMfwTDpv3DwedWeKy6/VA631CpzpjPZqf5V5wKgmQlZfKYF7kpJx59YipUtb/Zzm8Pq2KayksLzAGGiUwmEaTVg0YQ/M0AozGXkjxEZoHxgE4t6OIBgFSjTfn/zWFQREAxhnPD7H2pPkwU5A5PRLbw/eSN0u9laD9CM0qIC9d01NbfI4cNHZMUFKyctRubxwvZbo3liGU+xnDNXPATdFjvC4pK0ebK4rEZ21e6XTsCDeAsFrEqchdLjTZGnT2XEe3lc58/VunjZggFxp4JHdqYCBDXVwmyrTOvmeKu4uvPsPnlZiU9qcocNoBADWGiC+b9puE3K04plSc68uEz6kXoynImbqmirJiZOfb0ZJHBXSiuEDutSkQH4W4BoDM36trvv0Y5UWVw4RR6iC6G8tMg2lMx8vXZ56F2xYnq7HbKzw/Clb8hYPU0tUo3BCV0JM6uf5+dDZY4hn7rwOCdzug+iAQTuL12IH9clF5EWPYhAsStmXgQtJSxmawnvqcFMO0IPc8A70IqZ5oU92tdgVtDjuWZAxfdCPzR3swxxqwTJMhY1xWj3PFuOX+hZqb5Bw58/IVQ0YUHIychQ4lyayKf5pWbtELMFwXDbGe4IFo4rfitmpUuOeVrFtDVidIK0zHHECAgCTlqopvn5cfNiAAO+T3JgRiAmFs2tV0ixJYTFhiu+ESgGOmNkGlsqmWuA0DXaC5XWNmV9Y1ngrJLlFQvk2bqD0jreGfdwJDgn94DldHMPxoLgc6VMj16Ku9FRLthYPSR57gklzzMZIOjn0Kpjs90RZ0N9aVBQc6cGlZLaEkh3uvGh6kkq3PPxAyFXYHnmQilMy500dSfSH60jnVIfmB7zz7r48azxLJ9WLUEC1f84yU2Bv3EVVjSA3Tt/z0V2cMg7LRpAq8aZK+UCSinkcJKwIQ3AxMvduDbXcoKlFGvrSIctQDBHLpgV5lhndmYG6goq8y/rNDgIgdgAAu5L7oWenMMJTfE+ZvM+/dZsO2WGlSwW7skFR4MTcjHMuz0CBAIimqLpEuGuk1YWukKSJ7ga/L4o5GM8x9REz5DNLtPCMIrjDor4TKgp3gc1xWAMaoqJjKtX2jUr0heJJ2Uq9t1sQciAMiZ/prSyWWLZbJGyAgSraqlVLEkt/Goc20iIT1gpzCZ8urBoMeDYITAYhgpirFZEtl+7w+zeSyIaCLqeuQYI5vaPoA+qy8pk76mXpGmsLaEhR2DI0utLkV11p9d6MAIJcacrM6F2xnMRNXh0OaMtCOaHCo4GYHaOPY9APB1ytp2bC/S3tNgvueAqhAML/DDJ7A0EA7KlYB12hQaRL97CKIJam/A61kNzq/6A+DPBBMmAxqLnUAuXWfWRoIFhkGwHF6NySPpy4WpHfgVObAMBY0eVmRbKwaBpnItWrEzrHDDAe01RBrx+aNwrmSkZaudlBhpmprlSwsN9yLtg4W5a6+HrftNyy9EsCEpYCe8gLc0Y01b3hfk9eBAlovNvkLtAgaY2xNXbWdbsgAYNcFz4uaCYSXJ275ruGv18ZheKQdicyqFCS8bjtc/IoBgiTomWrqaLAG6MPsjIqRN3lj3YNNefDB0I5ziiO+KIT0+0fbFet8hVg4iRKU0PM0BIxzum4A4tRIwGIYDjgs8cHzq3iZWDQIIhI2bo5mFIrZH7A26viVBEtsudCgElhApbdQx0m1knv6MyRCMQFJLEG4gDGOh6mB8jUnRQfY9TqnITi697uQAC+7SyrEQamltlf+BQrK958ryMZLfiLLEcaXfJya7Tuza1IedI8YINcbcz3gtcjjG5YtGUJfMVAxD4oL2tRyWnZHG8z3xOn5+ZFoQ5fkRKIaRiVwZAcjsEoFDqLJKlcDuYE0HF03FtWPxP2VgSaLbXpXOkB2CiQdbCqkC/LRccRhzohZ1hg5T+1b74zsFkWVTuUQI/e492SnE2w7Cmwxjly6WCXIyuKE7eZOVH0ypgu627aHNCHCtHgefHAxBoQZ7iTBgy1iSyqZAz9EsawglJauNiokELE2aRPBiOzGkNf4vnHfJcs/aBmZPAZ2U79LsiQHi6Yb90jMbvs7W2qaNxE8BLihRV7Qzb3KvLNkN8phWkTK8yD6enoA+GWqGNnwisjbdXop9fkVqKhEpFkyeaAYKWW6aIkXYf8EQj6dIUf4S/04u94d7hTs4gGdgR+sgN6OjpMZQOG9yyoWoqLM8HUbLykmL17TBZmQ9RMpqgG/1pQs9QhNzk8MnO7Kx6uoZRkIk7h1Lw7hyyvnJ62ODLARCCAE2V5aVS39SiLGKcu2hRjaUQGCxOnzcZVbbtOMjaIJCfzjLs65PU9PiSOSXanuq8ABQxp97TKwog8KGHepqRv2H2tKYT7chX4nVE+atKp+sn+McC8rz3sKRJqlxeviEk1j/e53x+6LD4x6fuYQYIvRAsOeqvVVWSm0A/ORcekqnIkja0E6Z2Ih5PhgwODqiJjREErQgVU0QvS+FixRAtJvvpB8s/motFX27lFNg9ax58ut0mboAT6lQjdPhy0p5IuKOvIzjg7yorMPk0tql208qg3Ajqf6FKMuZcF5yEeRrbzl0iLRNaJtocrsa+ou7EqcbmEA6DboOZrxDvu+P5tN8Y+pMIZyR4wyKmi1nvgu/jBUhKnxpuTuQ2IdeMjydLZ9MGKayYnqhLn7jSvUhe8B6bvI4TdQpARR8C0s6EUuzMBym3YrIp5gVd71bNmUZ5olmi3GpBMHNSwi2i+cjQ2AUQ0diHHXwO+VqC72VIqjD+CAy6e3pVKGTyhHR4ov3EcTg2akTtWItV0dV63DucBEsH3HrAcUjtMq3MpRYCb67BQR2+H20p47t6wXt0kpdg10+MUFgKi4EmBNdDKfHFltjIv4n2u74uOApw5zi9yoz6XptqBiU3feqbf8UBBD7IXIZ6zPTlnmnXV+YMy+qy6epgWnqYi9g12K3R92wnJRzL8wSxwL3gPSJMMW0GCAzJo1tDF4ZGFjhy1a6KC9+u42PITBlQCpGpMJ/6EAJpLLBUPwQxDuJCVl6CjmDQpD1Oxh4P1QyjmzwzETExAJ6DXTHcCdCnB/igK4RmYko005fPqAsWxTbHOTxOHy8nYvIU2M5oERW8nrwJpSkRpTC6Q1s76JrJQc6N5lZEetj4n2fK1yFIY54MoxhWDV3MWgi0ZLT3dQJYHo3W/JiOj8NtkBQmjS7HZH4S8o2MT2WbdIwj7h+ZIu1yXkS64cV5a1XM+hBCqQdHvdI/MiSVOUgC1mmfBCymxuOkLLinqFipQacZIDCT6LzKClvirea12LoYBiKDHyfeP7kEXMCPNAVl60oIfQEYcDx2wrIQK8cglmcMAhSbQ371NVbCsLmubrD689xTi81hkIvpqlhWNDX/mC0tsbRjJudocFDb0DSZrdJc3yhymXB+0vlfCh15UojMqwQFZjfOjhOQHR8+vVaDyXaZol5m8uyxXns9+AdmHPeKBAh82LlidMbasa+k8/I8ozD3eREiFzrIzWFyF2aDlQ128kwmGe4ODk4AhXD9QwDBhae5yw99B4NwJ0xzjY+VE58m0CmxILggyhCtwEmYuzECGJII6ae1EhStrgG7+3NyontCf4MEG8y0x0lbMc7RPzSrG1yJ2HVkadGIBSBYhZd0Gwk6KNFLF0MWiJAugpMJ/7+2SBC8mC0b+lrNao+nvea+MbdJgx593JxEiOp+5IfMhZoiAULueLZ0J4Wmo16du1QO9ByO69Nj6mszSOXFV5VulkdbdsVUTxKATOa4R8o8RVKYlSvpqS5JgkGpdwjy4oGg4hXQRWYGCHxX1eWG3LJ1F84cGySL6p20XojYv4O+yPlHqMFhSDmXqm+BVjRmHyWQnc2iRLMAquyyxA4HjXulmlx/jcjLwN+Gy83Ab6sLbofCDGS45Fw+BzkZooGDWPqry+uQZ095EuJqxVK/3Tl+SJq7kPJ8LsqVi8CNAdndXF6xAIEPYQ5Bm4sOPNvuQX/+1SCkMOTJXA4MHVK7/xKkWJ6XUT6Z8jnR56dgDF0POrTIXE+wZ4VsrU6dTP7CiYULj9l6Yc71wMmKiz999/TDU7CHZtVRS24CnsdwSQKHSNNl6I55+hNyjCnnQJwAgcTKSN5xghEuAgQAdEVw8uXiby10wfSA1Obz+0E4w24Mp9RUMX/F+GTmPus1iaS61nVYQQsXIe27NlsQCJyoGPlwc3jeQKLjxe66pa75cth/MuTQlqJ1srM9PrnnfMmRLiTjNpfqtDLwZ6ZcJVQerYDAVHFWgWTDzcVFe2BwUFoGOqRluFOGk4aVtoCRqNko7mQXdDSWKMDKcEQrZ4BiSToVufneOqpBn8978b/dAIWD4BGEK0wapoEBQe3TR32yyLQzn82+V+HBAELmfCvm+l9sTVVRVH7kH6jOG4E8fHQhNxKONdn4dPMQJt0KsBykgoQca9nf7JaOgSnuBfkUc1na6/ZIUc2Fc3LLxYV+WVAw3f38igYIuucM/+3cvrw5eWtzcBN2m1LMMsVw87baHZAuLtlSum6SbR1rk7heH4dJsR3SozRVF3qCUoC/p8aZwplm0XG4H1YpUl4J0sw2t2F3BZOpmbjFe3GBZNgjyXrmQl87FQtZ7CZeffTW1OQAACAASURBVC7N84wLD6fOGA0gxLPYcqfINYP+Y07amqtgbvcQXBrza6Z81bRWdPf0KT0IEqYYoRBpPDOj3rzqclWl1afN36lrjZSVsb6qkPPM8r88YCZlmkP0CGbIQ5grNcWL89fKU12h2RyvRv6NRyw5NaI9NKMfFMcD5Mby5CKZX1AlmW63SuDV2tshp4ZaZCiZmgXGIh9rSYO08mrPMhWFoyJG8Id16EKA0NDUqoAvyZ8EhjoHB/k3ZheDyslgkzGRdfkxTmoqyhWYZEgwOTespxvfGS2Dp6vkIHlROHdcIvekib4NGWlLs7gZQMglKuFcdBgRAUsRrj1bJRFwwDbUnuaohGjPN9cWcnNoo7ltZwVAmJwYz4OEaOPO9ngFeAkXlMI0aQEJPFmLIL265vKwO1a7Svc2umRdhf2HToBACWgKjKRj52UsRBQ7MnZZmtlP3y3N/OEWdx4nIYs7bKtWvblNTFvNnbBdPdEAAgEM26UL9Q58E1LM/B2JTp3dPYrdz8WdkzV1HrjrtsaOUwWtBCFnsbgfwr1IAgpmgmQJBxDYDropEilm3X/Nw1ChnJi8qbFAZT4WLU41VwDh+qpL5IH6J0Ie6fKiDbKtfXfUx8wZz5IluTVSlJuP3f2oNHa0y6HB4zI6Iw0HpC8fLEJ4MFKJ+3OltGIfonNWTAIENsq8MzbyMXTYp0+3ASMG14XZNY0dLN87gQGnOPJwesFPmIn7L2qnWU44XXLL1n7iz32QlM+GWuxMyxQ4ACER7rpopWUAsvGNU1oW0c4/nccD3j5Jc89N5MLVi/tto8P4fGcNQJh8WXNM6jidg2Qu674OVgRauO1iqo/4Tgrlmi8tWi9DA/6o4VJHO52yuCCxBYo7dookNemcDFFAH9tcCDcDs0nqdMR2/cYJNivT+Pi5e+OKR1EjkgSjTbTmaAemuA4AzOhCXQJKV5sLIx082JVq/XoutIyGoBXkZF0jSJSJT0Ksq6QoX90unNqk2RUQ7xgyPyvvZRXs0fX5odJXXTl3aoo3Vl8q953aEfI467KXy96+l6I+4rWwNDw0YWkgCF6YWiXHhk9Fvc7uhK7mC8GF0QqYBokzKXlUiiuelYsyLlAAgS4GAkUzQCjMRSguwg3tiKV2JnZazlKgPzA8AkBYVqrqG/J6pRvWsETDFc3Po5VXrZE15nPMVpCCHLjrenux06c7bGbWWmWbASiiy7FjpFu6ECpbhCgQyhWzULI4B+TGmdxFR46camwRJ4i9kcpAIEWePHl6RY7iGWxz6TpfCLfCIrgXwpWzDyDgSeeyg+N58Wf6uTQzhRNdYapUEg6XeZDQCH/CTRKJ5IW36xezaTtSv2kXAqWW9aIZbcGP9z3Q4lEfaFGXzU+vAIFyynxvJ5HM3V9hAcIyIWbERbaYCzr+5Y5/Ntqm5ZbDAQRzDoV4n5WuEVogdLEDQDym1RQfOrETgkXTo2LivW+082+sAkCoDwUI1enlcsoXXVjJeu3GvFXyTPfz0W4Z9vhAT41k5tZNHncluWWVZ5H6ma4BkhRJRjS7KXIyM8GV8U5zWoRzZVDgiEI+BjDwARjg24R7YjZKuG88Ut0cBwyp1CVSHYqfQcVS/OmC9klXsE/8UVItM1naQlf1ZP37sJNfW5GYCBfJtRWlxUoEyS4Bmvk5T7c8ciLva7C7UTLyptyQidQRyzUEYIxaiFTOSoDAB2YopD/okPt2nZA3Xb7ElgAWSyeeS+c44Je9dglMlxH813uHXpDs5ExZkbPQNpSwtssp8/ITsx4k0tdUPtS5FSguwzCvmZjw7drgcjllR+dz6pBVUjcPhEmKNHEi5+LA3R3bYFgpjML2kQcx052Xri8aQLBPIhVb79KdQICtFyMq/01ZQliH4Zfns7AdiaTGja0loWdtzb9QnuzaE/LLgtRc6fX3y2hyZHP09ZVwTzRMuSeurdwiDzUkTq7k4lgMRVCd1tzcKE66dHdxDJhD+LIgI07XWQ8kss3fl9V6QOBVDREfFgIDLsp2+gOJ9KF6bzZuxFjqIm9iABYMFoIaUjTZ9u5RKFGMDSoBq5kUc8IrXU8z9B3KsuObS8YBDsoBDkhgTma8dIQyp+GKMXaOr79d0rOmBLdivCyh0yK5FnSFZy1A4AP+4ZF98sar1sjBE52yuArxrBgwdkzxhHr3LL0okhVBPzIVEzsD3XJlxSaY6KfSDe9rcsna8tkjGMXSxdQFCEzoEvB8pmumCT8ScTGWes3nMCnT/RO714VI7pKH/BW6mDUK9O9GEZvOSSpSwql422A+n5EGXKBPNbSoSAJrsWatjHYvHRpJy4ei1wEk0CybhtBS1k+rkOYj0FVDKwM5HdR7eKp+H3aIoVEB0e6XyPHl0Bh4yXci5FIPdu4ukAO7xiLf3woIbgCf4X4LnyFamxwABTSDUzFRhf3BleB0QOmSapfMLYLf8ffD0N8gmU8DLA0A0qHrQd2L1k5IZKNo074mQtJiUDUBDMgx6EHIYryuhCFEBngsMuTW5yI4ieRWCNcPDsydT/WGkkSj9Vm8x82y7PpahlEe70hT4j2lUcCCBgfUCFH+0gilCeDjeUQpnIuFHqKt8wYkI8pYUeP0lZCsKdGX+Mhzp+AzR5pVJ+KWCzJkflm25GYibnmGPrRE2/NKuC4WgMDnoP+Q4ZBXlm2Uvt4h5HRIUaFOdl3LyfMXL/5e7jj6F5nnqZSvXfLPUuQ2/OgzLQwro0nXbH6l35xm9samNix00clJ0drA/Ab3Nxjm7fLkYil3GyRBFjvlQk0kNGdcjHaPeI7rMM/6hmZJc01lhNR1xAoQKGutkzmRHU+iJXe+Yd1H8IuzaDcJQ0yPIO30sUBdPM1P6Nz8JKRMHg+VdU6Gq6fGUy4nvQ0R67y8ZL1sa3128pwb4K7QgC/ShdzVUiinEqBAFYzjXFip2mExYj8ZfZEkf/nrX2XrloulF7v9JYsXyZ/+co9cd81Vct8DDymrkovaCOjfW97xNhAV2+XpZ3YjBDdP6usbpL+/X97w+tfBJZUvd/zu/+QaXLdjx06IhPnkDW98neLWxFpqu1JhvYvs7knEvaDvHy5ra6zti3aeHUAwX8MwQ1o57Qr1Uigt3dreGRJ+Gu6eZ6Jrob/9hGQVLYjWTTM6zv67Zkn4zJzWys9qgKAf9v7Hn8aON1OuuqhaDp/qko0rysQDs/H5Mr0HCBDsdxkMn+MCYfzLvWYyQMJeb52syL1ABvuTIHQ0Pf6ZO6Rr/nKLuDLTpcRdIK3eTrXT+vba22Rx3rwZvwJlxjVlZ9QVkmxXVlIIvz93bDOhOzFsMUsebDRM1KVJhVLpmZL6NksT63trhn+4fAkzfWi6EBg9weQ7FvkHVbWVpKj1/wkGzEl3uAtmKGasVjX2s7EoGqZbtqO9u1v2+aITBWf6zJQBp8LdGFWJTGVN7jLZ3xM52c5FGJ/P9UwpJdq5K1gld9Z0HZSlFiNXiMnfj04zxLh6TbkzjEaMI1y3q6NDXnjxJUUqnD+/RuXRKCwsRJKxTqmqqpQvf+Wr8r733CpZsCBwwSeBlboKSxYtlM9/6Xb5yIc/qNwIqc5U+ffPfxFWG5e859Z3STrcEtq6E0v/PQMRH6bqjVQSBwjjiGhKnLcRS/ujAQTu+ksyR9HPoSCBFq/ykiKVpXIUkUKxlDMRIMTS7pmcQ6MKyegxF4ZMn80WBHNHtJ3cLS90F6sJkqFq3HluWFYK/f/YhTNi7tg5PJE4xz/hpkvDpgZJGUNKtjtJ+rzh47mdmAepv6PLxnl+KXRDURDa69uRiEQrpfH4haUdMj8nVP61ri9TklxtMpbikXKIy9D0nOTAsonr6c/e2/aCfP7Q91T1T938f/LhbZ+XfR2HZGxoTHa85Q61g1VqakyXjP/oHxiMi4xFny3VENVkPWHmVf/i5x7s6CpA9GJqZLMbIt7XY1ZTZOQDlQ2nSqgcsf59rGqK8baF55MXQIBAIEI1Rb1wc5GhmyADstUMz2TfKrU99BHbzaIyZk6Q3fQ5kSxqOiEV62I/MFJEX28kvPLJMwMHEnmMuK7hwuYOQgY6OTRiZGsRuAntodwEa8XL4J44jEgcbc5f5logh/yh7goqBV7ouWByHPE/VA4CjEu6EBiZYC6aXEiw1N3ZKY8+9riUlpQqgLBi+TL531/fIRs3bJDq6ir50pdvl40bN8gbX/9aOXmyTiXb2rv/gGzevFm+9/0fyAc++A/ixu/S4Ib41Gduk1wkYbrtM59SoYz63cbSWY8fywzJxDf9GvBkEtTHYF/s6TsYle8RSzvDnbMcKbPTkZ8lWumGomFrvxMusDHMR0hKBXceI0RGEMIaaznTAEJ/+0lYD4zskKerMJSdIe2RCsEWZeW1xsw5AxDYKT0tR1Q2yOdPdEhdS79cu6FG9h5pky2rDOGZV2L5y/FPyqcv/Q7Svg7LN578qHxs448BfgaRvS1dMl1g3w/skqL0jUDdIMoNZkl+5jAWEaec6jR21TtbbpcPrP8XaR0A+h7NlaVlvYhBzpajbfSpwr8f7IfmfgYyKXoR3ufBRzkkC3OGpNCFcEdnmpHaZ2xE2gI+MP2HZEPpSnn61H65sHy59Ae88pWnfiR74YpgefYtf5B/evLrsr3pWfhqh+WhG35p0+X2C264d0NLATXiCfrsSip86bnIXUCzfw9CGhOxJRipjg01Ra2dr++lxW60yVn/ngCB5k47edp4x5kCXWg4FSW523dBgZEghYsTF2xGfNDNYmg9OCbV/Kz3ISDQ/nIeo1aCFmbiz/Qzk0jHHTBBAJXz+J5IspzKOjlVK4lrBGPbO6fM9/E+W6zn03M+L7VCTgyHuhNikUmuSCmW5mAH7F5jymWwumCJPN68W4JJBjKmK2EdNAz4LOSU8B2zr8gZYH8yL4kuVgEkvv+GU6dk8ZIl0t3VpRb3Y8eOyeJFi2Et8ClrQH39KQCFaizO0MgAyKqDayEHYYMcsZ2wPhTA2sDEWLW1tbJo8WKpR33U+FiwcMFkZtNY+unF1nRZURJefXEmIYrsm+OwFvaMx26ejqXN5nOYMps5LWIt/PYrS0ukCzokAYzVeMqZBhDiaXsi56YDTF2+0D63B6M+mFI+F8m/zIXS3ecUQODDD3Y1SEZ+pZoMHt/bIO09Q/LWq5fJ9n0NmCxTZBPcD6+kcn/dZ2VN6RoQTjzyt8P3yZtX3SwF7jyZB/N9vz8odz3/v5LuTJcPbvqwHGzbL2lIk/uN7f8h777gJ1gIRLzyuLQOtiJlqU+uW3wd5E8zlIvBkeSR9/3xVvnCNf8u+R7IGWPx/93+O7HoD8jbV35RCjOTpXVol/zlpb/KG1ZcKatLl4ozzSX/d+ABqc4tl3tefFTeteWNsr1ut/y18XH52Jp3yTuWvAbM5zHZdNebxTfok0dv+vW0rg4R6gnJljiupIa1cIz5QrMUs7VCZkLsQQRBaXGBOsQIh3DCS+Heux9mYSZtogS0QdCbsshwHHGisi6gBAhtCHO0JWVYbqSkpSdIb9yp0xKglfSUBQCTH60AihzHxRvnFkDFkEWLJaUy8gBgLQX/BrDbHgmzU7RyJszJncxZI1m3WUUyMAaggCydQ0GfDI15hZM5LQoZIIRqfsbp/m4uylkpz/W+EHKbSwvXy46OyAAlY8wtS/LnYeynysHOo8j/OATuzCZ5rPlpcQIcUOCIoMgJc5oXEsbaoqKsJ0YSDHXPcCGJP//Zz6W0tFRuvP46+fNf75GK8grpwMKfD57BypUr5MGHHpb3wWXQ0NgkZdA0IAD5LfgG/O8eaAvc/KY3IrdMEByEO3FNvvQg0VIRQMNm8BriKe2DDinKCL9QJu5eMCx8XUGma2+Mp0lxnVsO147WQoh2oSZ10u1TD2qKL8bkSTX5eL+o/NFjWUh0lch2IVrL4j8+7OtHOues+C+M4wprxALnLCqIMvGbLlRpJcHWjzlOb3jOOYDAzvAPdiEBRr7acfmHkf0v3Sl/ffI4zHxOWb2gUApzXznsVgKE5cXLYEHwyoEWw0f4r1fdJtlpWUj2kiN3HvyWAgjvXPMhOQEW8nBwWP7n2f+Vd6z4niwpH8A1e/D3gHz04o/LLXe9Q370+u8bYVhjOfKp+z8on7niM1iQQM7LqpARWAp+uOvHsjrvo7KyIkV6AoflkeOPyvO4/t53f0ea/X1yqO0ELA3DcrzzlFyydANARIf8647vgKiVJq+CGuPf6rapNn5o3tvkxnlXTBvi5kWKJnS98HJx5MLJd2YttBLoDIvabE7QwAmfyXO4uHIC5uLKn+MNg7RaDcz3N0zwnGhCJxv65+naIGODbaJLi7tHlWCKyAwYg6p+tHzwONvIhciaF8NuDqDFgGJSLDpSogApuyc/dIjZeJPtOTbToi5MwmJm8GD4vselcbhNWkbACrcU5h3wpLhULoz7654QZsI73eWq8k3yaFNoSug1WeAg9EfmINi1qwrEw+6RPlk+oV9gF42ik1NZrQbW+j73uS/IV774eTlVX6/GK8HC937wI/nIB94vP/rpz+Xj/++jAHkjsnPnU1JTUwMAUSYnTtbKyhXL5cGHH5brr71WWQzqGxqkvLxc/uu735cPvP99kmKRF4/Wv9E0SGYCEDgevJCgfnFgKuV2tPbEe9yqhRDueiNBVRksB72wHMQXBtkJSWp+qT2+FMXib4Grgu6Kl6t01h+QgqrVp/X2hZDgvqjK4Kbw2Uuh6mkukXQ2zkmAwM4Z8UOf35Wp+mnACxMqJvBBH0RiJtjJBA3cqZ3pJTPzsBS4kCQGBKlGkIhKMqpA5OqWTGeldEE6dFhOYFBgQRqtBhDql4GRBmReS4Mq2gJJdR0Uv/cCWVySLLmeJGkeOIkdaAX6AJYWn1O6As9LdupCWBPcMjh2QHLw3/1YMLp6axRAONy1XcoycW/Jw87yiFSXuMGHCKidVv/okKSMIa3uuA+a653yoxd/N0luyxvLko9seqdt15Jh3oUESyzWPAjmbILmixllwNAwLtYEENyRs9AEP41EOCFcRF0CmuVjKdEAApMusS6a65V5XgGZoGo/P0m2ZxRkQG5EYxVKMsiXIIKqdNeh45Cm63lI2MSiAUIWCKO0Iqh+A8BD9LxtNALTNPcPTBHZUtHWYQAUFkpBJ2Ecqf/m/R1BOTJYq9TzaIZPA+jA0ykxrVxHtiRjB1ZeViQPn3oKQjjTE73E0rfxnHNd5VZ5sOHJkEtq0sukzjeVaCnW+tijV5Vsln64aFgMoquJxKnZnOQhRMnLQIDwqX/6hKqnAgs8geDx4ydUNAPHwCf/8WNy5OhRlZl0BUBBP0y3BBLpiCJ56aXD8t3v/1C+9c2vITzXo85va2+X3/72Tvn7f/j7WB8n6nmJ6h+YK05KH5dnOk4fUZEbk7Xu5RGfhS6vmsryhMCBXcXngqtB51lgNvVSSL0TWOVBNp18A4aE2ulFaHfUOQsQOFiCo0zji65AkiCW9h6vAgk0IZ9q7cOCly2LKqdi3qN+ha/gE7Kz98mof50MBWJLUJMD8mOWG7yDztAwu/yy57BATl8sHjvxtBK6GfGOyJcu/7ixCOGPVl3jgpSa4hSK2vT0TPnKzMp+dqqFrCeStDBTRKdgMjYXvQPnIt7c1mmb5958Pnd3tDykQZRJuQCwiCr/PEABQzgZLtgDsiDT7OrF3IVFgv/tw4QWrbAdmqRpZa3TpWK1KtgBhHSI1ngmdvFBAKN2LN60olgLyXBehNzpYrbYWAEZ/ZJDEcLs/MgwWV1ZJttO7YZYTmT2fLQ+iOW4XXhigTMXbq9BGU6ODeyZ77PEPV+ykqZUQQmeBgCeMuGW6sO/k66GKAChH24CymiXIsyuvb3DcAXRgqV0EtKkq6sTLqECtQlJxl8KKdEFQZDgBihQypUYKx0ABirFOK7hsfFZDMeeifVA95k7Iw3hotFzX8TyLsOdEymSgaG486sqwAmB5SDBXCMh8wA0Fh45enpN+5H6YtiLceM2CNanq6wu8xpiU5jWywAOdCI4Rncx4sO6+TBHsFE985wGCPqlmK0J/N0wfN39Q8MKLNS29MkV66pO1/s7K+tNz2iRzLzQ1Lx80M8+/p9y64rXy2ITW9c7OkWqSofJ+prKi6W/d0qVjYsnJ02a45k90Jr3gPVafefmTrUuegQHnHxJ9ONunz70b/y5T56rp/KdyIZ5Qblls2Eu9wbTYIkZUWS+Dj/CND32i316RrYkBf3Kf60LuRQeAAdeC9wpaUn+kBBDcxtpoWBpRyhuLoBXbtqIDMIfyKL4CBaJXR1GyeOag8BYkDzwBFhGYbXowOQXjmuhIxN4Lq0vXcgmyWKN0CBJj7kqwhUCpMryYvTdi9ISnO6GiDa4c1OyFWnQnZwuXvAajvrrIl5yGfgG2y18A09SOlwd6QBE3dFuN+04d0lM+KT6Gi+fYYh8XuukGSkdMc3ddLOkg4zI7IrmKA/rDUnqJMjsxAIXrtiFGJuzSiohK3OsagxPPRvg4CXfcdlcskYebkpcgTKGpiKSZKXtaRocdKPv/LMADniT5xqQznnw5XMvzEVKAGU9gKWgDGGg7Ls85ARpbIHKJP3GNiUnI0OBrwByrSTRAnuuhDlGG5zDyJ6Vasqe5UW84M4DjXINIh3Ol/h7IBk7uoKK0N3GnfvvlbeueXVIZQFwIvQE7ILr47LSDeJKxk4dg1Oz5znxck60JkrSFWmAwIlT8xY4GSufP7XxycSH6XZsglxIv7+OSvjSvalwgcAqMBH2Tmt7gWdMPn/TsPxkV4q8YV2qzM9PkqWf65NH/jFLvvOIX77+hnT53D1++edrXfLVB3zyhddmyc92DAGpJ8kquF6++1hAvvVGp5Jb/uu+Idm6IFl6vWPyrUeG5R8uc8mPtvnl22/xKP7Bh37rlc3zHLK3YVTedlGalGQnS2Vuknzi9155xwYI3yB6xBohwefWcsuTGR1pyQDRdBTWjSSEyw0C5LrTxuGjDbUiGKmzncp9wWIWVSIYY9GAJJzFRve7Thx1tKlO9naMiic7vGAR/ctUInQhjC07NUncqZAjTqGexlS5t2U6qDQPltUZS+TA4JGQ8ZM8juiGDEQ3DEUWSwo3gjdnr0Wo81RirXDnWRdp9hUzHNKypFJ2I6MoC4mbFJyyKzQIEEzwnZlBRyyJk8z1WQFL3+iA+OFM7Me/FSnzwTma4unM1LXQPdorx/1GYis7gBb/zBD5ijVwMVhDMdm/8+BWYNiyT7ntZqe8nO6FoZ5m8eSeXkL8EqTNrslFaCMsW43IS8GQ72haER4AXT/UQHU5DxBMY20URD9H6iuHoDg7n8nprSWcy8F6V8PVMCYXeJZIZvKU2ZcphslUZiElxFYYCKFp3L0zQoITIhc/g3xuxLFr9r/1ntSP+Kc/GC6S910BMy/m1Z9vNyagb77JL796LkWePjmKzHJJ8nxjUO7+YKb8EIv77a93K27Da34wIL95J24EQqgnZVj+7Z4RaegZk+q8ZLn1YodcUJUhh5oDcsczfrllY6rsaxyXC6uS5HuP+eVrb/DIl+/zyoYah/zsCb9U4pq3XGgAhBEAmZ/vxPPgOT59ORf06a4CDRDaYSpUwlUMw0QHwdYC8pVfAZ4gOCBdQ55pL5imbh3Xb7W+0J1CEzdLJEVGnWeAaYyboA740DG35JUcwM7E6D8KDhU5IG8OsEcQUJjhmyZwY21YNIBQ5iiWdEeqnPCDRzPmlKU586Ukq0COdtZJnT960ia7kU4uRY2jwtYdY3c+OS4ETtQyYB9QLdNs4Ynk7tIKmxrUMeySVoxEigYJx7B49yPTqi5FI+uk0hTrPhPrwX6EJw+PTy3Ia7OWy77+0yuKlYoQbKq0stCaQOnqGrixSPj1Tmh5JNJf1ms4jzx4eG7SKVvv3Ykw8ILqNbPxGBHrWFXulaI0L9LDlyquAfUi+K1G0j1hUrH+Ae9k8NV5gGDp4uAI4/uny9ee9rd5Ft/AndksGbm1MT1hnmTLwoyayXMpgtTYjNBErHhumOw5MStfP86gKh0n3Uz4js05Iaw3Mi965mPNvUly+/1p8t1bXFKaY0zULb1j8v9+5ZdPXjUoD51Ik49dlS5P147JJ+8akJXlDrlyqVPeuRnjA/67vxyAlSQjWeYXQpIX4lL/+tdhtcCvrXLIUoRT1ZTlyeu+3yXv2pwmK8tS5NlTQXns8Ihsmu+Qt16UKj/c7pcPXQrexfeG5E2wVKypcKjry/D3Rzvgshgel/de5FdmaXOhDG8NSIpK/Gi0A+F74dXjCBJoRRgMTAnQmC0xBAvc8epJY4QhThPseQ0QSEBsH+lSKb8VkAM44uJGQPcaRKI0YfJ5rH5McgqnognMpuLSrNgS+ezoaMQuOPIOESoNsil/FdQTDyPc0jcpfhTT4LI5iXLNV5RujJgqnJeZgQF/Zjpy2mCsbhxt/rebhBlGNq+6fMY5OpgimSGnLF6EnfK96JLUs0HWTWRBTBQcNIOI3DjcOq23alwghPrjJ4Qm+m5WpS5Bqusy8EKQDMofXt8h3vqZ2pkpns/2QoCwsgKpBfCHOVW4mRidIDKHe/YkWOT0horWxvMAwaangqMB7ISw85lFktDZPhijPd+ighZZU1Iv2/sjh8M5kNPh6pqLZQBJoOgLowWB5ltNrjH7z/U97ULUzO0x8xAYUjiGxZ0EvhTsRj90h0Pu+qhb/u0Phub9l97kkjd/zyvfvtkH8iI/FqMmApXOLuT1ADgxfkdfsKHFz3FiiBkZHxd/5wOhqgrJjLjDVKl/sWXhB6dzHRDYkNimFxStc6BqVnWQUW/4m60AgSQ6N0zbJBoVZYbnCJj7oH3AiNhh4ilKNCdPRCuQxJkMjoMe62ZdBM1P8GIhfsF71PYVkzhIQah9/tCdpRkg5KZDfdIZXQK3bqhfXujvjDaUJN+RIz0IURwjLXuGhS6KHOgqSgAAIABJREFUq8svVloZdt87xxuVK+lKYDHLZzshLEWpamsxZ8A0H9PckZnm6DiMpFX9Qfv3Pti6WS5bYDxLItaJPUMHlSXOruQ70e+BfhlLtj8+w1cRcjnngesXXAqlziHwwWIDmNHu3wa+wV7wDl7OYo4UOt3tIEBYvzBHmsE5KIP1oBkE2khFu6MKMEfQvTs45DsPEMJ1WGCoW9IgEHS+zF4PXFTaIKuKWiB7G4RfM/wkc1nBeiywxk7Smq2RAilWsSTyDRhFwAgDpn/2QAKY6oq0k/F8EgUHwUofpcQ2gMHkYoj6v/2QU9ogMGMulXlJ8sU3pcnX/tYvR9qC8olroVBXloa0xwNKs0ALM/FfI6RyXDp8kM9tGJPN851S5DEElUiqpOaCyoiIew8ipI6LPa9zwy1CQpsGFQyDTEkxPPJKE8FUrABBuxf6uuokC+GpsRQCBJIy2RfmUEtrCGc62qcjLzRAoEjSAa+91sDVpQgVBLFvNxYWc6lOLZMCEBBZMkC6zMTfaIV+/r8h+VO0kuVATgOkc4+W5jlaPfr4teVbFFFTEQS1KBLeF8NqabViaWhqVbk9OidCcPm7cORYcwpyaxv47mYKEI6BzNmDNMt2xd++SbbMg1y5OZdEDB1R62+UjlEj02S4QkKoKwlRGVGyZ8Zwu4inpAST5caFlykZ7z7krJiN8nLyDWaj/fHWwVmBeRfKEbnQgY1EBsYyM4RGKi7kAuHcwM2NniPOWxAi9FgvpZlLl8T7bs6fH6EHrqg+LvNyDMb5vT32i4YGCNz5c8FiKCFTODMqgIW7cRIXfXAxMNyQuQe0UJLdrbnwmtUPref8/S/JLjcW2uGRcfnpLQEQDD3yrUeH5bKFkDOGNfczdw/J/R9DNlDwEVje/jPo8cEFcMe74JrALnTbSadcu9IldV3jsrrSKduPBuTO3X4ZgprlN98Eln3/OCSv/QithWDTBCPSGmGh26WjGvTPZoCgQwtVP/jqYrZyGRYEqj4SiEyZV5UFA3/JWGZhKmlmK2TRAIEL97NhEvVsLbwQSbuS5cnOPcrtYC7aiuDAjrMwI7ashNF4CKyfAIEaDL3QRJyNkpnsUQz9XgAdjrVMAExGt7CYU2qbIz54zMyPMbfDLsOnPm5IcIM3MgPrZPtIp9Qh5bpdyRpeKEvzpvNOovXTc4MHp70/6zW0tizMrJajg3XRqkv4eDJcYq9acJkwaqEbmS5no5xr4IB9xugFftvlxUWqL0mIDge2POnpALueye+e12tF2/MAIcoIbDnyhJQuuWQ2xuk5X0dJ/mGl5HhNdZ54pFmah8eQpwH+b/SM2Vh8TdkWxbb9zLZvyDeh5Gi2GBAkcGdhLjThM+QunAhRBnbrg97wCxSDGz76W8OE/N23geA3wRv78a5k+dxNObLq8x2yttIhv3xPDiwDbC8EmfDB/dtf/fKpK2mVSIFiZKr8BLyBd25KQySDQxq7RuQHO2C9QNKqr78+TU5ic1bk8ilFR5r0WQLDIAQi4sBaIgEE7lpp7h4cGgIxMro5Xtfd50sHA9xQfDT6CboTYNwzBp87XvOCRQtGPwAYuRsOxPJHAghrspdJeW6xPAKxpICJ0Mb7aoCQDFdAcabxzryBVPhBk5H50/59PNBaF9VPynrWgTB3sPeojCTPTMGRZtWFrmqpzilV1iHyWTix1je2qDwK5sI02+a8DHQ7dcDtZC1mEqj1mLIgtHZMjoFEJgWSEpl8yq4wUqTUUYZx54DVJjZXgG/MLwe9odEh4dq1sWCVPNN5esSSCDRfNf8yZX3rQsTCbJSHj2TBchiblW027nem1KHCGye0D9gmO+0IRuEw3wLVXmlZVFbXiaLJtucBQgxvtP7A/VK1+oYYzjx/SqQe2NX6dbm25jPyYO3t4p2Q710PmdEdtXuVeXcAyZ3+8dr3QAths7z9jk8gDM4pW6ovlN8/f5/839/9l3zi3tvlJ2/4sgwNUlOAkQrGh0+9fBLt6GKwKzT1E3Boc34Qmgo0t5Otz50iOQPffXBEKWq+/9Ipq8b2Wqc8emhEvvO2XCxsI/JVRB3cdl2yfOXBMfn09S65/+CIXL8EugqoqycA3QNYIU5izV5XlSIdfSPy+HFMeBekyC+fCsj1K51SmAafHpqseQ1msBDryOGixAU+HvcC6x4aTpU+yMwqmWf2GeqYTN+s1ALD+/NpGeAO067MT62UFeUL5bFTz6gcDeaiAYIGgGazd1Gm/e7/ic4m6YMaZyxla8E62dW5X0ibjLfQPz8/rVIyxC1FyJlAKw37g64EKzDQdVvBKccVswhaC8cTLVq6r83HaaEh6ZbgbCalA6RRu7wIWo2Qr7O22yWLCqK7dmKxHui2XlmKHBYtoXLXM3kOfa0GBwT6nRCemo2yDdlofSOJRYnMxv3Ndfj62yQ9y5BHn4ui1RMZZURLK62G1n7NUwBhyoVDeXhycSbfCSPBziUdhHl5AVla7JdETE4ddfuksGbtXLzbs/Yedx/7uJRllckHN35SPv/opyAg1CpvXX2NXLvqOjnaelJyMkGCGu6TtrYO7CSulE889BU5ijSoW+ddJF+54RPy3rs+K796239IAAJWJNHQvWDkZhhXbPJwZlvt9yVJLAWqmXZAohvfCSf0LNd0Mh0/sJoqI2bZzjzMhcUu/p27/V5/kvwUYYwf3oqAA9yfssyMM6bMKcMXw8XM2w0CrTvAY6PIrBePFPgoTLcd/enQT8hVHAdOBNriwsgQ+h3DlUgAIW8sW7YsWCd7Gl+S5pG2kCrMREUNDnLd0HWIEHVRC6LiizEQFfWNrgHB8OGmp2L+ZigZvSp9KfoAkr0Vhlw1d6ytrVA7xOJNYla4woVfk1F5TiHO75hwx5ivMWSyQ105+jhJos3gpehQ0pgbbnNifaBZWkdCiWe0iDAzpblE4iMwEuTFMARUu7ZdAWGpx9tnV02RYO1V8y5T30c7MjPOtPgBCp6p94CncmaAg466vVg71s30seK6XgMEZmqkSBI3UdNIiiRZM8Zhwr3IzYsRIm5svAhmzxmAkJE6JpeA3ctypN0Fk2/0vOPWN+JHTgFXppEV8HyJvwf2dn5b1hX8o2SlJ8lfjn1Omvrq5O1rrpF3rFwjH7z/Tunz98v7L3+brMlbJo8c2SnbTjyjLAsrS5bIJQAJJ5AAal3FCuz6QlPCRkv5bParR2p1JHIZ2f5FRfnKWmAlmXFBoEluCG4Mflsq7TLABlMyM0d9BrKmMSTQi+MkUDLLI8mSZLvrXACx9CZN/oxpJjByjMYf909NhJSkMUlPRd4Ix5RpPuiAtr0ppbG1LZEAghOm7OsXXSIvNh6Xk8jzYS5LXPMlI8UdQpgLZzkwXxcLD2FywUVEw3AQ1p/xyFLPFGhamjpfTYiMB2fpR/hcH1wpqXCjsITL9aHvpUW4lPUKv8xHhI1WoTS3n++fbgY7mwx3aYwicZjMubG8+3Dn1AYahGGP5mKnRmiX6pmuowNK6yC6lUHXvyZrKZJjHZ5Jk0OuZbtuqLkUrrcxgIP41TCtDWHK6/qe0LDgWWtsAhUFYQ1Lcca/1iRwq8lLUpLH5dolBn+DG5FyAASWuoYmSH+H9k2W2xMip26OzDlnwhz5MV9Pn8xE4QDiQIq7UKkPOgmO1ASujftmZ+8FFDwiaHU5vfLqJXUw8g6qyIa2oAv+56D4EGaqCyf0C90r1WRLZMuFlwJCapLmX0zEKjUy8xmEsZK7sWv3TkRFROpVO5Eb7gSNMEamdE7Bop6pzNFMeJIJYg/bwR0oQxY7YW7mrlyTAF3IesUIBrM8dMFEuCTbEStw0W3ms+dBGrmzvUHys+I3q4d79jFnOdj54QlhBAhHvLXIt2DDKAdx7TXzL5fG1jbZ5wsNdcyDCNE8mPHNO9icdC8W5Mghj7EABO6UHWDqs+7VuUvkpd4TimGfBmEm55hDspwZKsEUiaBFBfkqLJSFO6S2jk7ySqcm1AnGv937V26pibTPfK/kKPQwS2eECEsVmgoXAnMuWIsRAsmNir1fnADCKqXMNvAajnuVftpSrGGPkfIZWK89BAllLzgIsZZyF8R2/KGWolivtZ5HcHB91SXqedu66AJMtCbjupcwp586g8AB2/Ry6Opo64HuzZKCAtW3JHYPQkPFXNzYxNCiqa0GVpB8zlgQdKftaXRLO7IcJloYx8q/yYihP1/i74FMWA9+f/iz4kx2yC2rvogMk7tka0mWnPQjnXNaMchVI9I93C9DIzBFY4JnVsh1OcuwE0dipcF2ZKMckhUZi6e5CbgYmyVCzS2z8/XrhX8ynAcfUG5OllBbnyRCHieCVq4MEHgYzUhQw50/J2mal6lDoCf67KzpYk10ARTATz0ph4yzGWOsQ+XiBQgkWzKawz/QANnp2QMI/rF85IEPKLKSXaH1g/7urlF78y/FkprhFtrjfSHkcm3uNgMEWi7SUwGoIrgZdqFf3clu5K8AgRILfhp2/7oOEgkNUz95JMgwiYWYoYjWUFBzQwgS+B6ZA4GAzVp03azLmuHTrLERyXVgrTMdobc+U24OfZwTMO/B9ujCehkhQZ6MTm9urY/n0CqhAAqsPdosbD7vFCIbOpGT4gK4UKxyxXbvle+HIZNmoaVwXzTHwPGOUypvxrzcShlJid3qYFcnIyKuq4LfDW1o65pZVIcCB20uOdU9tzv1aLPfGMaoTgQY7dzZPG4FCIycqoTMMomI1jwgCsxiLSPpmoVzHufEcy7MMccdhB7+7KhnvVwvfjYH0ctVV1lePya6gPQMFMmy8hG4Ferld/v/Vzp9g3LbtR8WN1QsW/o75GN/+rLc8Y7/RAw9SIRwM/z6uT/Lyhoj5HRDxvT86QxNG4D/WBPvaFXgQkLoTN0B7r65A+SHQHMmd/3c4SlzMI4RQUcTXCJQ0Mp5TLRSUlSglBxpns9F5jOru4CLGP1/GiDwXgQFPdTtR9sKYaKmmZvtY7vooohUGHpJvkBg8BR24bP3BnuHwL3A98HuCoLxPRBwKRa8LlwcWkAqbYLCnl15dQ0sCFAW3D88XSvhIs8F6v2ZSxKiGgoz+ayUwlb/YC85AkIZUiA7R6FLgd0/3hV37oOIgw8ga+SihQvDklD5zhnKRdcL034TMLBfmVFRjYEoRZvf7cITrTsqc5hqpGrDjSVm/qRYlhZmokWBbYzk4rHeh7ofQxSxmfAdW4/r9NQqxwM7V/3Pvh9ahzukfjiyOmKXt0e+vfdXk5LfHMdvXXCjLCtaEK1rbY9TrY+puyk61gprTqwp0MPd7EwEB2yrf7BLXBn5CfXRTC6yAgR+H8zHwGLlIfDbzEHOGGYv1UVvYtQm6lwiKc6k063XUm0xxXFmIdbZfL7TVVd1ASb94BEpy1wsPf5amZ83T8oz++TfHvmpfOyK90E9EVnEcPOrfniL7P7E3Yh2gCAOtu+ff+C78tbNr1HNusxTJoGkbBi+p6w41MfnYk32uNrxT5DEpoSIqGIY2XIUiYPA+5ojEEg2a0fSHTLZCTC46HN3SwIk78nfkdxYDBBBgSRGCRDBMzEQQ+O4SJiFdqIlRuL9GXfP+keG6rCARl/4Yn2H1IhAt0FzYqpOrbzIOrjgdEOY52Sg3rbK68q3SjtMxAcCh5GIKUOGx0bVe6OPmwAhBaqNCoRx0uTOGeb5EycOYzecrd6V4lQAEDB6oKS4WA4cPChVlZXyxM6nFLiorqqUzZs3qd0NJy0COy6qBAPOiWgAgr5wGeqi9YMGCFyoyKI3Rx8w5a3ZRRQphNF8Hy78A2ifWqLRVgddT+gDPkM23FRsez8mZe2OInlVi4NFay+PqwReakxBDldH85giU+zqMCt96mRdTPR0xH9SWfRG8N5YaH3geNUJqv5l+7ckDaDkzYtuUO48fo+/O3SvfHHLx2Jpasg5BAfXVmxR47hlFsABKz8BPtlR8MrOpNIHcnW2KWvtXLbNChB477zsLMWJqmsED2FCSl0rJ9J9qsehdo9RyK2vD5lNzwOExF/d+eRO8fcdN3RFeUgwE4DPEYllfPKkLEFs9dL8Vujr90txdgEmKvj7sag8eexZWVm1RI40nUR+g+XS5DVSCl/mKVX/+pIM8g2LtiCEa9EIXBfOCTJauHM4+XER1x8LJ1FaCvh7LhoUZCII4XH6tKnHYGRATMKknwHyIhjlmFy1n1gn52lG3Luuk3kQ/FiNOadzUTSUGCMnRtLt1QqK4xPZ9eLv/fBX9HjdEIGaClNk/gZqJ+jSPwqeiP+EbQVXlGyUgDcgTV0t4kOil1yETx2rPYn886XSARnm7u4uEDR9kpeH3BQ3vVoaGhqltLRE8Up+d+dd0HUwlC8vv3QDzOxDksdQTnRQBxYQWhCKABqSYQ0wF3NaZKYCV4tkgphJT5STYZ+mnbnVgkBBGWpERCuUwyawsEbM0CpSUgzQCIDwiz2/h4BUvmS7MuSiolWTIlaaTW5YPxgXq4S91ZjhmGTfcAGnLoOhWeFVu/DV379R9n3oXgUefvzcHbK15iJZkr3A4Ojgvrc99k1586obFWC7IG+pHO+vkyfqnpWtyy6SlxqOSXVJuXonawqWSqu3SxoHWxXQ++a+/1aP+/NrviI/OnCH7Gk3uCa3LHyt1ORVROuKyeMEB4w64bfUjHERLiw55gpNJyYSmZbIfWK5ZiQwJM60+MWqYqnb7hwX9j1pjiR8rwYxJic9KJtrpvhCfqStT00ysjrSLaqltM2uP1onCbL5LTHxHQFr59D5dM+JvpPJ60YxGBxzOBhm3OAztIK/W7FXXgJLvwniSdHKJrcBDAJJeeApGFacaO4BvfMjQuaizkmWOzr6fLU7gqZ+fmI0I3NC5XkMQ+S/XIBKEMVgVRnUbaXbqRTuBBKBjGgGI5NkKRaDJgAEggFV1M7MyLegFQx5X+5UzTK+dn0wmwBhwA8f+ciUBYaLjX+oA1oOhm+cbeyYyN+guBijfumRfslOy5RMh0f5Lcn+58Ku01E/8tg2ueqKy7Dz6JecnGz5+S/+Vy66cC1irftB6MxUCwLBQDkS8Ox//nmprKwy5LFTk2X3c/vloovWq34jD0XvdsONBfPkpqJYYEkwQl6nF2t6ZLtzWJ9dPVY55XDiSNY6w2V11JEoPrhNGH3x82fvUlaS3PRsecvqGxHZ0yZ/eP4BGURm2Rfbj8l7198sDb0t8vCxJ2Vp4Xz5lys/Iv/15P+AyOtDmvJuiCF55AvXfFx+uvu38h/b/1sBhJ/su0M+dNE7pdHbjEReadAZeRby33ly7+HHFdD42MXvlsrMMvnT4Qfl9UuukwO9L8mx9jppGeiQTcgyuKZ8mfxu771wNQ3JsqqF8vW9P1OPt+2Nv5bL//jOyUd9z+I3SkVOSbTPdfL4NaUXq/fEjIJmNc+YK4hw4pmkeTDX0W4HW/yQgncibHxMNtZA1h0fr9vhQxZabDzco/LuX43JT98alI7hXHmuFu5diNO9ZxOieJCwKg/nJDmY0AlzHebfXn+yZDgRhg2S76avYhN33oIw8+H5cjBVZ97qM6uGGxYckv6UXpCmogMEc8s1H4EEM5qvw2kh0PdPkxktCUx1zEVPx7RzR0OgwN08JUa1+dXaQ2ZSodUkTEIicxiUQ6+fwIA+ZoICEh978d9pIFEy5MgAHoYSI8lzxu6QFhA3Ii0iCwTNJkCgxWAECXHoFiFXgjsI/puGBFWClLtO6LLbEf/Ydi+Y0Lr/uJPVoZ3sw0MvvSQrV66c9MdwR0KGgU48xf5lf3OXwmLdtbM9irIQwRqgd/zm96OlYWcCEHitlexqXejDyStb72vOaWE+xr6bh0ycBAj3Ht4G1n2TAqjvWvsGOdZdJzX55fJ03X4lEnb/ke3yz5e8T3KQTvxL234g77nwZplfUCl/PHi/eJCW/v4jO+SC0sXyvvVvVjoWy799nQII39j1E/n0JR+Qrz/xY6nKKZO3Lb9JPv7AF8HvcCnewK2rb1bA7N5jj8l18y6VQ0PH5XDLCQUQNgMgrAZAaBpsk7f+4mPyn2/5F/nnh78mmYiuWJ23SObnzpOa7HL56s4fye2XfTLmSYQ5O6gaymgXOwGpmCuynNjc75QDTS9vAiZzk+baesB7EyDctDod0u5e6fWNya1b3LK4GLwmANA99aPym6cD8rO3jcln/grRNqjBMiJmb5NDqvIc4HiNQ9xtTL7+gE/euzUdWWfBSYCcfACS81u/0XceICQ6MK3XjcF/lww/3vmSWA94suvFk90AEaQ86etYJumZLZKZay8nawcQaI1lZr1wZku9uFtljHm+mbUbSUdfMc0RyjiORTINJjhaAMhrYB0EAxTNoSy0zv5HIiT90KMjU+mU+TvKG7MoSwYWB4OzAN+uTWZA87Mq4RKc2wM9iJxQKYiQTg+MEHwQhGBhRiQImdQpGJvJijOTotI5m2VVzRczhbSR44LROgagMUR/MLYRX62D+7V/mteazf3R3j6CBuGq8UymVzYyXAI8TcQN0mTucBo+8HDFDiBE1LBA6Gy0oi0SJABq8MJrrMAzXIIma/0UwbLLD6IBAt1TAaS2fujEk+JH6PSNEAb78H3/Lj969ZfkGzt/IosL5ymy7jtWv04q8orl20/8j7Iw5KbmyNd2/Fjm51dKKxZ0F97pe9beLLfv+KE823hQ7rr5+3i/KfKtp36hCL+3rrtZvrvrl3LrhW+SX+29G9dVyU0Lr1bv9f7abfDf18tNa6+SY621srv+gHqXn77qH+QnT90ply5Yj2wXXmXN+MZzP5uMsOB4uHXpGyFPbYiHRStXlWyCydolDcgqOJvg4Kk6kOt8s0M8j/YMsR4f8Q+I02VkTp2rQoDwvq0e6YYF4TdPe+VfX5Up+xpGIA/vlJ1Hu+UO6Fr99G3j8rNdTvnca3Pkmw/0S313UL7xJkiHD4yAvD8un/2TF+NxXO75SJb0I6KMFKcLv4LstectCLPzGumrTrKwtWen5nOjljR3BxakVBn2Z08+cH7Zc3ADRJfdXeSqkewkrJhYPMMxorWOPnft5rWHu2QuTmqhwg44GzslhkWqdLlY+OluoGWBO1suqrRSqBBI7own+AbanaAWS5LRgFaoV/C3U9vVs2xE1IVe7owdcxJQuh8LQyrknYMTO3Wl9DDtZbNtXDQJJirKiidJkPTNK3ABfzLbHcvEy12rj3HQYwGEGY7JgB9meYAADZL0zbUgkP6Z99YpqOlOoK8yUqJlg5eBhC9YJF1pLqPN+JmEOq/XC4GhXJXCm4X1EpTRqjN5P5LlYgiKNwMFckK8ADZ2RbP6w31JZoBjBQDkARihlUYkBn8OZ2Ey1x8OaPJdVpQV2WZ0NAtuWdtKF5pKv2vTL7G6PcI9/96hF6E/EjmnxdHOWrnz5H2qiuvytsjW+euRByN6qOMVxZsgFAbxoubWmMZouDba/f5M4h2wfV64h9zZcyenrPukGFNmJ6Q1Mt3gpXiQl0ZZSOE0wJq0vKAdPBKIzeXWStvIUqkfzJaqTHCN4FLr8TskD3wFfh+NvclSng3LJ35XjGy0J7qTQVw9H8UQz3iMeu7LoZoVtVGvoBPyy/ZIV/OFIS0uqtoZ9Qmq0sokX3KVe8Bu4ZpahIKKycvz6AMlWGBMuo4BpvmcpDSGS9ouNKZES0ZMvLG4snDh54JIKwAXSKYGvqf2cXXskrzV4nEOYXInMkcmSiD2ZCgaUrvJN4oslXAvkLxI/QVtjYgU+qXj8fvguggi+VVy0ij4AFhoU0iqBJiB5cCBJEZ0F1gXFLoVhgJUeKTSn70dn9ekOg33g5JenVgUtTuAC5KWiGZbaCJXoYboz1GGQ1BYCj9rUGHuS83LMGtDWN0D6NmIFgTru+HuPzMDYa6D9u+N1g5OgnYhf9bwP5ILmYZbF5IKOab0+zCHukYamOESiGm57Ja2rmkhmFYpZ3P9QRB3SS60KwaAM6TCEynPew+LH6AxWrl9+09kOCkgt1/ySVmRt1D29dinANf1XFa8HuGzGbActM4654D3OJMAwpk695dl9Mv1Cwzly9bAEnCiCgHO+7DpMEC81fJGoS5yqBr6kKuk4DxJMdo3EffxkQDi2tMi2H/jrvHcuSCvdJ90t65R6ZN1ScJCWli5K2In5EFutyglTwrcucokTPIhJ37GxnPR4uRJ/zotPNFiriPJ7ZJgZtbQT00aCDH1jwCkgCoE6dKgZOTOl7a+TnFDdTMV/mQuogQl4TgShjATiERM/oMGEyzwGbiwsWhXhLkj0hwjko0U0tZCgOAPoA0QpTKXMfQr5ZbHzTKCOIHCRRQwInghiKEfoa0v3XAr2BTzIhqryV1Xo/UjzADByucgYPAh02WsxQAIoQt7rNdazzO3he/EUNB0TL43BRAYURHFwsHDnITtFu1wKZ+t6aSntQ3WLvJc7Eq8olvmOl6CmuJgMHpkRn1PsxzpOCnXLN4qmUkeWZxTLXt6QtUzdb1bkEgrD2GsjXArJBp+GukdBrBDfuxYVqKvedav60dYY9bLFNYY6WHSUkbl71buxTzigNDZIikqzAcZugdEYH7vKUpXhZY3PS/x+2REFvv3e4/j9+ddDLM+VsTb2yruONi9s9+CV26N5B74BowwRl0cqYOSV3Ig6kNtylwTduc5GbKoownC1EayHuPT7QoXDJqIOflzkfB4IO0Lfy/9+7WnGqWzs0tWrVoptbW1UFoslMLCAtn+xE5ZvmyZHDlyCOF/WdLa1iZbN2+QJ3c9I1ddthm5AOiLhuUDO8RcMP97TdnVoj0w/fmFmdPlj4EzVIRCpst+MYlWLwFVjz9HARZ7gDC1W7cjhyoSJhXZYF2hqZ3MdVpu+DPDHZ96apdkQgtgyeKlEwRNQ+RKF/M7iDUCIVzUQLRntR7X7WU7yQa3A3TDWKStmvbWeuxCJvU5BAhmgKR/b1bZtGt3pGc0ZzeN95lr/Y2nDsO5AAAgAElEQVTSMUpV0PgK9Ctldf4yebprf8iFG3JWSXFu/mkDB4nm0onv6WI/2weuSHpWYewXzPGZ71m9W9qGF2KuQigzSNMECLQA0rVmKHQaAnK65OGcj905IEtKsUk5DxBOz9vqrH9eCqpWnZ7Kz+JaCyp2S2fjhmlPmFP4oqSmR04DuyVnXcTsiOHMw/xIaG0gmuYHpKwMSoQRVgiw7Y3MkeQewFQNUSGK8/AaTzpDgvqlrsknd919j7z+da+T5qZ6ueTijfL0noNy8YU18onbvi3/+Y2vySc+dZssXDBf3veed6tn4/XvfPd75Qff+676me4OJhGySx8c6XXbJT9S+SHGcsSVMpV/JFIdnYOM2TasDUYIZhLATGjqV/P15oXKTLTkOQRQOuzRnFNAL7S1tSdk04b1snffAZk3f74SJrJabTRfhPXFChCiZaSM9ZOxamHYXRdLmm6z+Iy1DgKEphaEvlpcAubntruvjgSxs4KRXEoQlkihCNZxSC4nUpzikC3F62Rbm5HhcU3GMqksLDktnAPW//CRLLjQEhS8SOQBY7hmDNECybASnqnltStaIF7mlsJcWDhhnWtGmGky3FXavWbdFCk3AyyQ7/8NhL7OA4TT91qbD2+XsqWXnb4bnIU106WQlETf99QH58poQ0TDiQnzd/iHvrxgg22oIBdfqtdlwNfPJZA7Y2ZWVD5z6qUzDh1KjH395AlEnnzMZFTKK/chZOirX/+mzJtXIx98/9/Lbf/2OfnX2z4t+w88L+tWLZR77nsM4AIABCCD4bC3/N3N0GxIV5aDgcFhgA1jUte+abudZaTXXJg5YMskGE0uEseYISxlLoFhCDUFkUgIXAQjxNL+eakU2dVtDzDMmhOKvAnuhSbuUWgqXIQE20H9CYKw2ro6CCIVqHdh3RmbVSVjBQgMT6TvdKbx9eQccC9FoBCuOMHP0D7ccOcoTgpIrVoIy3weORwNTW3T8kJE0/JgHZGibAhy7XJNRJsmyNF4dvD5aKeFPU4K6jWVW6Sxs1Xml1TKqaaWSZCYcKWWC5sQzvj8GRTOqJs37OvHxuXMcXXY9TeVFTm/lBcb+jF0+5hF46ykZJ7DeZFW0vMAYbZGcJh66vb/TWrWvOo03+XsrN6V0SpZeScVh8A/CDU9+NMcqQMhkQ2ZyU7x4O8oBJPWl1LWN1nFhPNvAH/J5E1FTH+0EqsP2+yjzoO4ENXyTtXVyoIFC6W+vg4uhHZYENbKvfc/Cm2BTFgFipDlsU/cEApivoE6uCJuuP5a5dt+8JHt8vqbXqN2kswdQBBj3llGIqaZn8fOijCaUiqOYAsSkyUWchUp3t+6W+dC6PP7JjgLSvNvEnYYbhmCBofKkZDhobViXH5/95/lisuvUBOXNQKBmhAMD2WJBSDoKARDvRDjI4obKdJY4HvhxBgpzDLaTl/XnwbgFCBp01LINeAkzdA/c4m0+OvzInFk2NfRODbhnn33YHQXXqR+W5JaI4vL59mmFI727UU7fiZaDaK1+Uw5ngxO0XVLmX3UAAiUNSfwt26ErBZDgli6Hc4DhDl4ky1Hd0rp4i1zcKdz5xYLkfRpbXGn+KUAnMbwuz07dGzXS7Hs3nid2X9Mn3FTC8x1WJC4ANJUR51zQ2oZOvkwnw8O4uNERkrvSJqRCdK0MzUvwprdf+xEfYhAEc/XJvtY3i7v7IISWqorBxaENpASEyPMeiglHSZs0E5zgJaVfOSKoD+TapK00NCaoJQqTQs2F8G/3HOPrLrgAqmoqFSPlIpzaM3RfcNIDiWYpCSFGUUQKaiSMkyGlgQXd7ahG6m4+U4SLexvukrClVgJgeG0GfJgraLkLcWoQgqRcBgLFkEWrTQcp0bETCpUKRmRA3cXK8H/cdfXDbnyRMpMAEJNSrlcULV41sHBI0chJR08s9wJ5r7tajgo+ZUXJNLdc3aNG1lfL1sIKyPGByMYmDPGLg25VnhVSqaYt8hD4HdwHiDM0asagLhNZkH1HN3t3LhNmiMor1l0SgIIchwHI9euxAIQuAAxLzqVDEeZCAgLFMl3NNdyt6wLRZbSsXA2t7arBYw7wUFTBkYl5wyEnp42CgncUBa+dSdPRM8PUesw8MMk+DhZ1zgt5W+kVMbh3jQXJy7UukRLVGWth8JTJOnZFapCBpBDPpFCjQiSODs6O2XTxo2IPvCoqBP69UkOpVYDF0LlpkCf6BDFSPfSAEHvrgkU6MYxp1SOp63RknbFChDMoktKz4LETfRrYX6emqi5wHN8MeukFucgMCGfgP3L8w2Ox0SyK4IHhtcyysXGBRIJ1EV7/kQBQhnyoVxYswIukxZJYQKpWSoPgWvAzKL/n73vgLOrKrf/pvfeW3onvQChJEAgNFFEQXgWsHdFER8PC4L6RP/YQH0+G4oFFXkU6QgJCYFASEjvZTK9tzu9/tfa5+47e87cOnNn5k6czS8kM/fcU/fZe+3vW99aodpaak9JMsSsQr3Ny+6U2Rldkp9tkShPlZZjfIK0shsgakVHu1AujRJwjG/0t5kCCOP4hCdDvmocb0fQDvWeBadQn50+BCRoVjdXo5yI2RjypWOgytM6dQyoaKdyt5hQuWLmitdbMycH09kvKbYTgz9JjD1DXBH1vuwAQckTYyLsxcqQyopJTivncoSe6a5oNlYB+OJGDJvgDUEfT6p+5ncs8SjruMoHgbl4Z4llJModLdEjrFidBM36xmYX78Cfc9PPg9vu3v22FBefluuuu05NgARbvJd69axSEuo41hn6SjOoclBUTvA7pogReRR0ztTmWf52OF8VEXa1RU/7paJmHcpW+ZyZRtKRFP6eipp290Zlr4v74+1+JmDQptWzuzYagPBW6z6qT/h7i9R2mWFpMAVarkzKbJWzAe3HvnFLZ4RsOzWyyNeoDuznl+m7QnXSydDIP3Bn92x6mejrYL/kAoeVVEpyngGtKZLi+D7mKd+Gsbnf1y88iXQD5JLA1OVKvx0rUa7GUmmtCxCgV0grEs6CwdPwl9ublr95xiYHgZNomHMlFw8tgahwkB77I2B4NDw8bQcItIm2VywwglBT1wDAMrQ8kat/y9nP/2YlOazmjVTHVWo2zoUaD50AUlq1UZH0MFl5y+dzW5IDyZ1QstJwcmT0hfeFERhyDqyfIQ4F8aEOHIPXcfDAAdnx1k75zKc+aZE3lQcGVR0NNUUMwlqHwRdA4DVywNPP8K2Sfvnqo5B0hs78r2+Ol8xY8iP8Tzn44qP4q5rqaT/sQ+QfaDVJ/VSt8C76kRdbcg7inkphRwMQ/FFTNHtfykCSrJu1WvXhHuW3EbwW6tEDhVz9UPoM3h0Z+Z4UQRHvVQGcHLkYaoYCq35f9F4J3plSoCCaQ0XxulwLpSmAMPJ7P/JvTqIONvKLHN9v5ia2y4VFVQokmOkGveJnJvstJ1N7ecIi2J8OLUvSkQZfE4k5OfDfLA/kwE6hoYQo+C5IPPTxh6/wTIDgkna2TQQqZQFynl2HgbnAQMlnOpfI75IXwLyjO5BBgKCEf9y0Hk5WTt8If59mL8ywIt3YanOS78WfroEuqSmulH37DsgN11/vyvXz/g91YxyUnvYXIDAk+pGHHFLbMNRq910rHfK+lcj3+4mxKA1MUOmpmX4a3u6LJ4DAuSU7070Wgi+lRgIvqn+6a6MBCP6qKfK4Cf1xcsnsc8F3aIJc+MhSTZ7uW31bJDwhxs8q2d9+rbfr7e4AUXrQBj3Q74/n9lxTXL6gGeA5HOlL6lJUubg5BNQch+gi24E0KcE8fWbsFUhTAGE8n9jUscb0Dlwyo0IyoCxoggRTp761v10Oth9T5+AukuCtdl2feBcU/uhKpxvTFwxtR0VA6Ci+XboHUgA+hpcHmgCBq26uvpVYiZFLZmibL62daGaGp3lcxbD3kIfW56XlmAl4CAxoHORO1c8TQFD3whlFsD80FQp3/lJHUPQ2zb0tcqTzlNfnnNQQLRetOn+IWJA9yhGLVbaOpPgLEKJj4uS9P7OiEOfNjZLiuj6paLR+fugj7YOW2z56oV3Z0b65BWQos+09KuGJ+EoQQF8Ne0mrN50DngOPSwlspizct0FQFeiL5q+aYlx/rFw6ey2qRVqkHRGhYLdQkk+2X1uHow4mcpnBvuQx219CdD8Mtxwu/gGdNNV4g25C0bYWpBKY2mzG3/YFCN9vVlFNAYQxezzedzwa5bMJOuVJcVjyEcgF0CDBXs9f2V0tpd1V6lpWJaAs0lkB4U35zrxwTpzKyAkvmjkJc5toRBFiYxFBCBuuSkeAwInOCoVzRW/l3anN0IywnuUXEa7y/A0onVSRCvzH3D9z6AQh/NPR2ymNqL3OS8xCpGHQM8D+cHg9jAxYYXtL+2HQcIiGUvRioIoafBto9uSUgeb2zENyciZXg5UIXN2TowF1CnH04FzBkQiDbzyBB1fJJlGzN6xHdjncy+/qc0yWRFgHz5MSEKZyc/OcpY5DXRRN2WF/AcL20yL3vxAj586Jku/eYFUI3HB/u9S3Dsg/PgcuSpfnqIB5/1hpwfJEb2kdu+y2u5fDE9CgYdYMWD67Awh246phzxUgwZ10MZUrFdlxhK0C70QZ3g1vLbY/Ri6bfR76ayv4Ov7dy0BO53BNrJyqH5nYUyDHGcm2E2XENJJz1d9ZVdQG+fluKUR6gQuBWigoshFoxjIyqAivno/ACMQUQBjNExjld/3NZY7yMP9WX89J6JB10yrVNRMkRGPCtdein+g8DV1yS5VRgwSrKoHMaZgOIQfH1b0nshg5Drr6wBzQw+F+lpSQCAHa4QNtrSMRPIh9siZxKdzt4MxnVD+4wut4YamDznOwnA87FMGSK9U9PcONca4sWickC7prDDIkJ8VbXgL4Pq/HilrAnAoDBH0pTGtsXr92YdT7S0qLk1drdg3bfUZEqsyMKVKAQ+9fjzPRkJ5+q+mARILnEQdtiqTIREmOSByS0mlrc0hjQ4Pii2RALIk8BLungwkQ/Cl1JPCqbOqX2x6xwr//dU2sLJseLjf+zAJRz/1nnCp/9K/B5hr3yFuEwOSfeNpnLAAdeR321oY00qwZhW7llr2lCbw5VvpbWeHpXJv7WuVIxwmPtydmIFo2zjpfVcY44MgZzNaNUsbihhg5URea4KC7oxliSIMus8G89rHcF/kHrMqaVpCnqmbob6L4BogeNFIvxIP5lz6nlOSEKYAwlg/In31Tg5+WvVMteHeAhEXd2gbSh6QE+HtOlvvbj0p7f4eqoV8BToJlXMIyH4s0x4m6A1UN3JYTrBWqJ+EvUqmQEZFzlc7Vt8kZoKtgXNhwBcNttXUqB78wbs4wGWM92bCiITcnU4kl2Zs7gLAyfrGkoEyQCoJm4yBA4ZM6TIi+qjL093TZpbmf3JwMeb7s1WHnEj0QJSuSF7mqDJzVd2q7IT4KjLbgPwIRff905KWlpUWV86WkpKnv2QWATOEWv0odqSuP5dD7/4Da7V4bvwTckEc/FQfiqkX+tEd+7BdopZqoreGZtOBPJQP7CgGeHWjyuqcX5klVTf2wzwgq2gBQ7UqOrM7IySKx1T3I8Uf+2dcb5qnUkc/78lkXWPyYNt+mTr6Ooz8vb4Y6YgXVTUO3qYoFjs+ThJRo3kkChFhobdB6/lRJORZLUZKRCp2QZmtR4a6SwT6OTEUQQqBvToGE4D4EAoT2ngiJj7LMhkwxJat8z8ofn+gsQSShUYGE1YlLhq1ida6dK3pzojUrHlIxEVO9T7eEeAzwvWWQM+6FHwJq+7sQru6HgA0iFnNip0l6ZBrq4FOHDPQUuGEpIc+NAKGkzEqBmM0OEHi+PO8+ABhORFr5j1GpeDDkPbn+ebvTjIyYjczmTbVvDPtKGGra1qYtV9bWaqAxCIZZmWkQh2pT5YaMSvDauBonMNApDnIhWh0tSoY4MdGSqTXVE/kzIzOMoujJ1VeaQWshUBP/GvAQEpzh9gZMxs9+lh4R3SBkJVl+Gk7TLU/RVUsmGdbdimvgvvmzYmeKglEbeySC9yM/N9MtQODR7JUKPJ9kAEESJ/lvXkcrqkL0M/emWRHIm+UOIEQORMiVs9Ypx78mx2A/D2S/5rYMab96Elr/3Z7FzUa672B/j+NyXy8Y/TA5mmxNExSpf8BoYkVNreSBqFiOklQdOfQFEHjNYSdKagZONMZKSWNwwjsr89vgJR0ttW2ha14Rcg9bF3xPQpQacvfSOKH3LjjpAv4aJHD1yMGfkQG25j4HQqsn1WR7YeYqNZm5VRoz9muGv03fAG4SGxMhW+qHh+X52YK4WQi3Jw0DCNaKVtkkYeLIktOllcNWlhogRCLSQYLloJgxSIvO8kBOqgQzFB9iVMMffQLz+dkBAomDb7Xvd/uIL0hfpYiPbCaznqDCXr5n30EXuACvvrpNioqKZN68+epjigZ1wBhLN7vAlb8AgZGIN4+3yl1PxIDzMSC/v6UHZafWPdIRH3/6rC+/BU+OjOa+vUUqPFk+W9+nYqKVKmE/1Vbg5r75O14rxb2saJF/xlzert0OEPhOXD1zvSobrneuOv25d9622VsRJ+WYH0K9EWhTtyYmPjXUT9Xt+UWGD8il85qVvDJTeFxE1EC909Sr8AsgwDTEBaTrOqNkZ+nIS0xIDrtszmBHpad0pSNajtRNjrKQiewJfXALjIgM/RdnIu9RoMdOj+uSDTPKXV/TIIFcAxLEmDog8S8c5MABmETFR8fK7qojsiRrnmL2eppgzQiAHSBwdfx649vY3/D1aVZUBnL3hcMAAk+Q9e+s++fK8vjJEiWlazYChNjwGFkav8DtbchkVKKu0RI5ctY1M88YSONEQG4CG9MpXPnucuyXPnArzLYsfqGkJSRhVWlN6EPz5p6Z9HqSJqBoawPRDbnsjAxL4Y2rGq62dZRBV4fo4/oCCARM9GTQIkcfeFBkUcGA3LlxME3AFE6kF40B8xp9VTJ486pwnbNSQbRkoO3NG8Awo1K+Kmv8SYf42wfsAOGamRerZ1LbaJHbRtu4Dnru8OTI5bc1VkhCWv5oL3nCvp+f0iML05sUGZbKr+RMdRklqV7BwennJKzsJRnIO1/CTIBAtdrnDo8OMV0+132OrLwlWvZXT75QzXg+4Z6uNomKGTlAG89znSzH2jirVFJiBoliZrrBWnmzIsEawA91HBdHH54BCHb0tGeIXAd3zOs1w8t2Uhn3tNtxSLrChobr+f3E8HhZFD93OEDAQRhuZxqDE0cx8oUq72m00oEKpChmuL3trCRwV6pkJ/4F/MxwXq2oWgijCiBWk9SOsDzkkXIBmNHCRjy+jlgwTZKUlIgcOoGKVSrFSYb3mtCBERp+nxGEREQ6VqxYqU6rn1wc/meUfZrW0b4AAvfBQY+5e/JDtheLzMsOk8zEwck5HhwTzUPwdS98iSXpShRv+7E7XZrb8jlXVDHcO/Q5mykwX+fI+x+PShNPugi+vm//fGfbPmVulgkfj3NzlyugWVU3vCIn0P3q7XfDjbESroyh3poqj0pq3rxQP02v53fBzFaZnZ+sxhR7SaoG0+52EP3IPHxn8JkPAQhqkKyLR7ph5CvZOJhDrJvh2TCkrTtCtpdC0jGEdbYnsmdMtlrbibxX/h7bJC3yO94MnurASTgJbgLbzOgimZM5De5nQ8l+ZhUCIwacCHTjRHiqq1Tq+9wD5bMTlylxErpA6maVvPIny4+BRj52rwPL9Gh43pZhZkYK3Akp8Vwo+sMw9EiaPR3DfajfIQJgmhnx+kmgIxfDru3g7rg81xdffEFFcNbD0ZHNLq/M35nuhP4ABMXJoBsj+QPgR1ilnogSgZxFOWtWAfhrp22SLd1dgz9lhap0VZ3LYP/Q+yLIJNfEbs9Mh1B/DZcC2daf5081xfioWEmuiZYZM6ZJhxfDKn/2Z25D0yWaL4V6ayg7IOmFZ4X6afo8v41z6qUI1QtceNTUNwzZ3lP0IGzbf0pczW+GbDsMINBN5PkjowsDeYoimEcmSeX1EtaG+ylv5vOWnDkbtNSclOTsWWfOBU3wlWyYUSbpcUNX9L5cIEleJImRk87C+NmSm5yJOvpuhOlouEOXQadvASdN4/o4QdVKvZR0WKWW9kaAYC+R40Siwu4goXHQ54RiAgjug+DAXpFAMhvz/d5UFrlapx6CN8Kdt8fDag5GJ/SETUDiMLwAOAmT0d8ZgHkTV/kVFWBVY/JMz8xWoIN/eI2ml4Jpl+wPQNDXoWAUUyVKT4rgy1K7DCSi4svdk5UI1Kzw1TxJeDNNxUhRgrK/tpryvsA5+6OayVQK5asD5Zl4O9/G8CbZu2m3Ms/KSM+QeQssfkgwWsjLJ+Mim6qOSWru3GBc7oTtY3patyzIblPaB2y1TQ1ypKVYZsVazqneUgtRj6+QqAGMefmXSNy630rn9i8NTTHoq3qjFMxsGGaMtF06pwkn4vvbrH/ddHJ0YMT3USbnFg1l+4FkF0/Okw+xs34vqhrcdccOONH5aodQG+5AjbgCCnGzJSEiDnoJqap8LRIkPobcGUanKY+WGG4Nb5WDLe5rygkQuFrmZG8O7rqsj8JFzBfaV5HkBlA0STduT3DgzwRBQKO83QMgwXJi08RBRiC42mfjxNmCKgXWUJsTuLv7SLBEABGHiZQmQwynE1h1AAhRrpiTXC/ImVoxkakeEyDQTluT7/zRQvD2LBlWZU24ndvh6Tu+HB35PTMF4mk/BCVcxTG1wn7SD5EpXgttqcvLqyQGKYJMeGE0I/qSTMDnh10zn0ErQFogz9NXP49i38J5bnt9uyxfvhTOjCOPItuPRf7t8yHOPehuh9ZB/OSei66ArDJfce3cyH73bMkW9ThWJSxWKTyOV55a1GPnSZQcUR8n3tIkrb9PdQ8QWJrF1X2gLSm6T86dhnCnH+BA73sbjtOK40214Xeg+sSbkjP77KlbM8o7EOu0hbbvpktSpT/M90BInfr4cJjr9DYDJoTJWfHzJA4/D21WdUQClRHbHdLbDUtebNuCKonDqJLQjUJJfFFJSjQnKxfZERMow9vu6t217TNJlvV+TCTm+UWCiMmqA39Wp5wcabusCYvUdnC0DirnMW3B1Iq76AWjAAQkTJFoxT93qqGsUijIyx4S8revtk0yqD9aCP50kyyIM/mqsuB+PJUomsfw5Zvg7Xz4DGuQ349AWSabjqKwTLQWhl2ag0JARXJlOMBVJurZmU4KJjBQkwGA2v899rjMnDlD5s2frwBNsFsoSygrTxX6L7mx0A72fRir/S3O65Ci1G6UMma6iMpPF7+i1FLZ0iJTZK4HDpPrnJqPSfzL5yJ68CuJnP9R6S992j1A4Bfoxb31NFzaen3Xq+Ym9cji7HasKrzoNnq4M0Q8zx0dHTFyrG56KOy39tROyZq5KhROZVKfw2UgK6YaZEXVx6F52B3me9VwtKNYmvqGlpFxkl8CoBA7DChYuXNKPDOqoB0Jewd6ZXfbQaFRFFUG7Sp7unSSwiwZWFFWVQ8nhxEgKBIe2fEBRAP0g/Nm9KO3oeGRmULQv7dLVnNSoUS0FvRhRKUw35rw/ZnACJCKCnKHEPXsCpP2YwaSZvDUWanhQJ6HJ8Eh/T1GPzxVIOht6H5HcaaRNKaS6Jyny23t+9AVH6Z+xEiO4+s7MeBntKCE8eTJk5KRmSkZWVZVSTAbzZdowhSqjRbt1M+YrG1WepfMz+mU3MwM1wLgSEWxHO0a6onC6KWvFv7PqyW2d7trs+EcBNseOA4drY+Tk240sudndcqM1KEqbr5OwN3n1GE4XmdfkY1kT2fmdxx1xZKUOePMvLhxvCo7WRFcfFQbpPs8A3cAITE8UVr7rdy8Ll+070gpGqZqIaWhYTV7mZuemKmIl5OdKWUVw+WaCRD8mbg8XRAZ794Ii6Z6obtrSUF1AtMLuunqCZIuGxtaEJZ2PwkwWmCJD9ECOlZFWaxwf5Qi6unIiP349ohCMAACz5152ATwJuobHSAJuo8g8ZwZ4dEaE+7uqS8io7eOZYk2QUjLi5+Gz4452g3QJSvLy+SsRQulqhYVFW5cOEd6iCO1sVKMOWOE+Gmkhw34e309nei3k3fu2TCvRaIjoLKZke6qiCkuq5B9PVaqwGwzUGKdjVJrXy3qr9NRTdcqvXjVfQIEc2dq0eIc55TTbRDbSydSpiobvNzPns5WiYpNDOId//fbVTQcF981D44+RvOHh1DeXSnl3cPlk7kbchNYFtk10K0iAyshYuSukUHPkLReMWYhSlCLCINuZNvzM4Y7cwEQPLHtuVJnJGAk61Z7qsA8T7u6o7trYB6dkQP6xbMRAPF73kR6yPZnmDzKjf4AQRKBkP7MLrdsrxQIJkDgs7AUJzvd2lPz+oZbUA+9K/7cM09vGdM4JID6W1UR7LeVz66srEQqyitl7dpzlKiUJt6O5livnkwUxyRJGbe3VEt8skXmm2wtPb5XzplugfWs9DSXZfvxk6flUNhgStO8rvjwOFmMqKevRon5jGcLJOnj0EUxdRB8fXE8PicIKWuJkUNw9hpAODDUEeh43BN9jL4eaLRH+WZOj+c5TbZjLcnvkMKUwYoGf9TEaOxEgydv7app6+VA+TE53VcBwBAFvYM5EuOG38CQPO2eSTLrdTouOmdbpffuCyCYJZGB3ntPK14rHdLkV2qAx9dkQntEgedDUmd+dJZSjGQaxpuMuKUmWOfiOtirDLQplqv/w8titI3Pm9fAZ0ATLxIGlf6Cm5SNL60Diy8wQhEhHJeRookACDXVVVJYCBEgoMzHn/ynXHnVlUEBBwStzx3ynbIb7TMMxvcnMwn8wlkOSYyxVugZqSmqhJetAnbOuzoOuXgH7u6TrzQDo1p5OVlS+4M46f9weegBBPtFvVmG8GVH6OavgtFZA9nHlG9DIHfL/bazMpGzQ3qMzR+AQHLi8c5ij67uKGwAACAASURBVAdOADI/L3eFYqBTargF0Z5dTQelB7wDKh9SAdHeSOQle70ahj0EBiwV1EZRlFv2NnGM1AXUXekez5eOkP7wBvQ1MIio5JyNdIP+zFTjUyWdhsaD3oa/Y8vNzgBRr8ElRsV8OCsazHMxiYCjjSDoZ21KZfM8mLZhOqPPthqxcyLsz5BumSNNEbBktqgwd9wBQhcc/ejut2v3Hkjv1sqy5ZYgUqCNugbEVFTPZWN/fu0USmJHUf0W6DmMdPva029L1vQVI/36hH+PJkxscdExSGFa2hJ02Xy1bqcyhHPX+M6u8cJBYB+gOijJxyeLy1QakC3kIgjuLq6jJ1xePZ08FU3gzdEv8whIahPes0PoBPIgRbo837Kt9QUSOvu75GinRfihoiDV5hRJMWGwTtxusMPVMAlmr1bukvaBDpkWky9ZkRk41iDpV6kLYl/U3dc6Aprd705lT98+lkKORNcgDhwEnR7gvtLBj2A1RCDggN/zxlXo7O+Uve1W/pOW0FlR6Wrg4XKVgxDLLdvhPkl9eHIX+G/zWkxxJO7D9GQYDUBgeRefmadzpzYFAQIHSN3sKQ9792U0SKtJBtq1KTM9a7p7y+dA9+XP9hRs6kRlyt49e8ADiZc5832Hmr3tN5SrErydd3tThcSnTl4J5djIfrl4rkOVWc9AFIhpIfbdrWU7xdHv3mmTYw6dXz2959xHNlKFbDWIiOlKJ5YZTwqAoB/4llPJ0uFHVYU/L8xk3qYXxJrISUysCZV7n5PcIysLIDbjoz5Yn28USs06IJBDjEZyG3PyutnZ/3r1yTx6HiICO8r2SXVvPdIOMTIvboarTJLcA4a6tdwzV7OMIJSiRt5TzT7BB931yEVgHT0jF+5KCe33mZOEKj901iF7qljw9nwsYaRYNcF7am+17hPoGAojKywJ9dRoiBQNPQjKH5OcGYnzi0W4lPdWlfeBk9GDgbATf9hGqoWgwQH30Y3nF+1G4Kgfz5KcA3Mt7UtYyW4oFUi/puPl7JlFHiMInh0tAjmKta1Ko2AJ+eKL/5K5s2cjvdUmi5cu8UrA9HYUSDnICyGua+Du/FX0lQB9Ei+uVhS2C6sGWa6rXFzxPm4pATgYGFRmNa+d5dmL4uZ61D/g96nqyTGtEuk+jilpKcmq1DaCWi2hxkHw1DFJfKGXAzUaphrkgtsaJDbBNwN/6l55vwOpcX2ydkarzygC92J6MFDvnwqFutnNfUz7Yub+VfohDeJGrc2y13FEYIIMd8fZyNUnQngpRYX5VcObmmMLvduvwN3ETu8Dkt5Y489IuacySNP8ZyQAQU04ygMAIAGliu6aTjPMi50pqZGe5XV1mqUcngRK7ZGVAyAzmmQ5uztkoFGE4dEh91OvxUuAoY0TjPC6GNmhuqWnRgBDUBFoBIb7I79iGlIMJWWsVnEf4tfVHaN5hwnUykrLZOlZC+WFf72s5saVq1ePeJdVjih5u2zyeeoQHDBaN5nLGRNj+uTCWRyrwlGqa1UjbCl+S5oH3Juy5URlSmF0rsexjem7wvwcFY2og5w8q5LY580S4EkBEJ4/NjqdBC3cdKYRHtubKhEuyxvxyz71ResOzMvulNkZIIDSrcxLMwGCtmjW/ghE86Y/QbKRoyd4oPOhnkioShgXFy1v1R5QdtOzEIqn50MLJI2J5FV1QCZr9d0T4LxN7FQiJJ+BkQkSIYfIQGNCo3iRdnw0V8iBTnIWSIDEsjGh8ncxcVGyDXbX82NnSUqkd7E1bp+XYyfqDZ3AzXvOR+MvQFBhUgR4CDa0VgO/7+3e2TkaVsSl26u4FBUhNUkskPeJz5gcDJZ5emqjAQjcP5U++/HMX3jhRVm37gKJQHSG92UknANK4285Ebh4XiD3ZOy2RWpLEbwnbzkj57DLoZRIgF+Ul6tuVQkqUPZ0H/Z426ieaEbPzA01GbEBCxPtr9KGdJ8CUUowylI1HXeA8Hb9flmVtcR5AoPyry+cfkU2Tl+vBi8OHPz7r4f/KbFRcTIn5XqpbmaOUCQlZQ80TpdLexcd8IDEI/4l0X2XSm5quByo+z9Jik2SDbMvl+M1QEUOKNbBsn7ljG6JjYyTbcdGz4Ieu048sj23NULPPa1gZF+e+pbrDrCeOAb4wJsUqT3kbKohRkBbvI+xV2czJxuu5qlOZ1cx5O8yQDIqbq6QmjZ4teO/JTngNUCFMR1RhcrqOreTk78rf67IU5OTAAp0bbLTVhkvDj+jXDLlfzkRNre0+aWyOHSQMUACJiTKKTcB5MTGRklfr2/imxZLMq/TLresAYJWhCNAYErIV0uOt0iUvDaWZmoyoR1wmPuxOzgyt8ur8KY+6Y9pk6dzZRWHPwCB166qR7zI5A55LmqQD5PXt72m0gl0zaQS4+o1a3zdNref70TEoAaRg8naerpQIh4zuUvE1812SEJ0v6QlJWFxESvlsHCmUBerhtr73Ue53BGk2Z9jsHhIw/hSXlmjxhn2FdP7hRU+bMrDZLxTDPfvfFCqHXUyM71IPn3u++U7L/9cKlCPmo961K+u/4Q8fXiTvGfxFdLd3iv//drP5WMr7pC3qjfLphObJSo8WlYXrpS5WXPljZI3JSshS/789l/kq+f/SgrS4qTcsUdexna3rbtVDXzf2/R9yUnMEUe3Qz519hfPSIDAB9npqJfYJN8CGJP1BR+P846ECuhl80HY88JHYBhfM91VBAETPPN0bOZn/NkkBKrJGAO0R5IQLZLBGnZAmWRP42EkH/oVT2Fu7nTlWcASRG3UpFaGJMeNgHnu7j6y0oI6DgwttjgQvrTZD/u69wTz2lVQT6QK4HOA8SFdS4BUQL4FtBCYWmDj4GQaP9FOe1PtG67TiESUZ1n8Qq+nxYk0RUVwLBKqqVfgDSDYAaBymMR5eYI6fATR0dCv6BnZwoMA4XRppcd+wQiC5l34y5MhgGIfSU/BBAARJEo2M4qSgIllJJGDyeLC6KlDdHc4JDpuskY+rKuiAdOiXEQDsaIvyM2WxqZm6XCm9zpACj4Im3p7S49MhT389CG/5ntJgS6m0qg/ojxAAOj5eysSagFvLkD47kwoQPjp1XdJVXsNLEU75fZn7pWF2XPk+1d+Vb676efy5fM/Kp3tPfLxp/5L3n3Wu8A2X4dBLFF2Vr4k7d3tCiDEyHx5/PBPAS4q5IoZ35Nl0yKkrfc0wEetrCmyPOYHBsLl0t9cKk/d8hS457FnLEDgtU4JKfmaynx/fu7scDmrcGJKaslpIE+BqYEITDp76w9LZ0+3rM46S9KSISKGz5lySIT7H/PigaYE7Fe/B7LPXQMW+W82BpIMDChKPhkDRqAggZN4q+2c7EqRnu4+tzMrNoYRAzG5vdm21/V11iKs8CBGxY10SNW01DZNn7xFX5iaYSpIN+UwCZDjTUDIXhXhD1lU75/XfuJUqVsRKW4TETXIb/AFEBRg5X8Y7AtyslX/YAi6B2WN8YmJIwIHPIeXjiUjCus7YuP77Rr/LTpbsXBKnNwLJ6okMrrJ50qHRoLqanh46Peff+9s3T9E+4CmckngNplN8w04zrC0mpEDvusa1JspUSt9StCARc14RxD+dPAxqWtvlK+v/6zUdTZIZ2+3/OCVXyEHPE1uXnmdPLLvWfnIqusBELrlV7v/ImuyPoaJP1q2Vf5UUmJTZGbaDJmWOl3C+mfJltN/UGHSlbnvlqSYBPnn0V9IfXuDfHPDN3FvYJnbHiYnGnfKnoq98v7lHzmjAYK1ou3GinZKSGmkQ9HqmVidAmhORNMAQR+bkzWH/Ddr9kkXnuuytAWSn265T9Lj4Z9PPy1nr14lmVkjU4IzAQL3yXwlORhaPtkfUyd9rhbxcXAFwt/rqIKve6mAhFMLgtu6TKucX2QaYnf3oSG74bl6anoiNSfuoZ4OnusD3Fkz+yplNMEHz8kTR0KnRcw0AaMZR44XgzMSpy6HUSJleY0UgU6p6OukYqfnMjVre1ZiFOblKDBQUlHpEXj4eiau5wo/Hto0T8bW1d4kMfGj466FwnUnxfbJBTNbIQ0eKymIApVWVrkAvO7rJ2FLXwd7et3siok6lcd+QTIi+xEJttQdoYGb6nvod1Ry1X1MR93GHSDYbzpRCgeYln7YnYYPDwXtrkiQ6jb3+S8ycqMj4RzX4zvfGQoPe6zPgUzdPgCuyGhrwJlqgd+BC6BSlgSVMnfkHlXHz3I8Z1rBZNhb+WqqDFoAQ2v464mWazBvvZQDQBtKF3XTHAaSk+LgX3Cg/pjU9TRJQXS2ZEoyhG52g4+TItOnTcfnCQFfqAkQmGIwV+UKJMBIKBBDKPvEbq/q8HSC1I9gakMTiO16Erzfb7cfhOvmYEmpN4DA4xDomPsxwYo3B0aSRwnUzInYnvKwXwc1HjjouiZVH2qPZr+iEiMjCJrkqEmJ7kCGO4CgowZkodPFj99nlKkHhl8jbZ2IFlDBlm0bhI+YYphs7UxSnGWV1TmFzaigSkdqoQXLXmsUSQSopJcJuUNspkAZf54D58Z0ODhqXZV69FFajJeCFBuNfqL2gUUIicy6mfoqfA/4/k8oQPjRm7+RFQWLZEHWHPnE/90pf3jvfZIRlSatqOnMirdCQ2097RiUo+V0SxeAQILKEUehvrqrv1biQDzcXPy4nF/0Aenpr5aW9myZkdknNa01mCjzBIRqKW349wIPdCYjUJjMjN2JHJDWTGuTzARMEh64CCZr3Zx4dB5PUwP4YpIgp39mGR9fOk/NHqo2Q+EU7yGbnpNeSWulHN9zTAZ6+qUDYf1p04pk3tx5cqq4WO26sLDIr9tnAgRtQW1+kSJBTRh8/C0ZJ0CyasytvXBw8aXtz3uUCO4F7103zJvYzPJQfT5HWk5Ic3ireiaJ4fHgZ8z0eo2chFNhLEWQw0bdBupGsJGZTQa3Bnn2HXFlZYol+dJCoOlTm5GW8FVlMQQgQJyGehfaVttfgKCPQYJkNhz8CDAIshpbHKrPBdIOQ9K+pAGaHgAFVOhr7oiQ14onM6HP4gaFRwR2HwK5Z+O57TWLW2Xrlq3S3Nwi17zzHWoMiYOOh+rPmNqsvhome9oOKT8Ys62KW6w0VWrgsBrHyibwaQiQdRpNLXYAivUMaRcGI+ifMIDAF3RT6WtyYd7Z8o0tP5LdFQdl8yf+ogYYIuA9lQflvi2/lS+cf7MkRsfL0uwF8oWn7pG85AK5dM4VIGpFYqWXLK+XvC5bT70qd178HTDBT0Dm1iHl4CWsnXaONDoy/+0AghoEEUXgyD6Za37H8yU0j0XL8o0gK7K5K3u0Bh8rSmCGrjnJkfyjJzr+zMFaiyn5ku21r8CHGRc5hXwsoSKUFwrIiy31cuTkCblu3ZWwDnZgNVqsiEzZubngMlhRN0/ENA0QzoKISkKE+7p2M4/vz/NgiJ6lUsQJFDyKwOAVjfMg21rZVGNwo4sj7ar1eXGAojCSrjKIjAzHPRxqZ80JnZEZX5OveY7pyckugMAKk97ewYqpbif50H5NJDarCdxARfaIhvkdDrZchVHoSjdf52gChEwaXUGQxoqe4H111mO724fytXAO5eRhcEXJ6BTL1Fo7OoaAGn+e1fG6GDkGx0WzaQlfljOyrHEytt6udomMmXw6De7u9arCNik9vB2mWuVy8cXrVVogOzvb6gfOKI/5jppRhOWJC6QoK08BUEaqWKXAd45lxZVI6enooFm5Q8DAvm9GPScMIPCGfHvbA/L/rrhDfrb9IcU9ePVTf4eWtLV6u/y3t0gGckh/uenHAAuHZX7qbNlS9gZ8GZplX9Ux+eL5t0sT/v16yXbZfOIV+fbGH0hJ8xFYX8IlLXqm3PTXK+Wra5+ajH08KOfc04USL/Ayplrgd0CrlbkDCDHRqI13TgicHBqbHCp/R3ROZUD6KehG5UVOhmx2wR/7Wdk/NyMIBCWcZPVKk6BDpdcwIUfGIW+NXPG+wwdAZkyTfXv3yfXvuU5e3vwKOAprlABTLPQK3LW2vg6AA+/pKF/nbe43Iy1Z3Q/KD2uyni8yJSfvjLRUJfHKZl3r0EnaTFeoXLsfVrIcQ9KhCNfY7LBKBI2KCs7D7jRRlI4DwrbacZPnw4iGde8xcDqBA9U0GdHhpN4LkKArWbi9L4Bg3q+cjAys5jrEAdllX415ZFYmJCMywlZZXaskvwPhiuhjlDRGy4Eq98+dAJkptiZEEiZb6+6A9XHc5ORM2O81yYnXreiTZ557XvW9iy++SAmTpSQkqohbh1PJlF1S6RWQrNi2X/W/i3LOliSkHQkOyPFhCiwCERWtvVFdC/8XZ6iPY5alrmoBQvtCZUIBQhQG25rOOjCokV/pa1Is3IwIoJ3+ZsmMTsdPA9LU0yIpUSjRAUjni8oSL6rQVaIMsropCeVZ9Vi15EhifKVUNxRIZlKvsm/t7D8hp6u8hyIn2wsQ6Pl2oJw0Likz0K9NbY87wNWUOx6CmkCwCuYkSP4MX1YVSscfKiaaOT0TTHjzL+ANtxsImYx6d5K+WhGRL30cIhfREF46WntSelt7pDYK5kunumX9BRdISUmpzJwxXUU2WC7pCSx4e+ic+OnZ4KsFAiYG9wXlSKjCaXMq5tOZWzXbSMSSdIqIz4SysTGGvLI3kyU7d4LPm7LSGujwflvpI32OliS0Tln4koPuRuUIOR88vxRUF8TivKrrOWAPbwQh6XDrI0jRAzjL08IAqnwBL0/PqqY1UnaWnnkLh/bmKolPsQSEzoR21YIWqaqqkFoYai1dupSaX5j0UQoNMJmsKpkG+Urso1QAZclyJkAk+1RlVR3KGFPVAoGRTlZIsREck4ug1RKVSBLTn86FjI7WKbCAksgJBQijeZC9CLG8dNy9teiiogY5VZ2OWtHRHOHM+K6j7rQkZQ6thz0zrmxsr2I2HB/nwfHRl7qieRZ2O2VTLMlTqFqpL+IlzcnJUI5scTGxKlxMNjtBSJdarRId07hosN5e5fydqF+L9XByojd8eV21tLU5pCcMpZFltdKKcqYL1q6VLVtelfz8PFkwf75aJfurLOpvqoF5TqUYadwUAih13nD9YzpBkzj1Jr29PVIA5n0z8uexkG9WxCiMYowk0NmxF+nGHqQHzObvKl0/O0X0BA+hBZwEgjo7sdDct11NUYu2mRMy1eYsCSWr2QEcgSWfxamuUmnqRYmaG3oqAcKapMWSk5kpFTW1aj/t4JRQwppRAupSaNG4sspqpYA5kmiBeW2TXdPA0xvfhIhyau7csR0QxnHv82MPSkF2qqSnp0PMqFJS8bc1uSvYq0odyWnSabpE9BVHW7vLjZFlw+zjjJ6xcTsdRWNfJXfq2edekEsuuURFwuw8GwKDJkbe8N3JCRDwwhMc9CK0OtV834Hm6hOSkjPb94ZTWwy5A4wiBAQQwP4nMmcumQI7RO4M//FnDu4EAx1w1CPa70We/WjXKekO61GTydqM5dIBRKsnIuohmKFuBRgMcyiTBEgQoVfIHAhYEcHjJGGiaYT3Qx3qwfs7++TYkeMyf948KcrNk+MnTuH80uWllzfJZZdvhLCT51QDByDqHPhq5A+wFIthT4q5EOD04x2liBQHG6u+miWRgwSyTpz79MK8IVoIJvjhPSNgMidofwGCGlSd5YG6tptRDpIBuQJjikZJT7suzKo1qWtw+mLgJx6fEQ09GDPFwQG1CaRAPfhG4Xp6cV26sc/wmVLAxpPKHbddk7REcgEQ7MRIgpIShIcZYR1ppMDTs5qsLoyermeyWzfbrystrkdS23ZIamoqjNhiJQ1pKDaV/oqCcJYT1ZsLDk76JCOyrzDCxIUK+612SWXfZTqUfb6jvQ3jTLsiPWai7yU5NVYU4MB/FHjjfhSXaKKrGHwNOO4+b4eb46twdfz3qk0YyZ0a+p3mmpOSkj1r9Dv6N9pDLtweVxcOCuf4unSzVJEvJV9izaS37I4t+VLdTFLRssT5EP8aJI2R18C0gF412mv0dViR+7KH5c0VfzQm125n5IFAhSm9bojnTMspkOef+ZekJ6fKFRsvcw1CJWWVWG0PggV/VRG5Azux0h41UekQ+jcYTpA6L0rZVx2mt2sPdHZ2DUmNBAIQzGem0w7exIzcGzQNaifw2CwprKytc+06RVVMWIDBLEd8u+2ACvuabdpAniycNluiIkDeNNY3PKdjJ05D8RCcB39LR3x1SDefn0kAoezAy1J41iUjuAuh+ZUUaB68a6VlWrYVMtmLkVrQzV6Zw3eZwJLclOlF+UpxlWk6gnkuLOwljPRNacd7xPHkFIjNWUjrJaekqX1ogMHvs+9xnCJhlxG/SRVB2FmeCJGlM6N8ZSK6aGtDuSSmT/k2BHLvL0dFQ5QSAfLd7Kt+8yXtQShdVxa4AwjTovMkFxoHunGOsFbPVn+PhxZCu5F3NMOCVl7c8lRgM4lGXL0TaLhTR6yUGskMS5a34S4Z0xsl5+Yud5HglNgOwAJD3r1YvfgT3raLBrmTNbaDCJ4viVRVYFbridGuaGj3OxgpQHDdWy9y2ibw0tvr56oJknaAQOvd2kaLZGlGnDQAnDaQL0tnzhsy8VPsigN5JyI98cgtm83X9ZkVDb57pbUFyxlP1Z85ImqVx16TvLnn+Xv5k2K7G1f3yqsABuS3LDhrkeucNReKoIDvMiduNm12xmgd02ccI/CquhrTd+TjqeZUR2QFlqOlCWNEquJOZSAlyXePVUddINzq9zxkhJLUueOPJhmbBGXmzF4+6Z5nMCmeeAieZFdbo8QkpIXgmYXuKV290OHXqo5pAE7UeqIz89n2UDWvdkfrXpVXzIhMk/QIkNEgj6q/axdasucJ7ZNxF1YHMc5qBVOfwZRNtd9hdytcNcn1RciatMXIY6a5zqccoUvlD+9ldWsKrXA/dvMj9TuEOh2GOAt/RxKkpfBmATE72TEaTGuWPurmawL1pyd5Sh1x8OVAOcQBEikFB7Tp9XEZ6u2CDLZu2RnpUlPfoH7kfi1VU0hnd7bIWTPmuiIFzcjrtgLkmToL/uhFuLsef+9BS2eEEjw6k5qjvlSSMvzT+5gM181A0lULmiQXEtmHjxyFbkGtzFuwwJI7tjnMahKtVkekCinTW+y3JLTS7l03VUaLlKduOqLHRUNXV4ccOHhIli1b4fp8aNqyGykuRLnGW2rZ/sBeK0kSR9dgSU0iwiwLYb97qBr67sbvJ8ODnizn2IsSyMipEki/H1dOUo+sLGz3yUfgi85af73qtzPg+cJ7Wonzu+QmaAa/VmzUuW/7ytte9WAS5cxtVagQGgLuUnL72496zJFHgmmfI+myIHe2NDQ3SX5WtuvcWSZFPoQZlXCXiuA2BP4sYyR4sohPA8iBAsxg8KFIEvkAHRB9IReh1+mGaQcI/soZ+/1AnRu6AwlKEZNlkYZpFUlbDcjZ6vJK8kdopaybxSpvV+xx5ojTwHNg434Y9SF40HLK9nO0Cy15ugaCTWoe6Mb7xjJHT60bi6uXjp4ZJX/mNfbCiycSujhnSuN7v2FOnUwvyJcH//Anee9114oDpa9s7vono2u0hS/Iz5EKpOXIoeHLbZUGq0CBq3EMIQ9IG6ExAhGh9HFg+Y3ft7a1wukTXhtOkTJ7SpDv4YQDhOePTX697MnYWc+0F22sn8GygnY4jiIE500TnwCAb6lzlc2/SBTSq1FOjp6sipWMM74/GD4cUM6G+uW15xTtXgeWjI6V1GbZo66TZhgxFpOx3o95nw7DKralz8qdm43XuDpxiRpEKFp2ordEWvtQq4/BZ0HsTJmRXeACQQ2NTS73RYIfX/lzd/l/CkyxHtvRag2M9pJQigLVoFRRN39Xz776hLsBWGnU437xWehGwNXQMrgy4zYEPHEIy5L/kZuT5dqWQK2qhjbdlq+Cr2Y6TXrb1l5dwSfd60XWuaIlSvaUnzkTKe8NVWLPNPG3yxc0SxYm4u/e+//kM5/+lALUvQCZniJcrO7JAyGxrLxaCYzFKxdWKp5a777dVVaXKJMcnApdEEYe6JZKp8+du3bJlSAoR0Vb3Ce7DDmrfyYcILxemgT1w8knyuHrxZ8Mn/d2Q4FtyrfB70dFO2jaQqsX0Rb64+84+XFy0ZMxEbw5ado5CuaB+V1l1GPUHpo1+fa8vH0SNT0D7IOE/bv6uFU9NVLSVTns+qPDomR5wiKs8BHFaxust+aEdKyzWNoAFljoNzuySGbnTHN5CVD+lbl15lD94SzoA1MsiekMrYVAIiP3pQc9O5fBl9aA3w/Uw3OMRvWANrHhvpg6oUhNDK6LAzLLEWmVy8ZnzFKxKkRVEmxcAn/Ow5v9tPn9QAHC5uNJcMr1DVD8OcdQ2MYbsTQUzm8k53DRHIcUH90nc+fMVn2K1UhZUEH1tAhheW1uNtSBUeHCSgUtmWytSdwLHTGkQOdGAmxGNjUJl+/Wtm2vqsjW/Pnz4OdipaHskcoJBwgcZ18rtkya2iHvOVW6OJKuNvLv0NwpItIy7xjL9pF17g23xvKYwdi3xeq1QIGuJdY/m595Opa5bTDOZyL2wdQHrWHtrR4OcpXdtUJP+vywbJmTPU2S4uCX4lzNNIA8RS0DNm8W0pxkWaalAQLXQox8uLgcNr+DYAIEVxmkkq9VtSZKmKilzfJxoEMiz48DszZVIiCoR+SE+gYEQpS3jgxA+9+VasI1ZkIG18wTm/fYNSliuzTwNJia0Y1pmX5oS3hqZ1K1gvPlc0XmJuIdCPYxI/DsNs6jGNuAdKM/ddKXBMJZ6l1xs/hgeiALoPR0aaWSS6YAkgbhppAZ+xb5TtrXw75oYQ+3Sq/D5c0335D8vFzJys7B9lYUwc6jmnCAoG+8QkFYSeyrjJOyprGfsIL9wCfz/mjuFOZ0IRyr65isAMG8H1q9kGE6vnitra3KA4ECPyUlJervU6dOyVlnnaXQelZWlgrbkaXO7aMRkmYz41sw+AAAIABJREFUV0O+QvJj9TwC2a8ngGDfRymiEQ29TYqoOSuuUIrS86DJYJVMEmPVIhevtRzMCIPWQtCVDMMcF636UNfhlEyRmWwN5GJ8bMvzo1Men3E2SsE0CGREg+evnfB6AJqoPcGUkcUf6XY9X1+nw0gS98dIiz3aY343BWWydOFzZyzF9WKPhxQDYcNzh84ccjdXznqF7OveTpbP10LMb05huhw9flw2v7JVroM8uidwwIhWGtIDjBxQAInvAtMKutm5TcpCHSWLutmjApo8TL7T07CNz4DWwsqVq1zbW2og1jsbMgBBnx3HgQ6wqF+BYchUG5870N3eLNHxYzugTBaAYEYLePc7QBhiKRrBAQFBYWGhmjwaGqya4aamJjUxnDhxQm3D3y9ZsgQyqVUKKBw9elStDE6fPq3smRtRDsdjcNBfs2aN2h//HUhIfnx6xeBR/AUI5nl1DXRJaVeVNPfBYbAnQuakTpe8pCyXngHV4JiOsNwV+6UQpCuthWBVfAw6YfJ+a3ClwIaffgy+7hMHQOZ0Gd1gnThztLqRW9ACZctWkA9N6We9utNgUZ0PdqSjS76Oqbanl4aTn2BK29q/a+edmJ97AwibkF7oPEPSC+OxePHnmQVzm9zETrl8WYJyYGUkKAE6GnFYRNil3bXAEdMCTBGkJicpdUS9yjfHDFMnhQCbfVp/rvhN6HO6eoYAtYsaKxi/mpubMUYdljWrz3aB8HS4ONLcrBHE3JADCHwQLT2R8vqkthwNZncan3056ktQOjRtzA4W6gDBYpy3y549e9QkX1dXpyZ2Rghmz54NW+Vp6oUrKLB0JCoqKqSoaLDU6pVXXpF169a5Vpzc5oUXXpD169eryaMNIWui9d27dwOtr1T/XrZsmdoXQcM73/lOWYDSJiqo8eUOpcjCSACCvSNRcri6p04BhtT+JJmVViTZyRlKMlY3+t2ryAzysfRcITNbM7CVAyNWPIxOECBYro+e7bPtxycRUptcUdielQY67WE9nw7YNncoBcooAD5P1Zx6EI8DgbQDZC8NEOwCUN5fpEHhpWHREuOLdoCgS1aVcRRCzu6qGEhheflYMsilk19ltr+fQmFnlu4NK6I2LomW119/A+96iuTm5eE5WuRl9i3d+KypZ8L3owzVCoV52S7/BG7D/mwKjtmjBHa/EbPkWKkyov/2oBqHnKnHHn9cjTvnnXc+3glLBZZKioo/NdFlju5epF0VMFhpm5w56zGbYcdhx40VhyUtf4HbI82KK5ao+Aw5Uj+yyE6oAAQzNM2BtgXsdE7aO3fulGRYBHOyZshtPvwK6mGic95558lDDz0kt956q7ovOuRcWVEp+ShN0hPE5s2b5aKLL1ZxOavcKAzphpMyc+ZM12TPY//pT3+SD37wg2oi5OTA6MTBgwdVFIEghMCEoWuCD20INNFgIRgAwexUTBHUdNdLXW8DooVdkhORIXMRYaCRFEsFzfb0s89JEaIseXn5suOtt2T16tVSjPv65FPPyPv/40Y8q0xpB/hKR362FSt+Pj+CsWnTiuS117ZLLkhfWZkZSi1uy9ZtCO23yyc//jEAgS5Vmhiox4EeyO3kQn/9Knhtpl4EVSIpcMXVHAELV4eqHA3/pn8EoynkQZB3wYoYZZeNa1ErRlSYeGovASR094YeSNDha1/DmSm37WvbyfJ5alyfXDwPjoyIGBQjorjjrV2yHi6NiqBs8A4IZPPgzcKJvAKunamQL1egGSt/TWKOR99ow+/02MCIHKsOtNeJXZPELgCWlAg9ElQNsR/V1FTLaaRIL4S5G0E6+54mQYckQFADMciLzx2eKoEc787fULZf0gsXDzls456HZOFZS+Xwof2ybP1Ncroh8KqTUAIIfCEZGTh58qTiBxAIUJc8JydHjh07plb4inzmzHPfd9998pWvfGXIRK9vkFa1e+bpZ+Sqq69ygohBC1YTVPBlLi0tdUUeuP+ysjL1M/9NsHDo0CHZsWOHAgkJqK9fuHChiiy4y0OPV98INkCwnzcdDtMSktSqRa2SMRkSPDGt8Mwzz8iaVatk3/79cuklFyvw9trr22XTK1vA8cgEmztJLt1wCUBApry0aZNThyBFFuKe7T9wEMACag7pGer+leDenzx5SlasWjniW6cBgj3Pa9duYAqCjZO/mvjRn5R0LUZxDtZkoFtGVnAGdRIhufo3RZS8pRhYtdKG/uKphSJJcXZWn7y9+W9SsPSd4ujzIt5k45yM+GGF0BcTo/vl/OlNSKXlyu8f+pOsQp/ORd+kmqYJDpjaKirIUZUx1A3hSl/by5tmcOw7JmDgpTI10AC7dd20rTn7Ir9Lsa/BtATicLSJRr8sLyuV8opyWb5sOTg2FllRiyaFLEDgSTZ0RcmOkjPPmjSE+q3bU6k7vVsypy9XnxWm9suBVx+W/FXvl+o9f5VZy6+W2L46KemZGdBlhAJA4EvF9AGJhAQCnGw4KV911VWu1ToHbL5EZn7vj3/8o3zgAx9wRQ8s1E61vD755Q8flk/edqP84/fPyPorz5PDB05IJ0oDL3/XRUPC1DpioFjFzlUy/11eXq54CGa799575ZOf/KSKbOzHxMhIAtMRBC6cNMc7ojDWAIHXzpUMj8PogtmaG0EMjAY/AHLGrQB1Ubh3vVAxrGtugAU8NCbwvTjkaI8dPCozaGsNvkJadjqEjGCw1EVBI+t+BZPUyAGdgICVHWr1j/7CPDH7ElMg1FDgpM9VHfsct2E4V+simBO/lR8etIs2r90bQOBnzeDETBaAwFfmxOYfyyXv+bLKb5ei34clDO33+lqoQhkeQFVIQAPRBGwcG9kv62Y2SRHAwabNW1A63IbqgTzJKywYwjtgNUNRYS4IiK3qXSBOsvdbk5BoFzayR2doFscIFF1iuS+SXs1qJIIGjmEEDvv270NKI0WKps0YvEOMhoZiisF1hrji7r5wOV4fK6VTlQ3j1rXJn6o49qbkzD4bKx+RzuOPyfFjR2TemnfJ0R2PyzvefzvyZpFS7N7G3u15ThRA4OTAl4pRAgKCO+64Q63Yb775ZsUx+Otf/yo33njjkOiAnoD5cjJ1wPRDHl7oBx98UBhN4GTNbfhCv/L8dpk2q1D++fCz8r6PXitf+fB3ZOXaJXLbPZ+AxgTTZBaBjaTF119/XX7729/KU089NWSS1xMYz5MpDxIfp0+f7prYWCHBsDkb0yA8F29lg8HuKOMBEJRWPMl+Xkr39HUx4rCv/Yhfl7k8fqFPBUy/dmRsRIBg97iwh3QpLFUJnYn86ByJG0D1iuINuJeSNt047QCBbHUtu60qJpQzKOS5oU5Zh3QK75m7FkoRhEX5YfLUX34kl1x2Nbg7ZbJgydmy/ZVnJH7+DcNO/UzTZkmM6Zf1swAkMZA24r3myryDIBZOqibvgH1gGlxNtVomOTfuKjdMqXL3yqxwcwVYJejUETkdfdR9lJ+Rg9OACpk+p+4K9zUN4ITH5684ZlGtNbQBgq37tIOZu7X4zJMPDXSAGsvtZyY3y6anfi8XXnyV7DhSL7lzzgWhrF0qIOn91lM/lKs/eKf0Nh6TnW9uxYr5A3KkzrNNsHmeEwUQSDzcBcUwVhNw4iWXwGT3FoNJTIIO/7CZq3O+JJzU+efll1+W/Px8FX148cUX1XYtYPlWlTbI3rcOSRsG8j1v7pUTh8pkxbpl8vXvfxar10GCFQmLH/3oR2XFihXyxBNPuI0C8CV99tlnVURDnyN/d//998vnPvc5OXz4sGxCGJ0g4n3vex9WzDOGCDGNVb9gVMUMXY7FcbRUtD8qiSQp7oJTor8t2CCBAKEbUYxoRCd0Y18x+05VTy1EqCpkTux0SRpIHFKVYZfJZskkde/tjSCETZWcsdqDAMoJCBilyELJWz1Y6KEOEJ795UflBz/5rex6603JL5wuNZUlEp61Wmpbh3IkejoRIYodGcfJ374wXttlJ/bIioIuOH+myre+/V35APgye/buA5H5QqTPI9QErlMLGhzUolIhCav6JqQJGPrXrQXE3qruOmntb5PZCdAa6U90jQ9aQIucDaqrEgzQcl43M/XFsUQpsMLO3LSS57asbNizd4+wL55z7rmqn/UikjOpAAIvpLo1SnZXTqUdxqKjT4f1+PMPf1+uvfkO+dejP5cll35Wjh7cJVkzVqha7/CK5xH66pK62io5feqEzJm3UNZfcZPsr/LtEjceAMEMxx1HffHDDz+scvq33HKLnH322XLgwAFZu3ateok0I5x/M8/Nv//85z+rP2a+v7KyUn7961/LlVdeKb/5zW/kAhB5dLqBLOvNz+2Q9RvPll3bDsj8pTMBGGoh9tUji5bPHzJ5fO1rX1MggwDhF7/4xTCAUF1dLUxlcP9MQSxfvty1jb2kjjwGEhuZpyeQuPrqq8eiO7j2SbY0y7Hsg0owD8oJTylNeiHemcfb2bY/oMOviF80hCUe0JdtG3Ngt/QcqH5p8XFURAnPoy+8T051lQqjHF393YggZEtBVK4iJurVml0mm2Fe0/vB33OjQE5Ng+UiaW+hEEFYPTNCNj/zZ0lYcINseehWueu7P5Hf/eqnMuuiLw0737OyHHKgNrTBwSVzWyQm0rM4FS+qdyBGEmOgXohwfWVllTzx1NPgHeQjmhhtiRKB52SSErXpEuW5qXVAsyW6Mu5tPCJt/e3D7MIZdTg/baWq4FGVDvAJ4ThAEzD2QaYUmM7RY5g97ZCciAIAlBfbGzky+/bvhWx4juTlDzr+TiqAwCqQTmgkUEZ0qgX/Dpxd5JDGhnplCf2rn90nM2bNlXMv2CBvHapCdcNClJ6Bk5DcJX/5n6/JVde8R2bOXiC7q5JlSWG/7C33XnUyHgCBd4RonCS/OIjdkHjI/D5fHL26M1d5TB185zvfUdsw7cBSQ1YRXHjhha7a9u9973vy4Q9/WJHJuB1fSrW6V5VqEOzByo5s+ISERHzWr0yHaJEcRlc/p0WSTnMwTUDioTsOAcsm7777bnUMvvDf+ta3XKsEu5oj0xyf//zn5fnnn5el8IznPpk+0bLOwc65M8XACgFPttHB6okMv/YAdPnTAgUI3OdZcXMlNtw3mPV1fL3yU6WX4DqwacDZDyluumTqlh6ZgijCDFW2SdtsNjuhcaSOjgQatR4AQkN7pLxxeuIWUrG4LS/89otyz/d/Jr984Acya/0XZfvf75DLP/xDcXQakyzep9j6zei/WfKvF56ShZff4ev2j+vnSTF9sjivQ5JhIugM6KhVNkF7XGwc5MjjVCliBMAt/35zx1scGOTsNZbw0KOPPSGrVq6QWLyjlqHZYDmjJiRWVFZDlCtTrfyZPqI0+ubaNz1e59pM2LLHkE/gUJUt7Fsmc8ckK7JfEnhzOzb2NVY/uNNdOXLkkFRhobIe418Mro1tUgAEKiw+d3hshXzGtdeF6MEIAKZFHZfSihqpqa6S/u4Wufb6m+W1rS9JU+RcScqcbg1wHW8C5SZKpSySVx++Hdaki+Xid3xQ9pZ51n4fa4CgB+i3335bERApAMLVPyddT40TMcP5bNu3b1eljeQovOc97/GbCEiSIUsZWV63b98+ueeee5TGQSBEQg4cFE164IEH1GRPcDNv3rwhp62jIzxnVl/wXNlIuvz73/8ue/fulXe/+92ycePGoPcuzUEgKYq2zGNVUUEyXyciVP60kQAE7jcYIEEDBFMFkc+HREtGWd5s3eO6hMSIeFkEYGKWmaVi1cf7yMgBQ3Op4JUQZPK+0gPCH5Mn9R4ij1yLfuepTVQUYem0CHn64ftl2tkfkFcfuUe+fs99eCePS1nf3KF9mhMmJre6Xb+TDVdeB42MNNm35S+StOgmf7rAmG4zO7NLZqa2Sha4HqwWYIRHG6mZB/7bPx6V1YgKks+UA7vmZ557HhU1WZKGstt4LBrMZnos8D2mOBhNl/JyMxV40Gk8xVnqqpHS3iq31xgDTsuK5EUu/gn1EhqN6gW754tdI4EeL03Nbkza8CxefXWLWgxdcfnlKi02KQBCeGSYTFRnH9NeGKI7n50O5UBHqfzr+SeUeNDiiz8iy2bEy45TQPuJyEOggfonW/90m1x97Q2y7ZWX5COf/hIY5Qny+gn3FzVWAEHnfilU9Mgjj8jl6NicJMn2Z0cnZ2DOnDlONjmY7c5csf77Bz/4gSojpN5BGpjybAwb+8t6J0CYNWuWIhVSL2EkAIHH1MdjSmTRokXDbiIBxxVXXKGqG6699loFQDioaJ4Ez4HXyygFAYuulAhGFzNJijweVzjUK6Ccq6kyONpjMZ+qPRB87etY52k4UQ6WdPna3vx8tCBBAwR7JECXoZkAgcc9O3GZumcMJ+vQcITB0ifwokKeeq88KTS5uUBODHXwhAglgLAsv0vu/95X5Gt3/1B273pTHAkrZOvDd8qGD/8U6aPBM6VCYlZKpLz057tk5bu+KbueuAf592S56NKrpKTPvRZLIM94NNtOS+2W+ZkOVXXAqpRyRPd4blx5E+j9/R//UFGBgwcPqzLanW/vkc9+6hNQr0TlAR1dDatwfR6mSmIf3tN8CB8Vny5XXhwkE9ondUaHnivd6vEyLss7T5qdcssEG1YJrbVAI02F6U+zj5mCXBRZcuetwu+ePn1KFsK8qR1pxRhUD4U8QGD0gNaleyvOLOvS0XTg8fhuesKA/OHem+Wazz8ks7LD5eGf3S6f/PwdsvWgw6W4GF7xrByHTOeNH/yE/Pwn35FZSDlcd+NH5JXDxkjgPNmxAgjs+IwYsMSMq+mLIVZkphTeeOMNtRpnZIAT///8z/+4qgMUEQcvqytf5yyHC2SQJkAgKCEgecc73iFvQcwn0AiCneCmwYKZKmCE4rrrrlNaDYxwXH/99a7rIDeCBEgSLinENHfuXAUi6A0RyLV46lfeqhioaEiJ4ioIukRGjk7czNeEZ54fVRnLut2vsPx5P0YDEjRAoHmOmc/VYknbHW8jFWpFQiLhcXJB8hqvp+Svo6N9J8w/14F4GyoAIRp0jOT2nVJdUyuvvPikfOaL/yVHjxyQsMIrwL8wwAG9Fcqfk8MH98rV77pRfve/qHC45X4YfUFFF67ihqGpP48yqNtkJvTK8lxUERXmYxJtkUf/73Gls3H48BHZeNkGyCOflsNHjipNjbXnnK3y9dTt0NUkljfHUPLl9te2yoYNG4ac5779h2XtuauHeCbosUiBcIiGbavdJb3gtLhrc+KmSWpYilvDJm5v71NmFEEripKvYG80eSI44RXUN4ao1LJ50lPRg6D2/4B3lhofJodf+V95942flIrTh8URu0AO7dmOEshzFBkmC3SQx//3K3LlO66TxcvWSF1HjLRhbCxrGFrPPlYA4W9/+5viHHzkIx9RIIEraVYk6Mmfq7bf/e53imDIv7k6NyfO0ebrCRAYsdi6datkZ2fLZZddpgBCsLwVeB28rm9+85tKVOk///M/FU+BnAP75M9tmRtlSSXTK/ycgiyjBQl+lzni+NkwilHh8xGM8hzEGjAo+9PoIHmw47g/m3rcZqQgwWMEIREukKgp39V6UFogLa3bRannjglAYKqiPkQAQnJcmLz+f9+Raz70DWkpQ+SA5Zl93dKTc9nQa+fyFv1y7z/vlve872Z59G9/kGtv+JBEo3rhcGPmqJ7naL+cHt8r5xS1wlk0G74g1eDdOKC+uRXjSZokIYWwAlEDkmljsRigroW/7c3tr0EgrURVQXGs+u53vyvHj5+QhMTkIdEGim8RaFRAWpmLlqiECHmt5m2PhzkvdaWKcFiNFS6DEShO/kzZ6UYgT/2J3t4edX18p2sMQydGAvU4wajxzOmFCryEdASB0YOu3nCh+chUm5g7EFP3ssxaeqnERvTKpmf/Irt2vC433fpzeWPzUzJjxTvUSWV0viVJyKOGR8bIi08/qjrrdTffLntKBkFCsAECOQZMKVxyySVKDZErazZTw4DVCZ/+9KfVS8kyQZolESgEq/FYnIw/9alPyT8QdmR1AlMEP//5z0c9KetzNFMiTz75pCrXNFUd9XamlgKrLqgUybwoIw0ka/qbMnF3b/wGCM4vUwe+tq4JFskgToK9X1GF6IKbsKv9WJzwmnDe/raR8hDM/c+OwUosMrDSaR0utmsfaMOck50lUtpZqdQT+d95yYNOee6ubaQRBEr2NrS4L3PkccYrLXtWQbi01x6R8PhcefIv98tNH/q4bPrXs5K5/GYnTZdlmpZjbFb3LpCfF8ieqgR5/tefldvuRkUPPttZMrGy0FQ6vGxBJ1bPqXKiuERmz7B8aR7++z9kxfJlkgrdAqb03Fkx++qvbwAgXL7xMuFihoCdPCOOlUwDRkexZNaa5LmYoSiaHsOYztjaQNKj+7Yhd60SOdKN3BXtlsrfkSzdjsWFKm9EOoqgpg3VSGzsu1Tz9JQiZJ+ke2RIAwRGD7bA1bGt2zP5zdfDmfp89HdgRlKj7Nr6BNTsMpDjblUkogykIPbt2ir589epAyTFhsmLf7hdrv3EfZIupRKdkCG7KyzZTrZgAgRWGnDFfuTIEfnSl77kNt+uJ1bm5O+66y5VCnjRRVQ3DM5AxP1q/3bFTjbU+oJ1DH+fnCZoMmrx3//933LnnXeqrxIksCSSqQeSMUd6XoECBHtunueixX68XRMFXlrhleBv0wABljKSF5UtudFZakLaFWAJJAf9pfHz1WTuT9NMdK7GzLSK7gO1PVDrRKljBMqu8qNQNoZSR2/NHUBgRQyZ56ySIfM8HIslpsgItMiW5+qQ4eDK2jqPux4PgBCF89r37L3y6S9+Te6/7y754Ke/KQOd9XKqJUNanNUKfT1dKPOLkVkJldLd3qgmsT/+7udy88c+J7FJ2XK8Jcuf2z6m21w+v1EKc3OkuKxCkhPiIU2cOKSElKAwBpM334VA36MDUClcvWqFWshoW/iIKGtstHt4mHLKfK8ru2ukrMdKpbGfL4qfK/HhVoWBliPX4J9uj02obNCN+2Z/qayqUzobafi50SAn2v0Z9PcYfQiHYFk++BUhCxAYPeBYPh6dfEx73hmycz6L9iOPyPLzr5FHfvd9KPqlyjU3fUZe318tiWmQDEV5zit/vFWueuf1EpkH04+2ofXCwQAIfBGoiPjLX/5SKSEyZEdlwo997GMqpG/aAmuAoEl/DL0HK+zPR2rnDUzkY6Z4EnUaKM1M50muQvT5kZ/B6AY5CkyBjKTR2Mhcqfjax0hXxMy7OgIACK19AGkRQ0v5Wvpa5Vhnsa9TdPt5ZmSaTI8ZrAH3tBMNECySKEmtFrDgO8AqBNNPwZ8TUdUIEMlhWkYN9tgPB3Zf/TURgKoZgN1dc3RFyKsnvfgd+HNifm5zeusDcvV1kCLHf5tffNwZObCAeGdrvVpYlGz/raw5dz2qoebIoz/7tHz+trskMjFf9pUNTUX6ecigblaY0i1n5bTBMTFHSpFaKMLfZfib0a9IAIMMCFJVVmOSxXulQAJ4T/42joKpiKj96Ec/Vv2Dz5gp0Pdc/z61CytFYNm/s0UhomCmL1JSEuRQ7Smlp+GuJTvTWvzMkvdGOTYIkLSHphKjSU7kGM596/6ppbzZ5ch/sIN4KiuGLEBg9IDyyvsr/VPq8/eBTW038juQ0fW2bP7XU2ols3zlOZKC3FxCzllS3BijNACikeciofFI5fCXPhgAgUQ9AgQqG2pHRP7M0kbaKt92220w8MmSb3zjGwGj/JHflYn/JqsbLr30UnUPWAJ5ww03uCIajz76qPqMUQSmQ0ioDHQF1IXQZ3OLJfXsTwsEICiVQPQdakYkoryzFZbLo2k9EChq6W2Xtt5uaQVRsGugG9fLCI/1h0di4zH1v+3HWxQ3R+LCB6Nf7s7HpYWAe0OCqrVPqB0yDO1HOsXcp05NBHrd3gDCeC+sOo4+ovgvKy++SY5WWfe4tpgiayslrfuAFKAi4G9//KW88+ZviKPqoGTmzZKD1YNKlIFeezC3v3JhsyTHI+yPCZyVChnpaSg5hNogV9KGoiGPyUmVYNnfd4jPlqmzcvAKCDCs/kEjuMErsL8vdgll95LK1vdZ/UAzJ6b1uF0ioh81dYOlrxTTItlQN9Pfg4CiH+kdT3yhgrys0AQIU9GDYHb/4O5raUG/vPTk7+Wyd9wgv3/w17L8ii9BOUyklaRtJwHJ3RFHAxA48DKk/9Of/lQx+elwaDZKEJNrwNUzQQIHbP7736VRQprpE5Zr0lvCTHfowYVkyt///vdy0003qTJINn8HOa5yqPDmb8tC/rLWGKTM7zV1hMu24ni5eqG18iUDXAtKjQYg9PWHyRswdmvuCMxpNCuxV9KyDklT39DriwqLlCVIO9gZ6fpaCBDYL+mqqN32lDETVoIksgXSCFbc6e772ocngFDSGC0HqiZ2YVV+aLMULLxIEmLCZMcT35VFV9wpc5BJePrP35clV90BK2rvioS+rj1Yn0dC2OrSec1SAA2D4tJymVFUAM5MjYriJCCH39k1NFqgIjwkA2rVJC8nQp2LvNwsKauoVr4GJLCy2V0X7dFIU2mTnzH11u7kDujD8feMBFAZkWBG9x9GAghQXe+2er8GheJY4khlVBMw1EN62V0jOTokIwiMHnTCd2GKnBis1yC4+4mqeVm273hbVl19m1Tv+LUSVbr2w1+XE7We8/ujAQj0HmCkgECAIfNPfOITqhKB7Uc/+pGSSmaqgZ9zO06C/k5+wb0zE7s3k6BpDiT69wQJfOl5Dxl18LdxMOKqxN97ai//M4+ztzJG4qMGZE7m4CDFzwkSSKoKhIPA73WCxLy7PE4aoRw4mnbhbIec7jssnZBHNtuMmEJJCwcB17aS1NtkgPjaBFdH3TiYcxXqrplEUfPffQgLk8vAFayyD3cCbQoxcRJguoG+HvxMldPhDwWZGD7uhCdlxlZVAAAgAElEQVSEvY139MB+/JqTOyR71hqJqdssr2/5l6xcs1a2bX1Zzv+PHyrA0NYVGuCA5z0ro0vmZrYr/kElSnVzszNdvI4kkAnboVFgb3apbHfPmiAxPydT6lHRQ80QR5sRdcDzU0KsBh+K/9RRhT6s6rmBjkRR2Kijc/A58/2qg1yyvossd9U6GjyXxAS8R3CUVe8VdkquAfU32OzRCAJciiaZYwf7XBKAh6psCDU3Rx09oJxyB0DCVAvdOxAHidT8opmSUzBLSo7vlbKBs6yTdRNJGClAICJmiR/D5KxYYIenb0FuLvJjeKsorUx2MNUEaYdMQqKv3G3o3tHgnJknfgT5GCR3EkQxRVNQUODXpE9iVgsmQa4+lCWzM5Tu6T57AwjertAbB4GD4VuIENS1jQ4IeDt+dlKPzMqtkpNdJUM2mwleQl5KtsRHxLo4EowwsKWAGEbJWzYOxLwnuiZeTQNOZzzLaIkhXfyNAIOqnVecA0vsiuFe/s3vB5KisJtbFTdEy6HqiYseNJYfkrSChZLieF0qOtLlyLY/yccgokaAmZicIYcbLFO0UGlML6QlJan7TtJnIyJlHU41z348kxgYctkdM4et0m0Xw+dIXgmffzMmX37fDq7twkh2A6+UZETDnGk9TursW3Fxser8lJAb+o6OYtjPJwYKiDqqxVMzeQrqZ5QT0yWUTQEGp48I7aB5npaNuaVpEnIAgdEDDgbPHZqSVg6Vl8jTeXSfeEyWrlkv//jTL2TxVV+3vyZKSlb7uo8EIHDy379/v1JzpHlREl5kvfIyXzjqAzz++OPy2c9+1urUQapUCPX7bz8/dzlwloOSu9GB3D7/pmIkyYxkVNM6mkDLV7MrKTLXzNVFHEiFXN1ytdSFsCUnvF58xpyq6Sjna//6c08AYbzHgzUzGuR0/yGvp70qYbG/l+V2O1OTfzQ72t029DzLTnsXZRrNsXx9t7WhDD4uhbKqqFta6iskLjFVNu8slrI9T8ra99wVUpEDXkt0xIBsmNci+dmofnFO4jRN0twUPqM0AkDnZGpev7coArMPmVjls7yXBEd3qoV2+eNemizhixocsgyRq36mkQg0OGHrSZ3nwXeP5GHdkkBWNInEpgEYv9+HiJNp+8x9c5xktIDgpLq23pWmyExPgZaJlXYIKYCgowcn6mPkaI13kpCvzjr1+djfAYqjJHYdk4r+OR4P1tFSI3HJ2QGXORLZ0h9h8+bNrooFbxN/KFUVjP2dHzwC70lra6uKoJCjQQ4CfRr4e6ZmaDRFYRYyp6kVofkJVJgkUPjQhz6kwILJW7Cfv79ljlr6mW503QAMzH0G0twBhNYuWLyfHH8dlIxEyN+m73JLZGSZ2cI4i+PiwPl19+FPb5j0DYQJGfF9QDS7yhJkTZFvYqepz6/vlRVqdpIpbX+b95PRg93tgwChvaVAWptmBHLLg7ZtV1uDxCSkq/3lpsA75493yTs/fLc8/MCXkFr4UdCOE8wdRYB/cNlc8A8gHKSbCRDIM+Fkz3JTRhgY5aFkNnkmDpiXmZbM+vtczRegigCReeFEy/QTSYoECeb45S4KobkJfGtIOiT/ge8eG4mNyizNmeoiQCAvQe8zFoC9A++c/jkDxza5BZTz1qkwEhMzoPdAgGHtg9L5/J/1vvZQXdbJYwgpgMDoAdtE59CC2Qmn9iXSVHVMvnzDcH8Bb/eGWgdUA2QUgXoDLOWjIBHtmCl4RFljNjN3xpd4NIJAk/VZ0Ur63nvvVSZPBAu8J5ys3//+9wuBANMJrPR44oknXPeHn/N7LBGl+qS3tIy/AGHI5IVIAlc1FGPx1jhYxYF7wBAqBywzp06J9T3lEyexHg/xnIy83aiEGMopyI3KkoJoS5jrUHWsFDdYDpGxUf2yqrBdtp2yygvPnt4mGVDn86e193VIj/RKN6zCewZ6hUqRrLOgbXRnv28Dq+SIRMkemC2vFY9PaaN5TT2dCEnHDj1uTkKn1B7dJEULL5DTLeMP8Py559zm0ll1Mq0wzzWOaIBgRni4ilcVDphMqUaoA5RxSElwUtaNYw/FwRoam9X7xP6s3yvObErnw+Cn2KMIfF+IB5myop+DmWbgvgkKNMFQ26PrCgR+rjQznCW3jPJZREYrFcaIBMeFWJYSIyKSmIhzcfIU+Ln9WnS1Q8gBhE4g8U3HAlM287czTG03cXcgkBQDyVff//731eqXWgfs2EwzUGTkwQcfVF4EJCVSD0EDhAMHDihTJqqT/TtFE3it5BLw/rCEkZEEDZL498c//nE1SPzkJz9xCUpRL4L37pZbblHlj+QkkN/hqbkDCM2dYXK8LlrS4vtkWioEg9ywujl4ZaZbZVa6xpoDJgdbDpbM8bYbYVIeX+fUX8dE1xRgRcJY9e51c2vlCCJlutqCxyEHgVGEqDD6xMRJeXO0Wm2aCtPMb/vb9rYfVsAg0JYTmSmJkfHS3OuQnIgijJ3jNxl3tTdJTHxocQoCuX+sYLhhNcP3ka6JtB7mV0rnANGgBOT8LQt1VGm1dQyJAHACtvQvBqNkXKXzd1y5s6+YlSns/wznq8oTTNAct1gCyRU8OQGc8DsAptVqHvoFquH9pUW4ViFl9MIE3GZUgJtnIp1BmXPd6G1CkiRFn2gtzWNopUU7WZFGaeY1krzICEZIAQTe67crEqSmdXSmL4F0kqltx+cOBAIQOGH98Ic/lG9/+9uunBwnQJYyroC1Kic1vmCsYNChcSoF0tGR4XWumk3J0vG5wvE9igZBvH4SD88991y3NsyMwBAgeCK+0aL6ueeeky984QseHSA1QFCrFPxX3RohO0uHChTx6rnivni2NfiZTQ2mTvIdP+vGAGxGLBR3wulovxumbJXNoff+z8nqkuy0WjkBGWUTKKRHpspMVDowLcDSwgqce3IsnApRPknLYH9bVXedlDsV8/z9jn27mpLzR/rVgL7X1lQpcUlZLn5RQF+egI3JNShA6ofPJAnP5hRS2Cfxh/yDGXmZSr9Bvx8OR6uqGGH1AitFdDSOk7upF2An/tHFMRdVC+UVNeBKJQzhB/CS9fbs66w6YNkwJ/A2AA+mMHSzT/JmlEFpKDBK6tzYPslzYaVLHBmRY6qvSbmEWu/jsIgFNBNYXcFm7YvbDb67vC+hBRBwei8eT51QN68J6L//Fof0BRD0hMe8OasW7rvvPpciID/TJDsCh9WrV8t//Md/DLlvP/vZz5TsMjs6AURRUdGE3FdvufzRnhBJhkyvcBDgfSII4n1h43HJMwik6UjD7bffLrfeeqsygdIDojnJUyipobkFJYVhcgDCZd4APFfNXE23owJpHiZIVbhnAwym9oE+32N1MXK8NvR5R7NwTbnpdXLcptaYFpkis2KsPscogh9l8kMeVS/4BHsMPoG359jbEy9tTdPQ18Gw74PuQu/4VS3Ul+6VjKKlgXSzkNjWXTSHxMBpBXnq/Moq4TtAaeycrCFCQ/rk9Wqd4JDERbO0laXD04vy5XRphSqTND/Tky+jFHr1zomXRN66hhbJyhgkBHJbfsZmkhVNAGEHJoxyaH8FEhOzMtNVikKTEMmXIHHYGiMIBAYQuYhSv2NEglbTrmuEFLMqecQvuKgggJkCCCHRfc/8k/AFEHgHmD+ndwCrEuhWyLJFs3FCo9nSNddcM4x9T9IPIwesZjj77LOVSZFuYzlpm+fH9AfTImPReO2USuZKn0qRTAnQOZLqiJzYqQtBQyp/KjjsKZj7779flZEScFBgys5HqGzql2f3+u9eZ14/7XPXTBtO1mvujBAK+lC/YDJ6rXDCsZtFEQwVRedJVlQ6TObCJCZyaL1/CZRh2dqd3jL6754+a9VGkNAOTQTWcUVEdUhUTAtcDhslItKKRDgaZ0K6OAfRisDEoILRH1mO2d3eDCJiWjB2N6b7yAs/LrPnLJD98IrZt3eXLF68TA7t3yGf+fQn5f4HfoFcfb985cu3ym9+96C897pr5cc//TnAdYp8+dYvyA9/9BNZsnSJVFRY/KeC/DxEBSpl46Ub5IUX/4V9LVZRTLPRhVGVH2J1z8na/v7YKwxYAslUAFMLTQDedpt0exkiowGMZrAxksF0gT4GS4/5zjMr0QZOAQGDmbZj6aKuomBvTKjbIf0o123a8oCknPdJ1dfCM+fLQES0RMQkiqO9W3Efuk5ukbrHvxx6AIEv1uZTUyWOY/oGTcDO/QEIJCLSeZCWzDpU5ol06I5noOvIdehNb2Nuq42VvMmXjuT28Bh0aqMMNHkQY9G0Y+WJEyfkne98pwIIdHhk+Sfllem34E+lB8mLVKb86le/Knv27FFExYMHD8qWLVvk85///LBTL20YkBf3B54fH4t7EEr7vGJhE4yhDgw7JQKFmeFLJS3OGtSp3bADGg6TtfX3cUIC2W2SlA/PzwVnqfaQbH91k1JVjYnsA3C/WY4eOSpzwVPiO0JNgRh89sEPf1yNNZdctB7pybmycsVy+d2DD8FyuVLWr7sQhnBHZdHCBQDhBXIM792K5QQHg2F4pgsYHVDkRqzONSlQP2uOM+Qa6CgAFzJcwSstEVUGHgH7aOT7ndUK/J7dRMkEGBxnYsgPgHASKxUamxxqktcVQ/ycx9A6BupnHIeRBLbo6u0SkZQn9U/eLhGJmZJxxbekL7FIwlvLpfqhGyX145uQmoiR+kc/K92QxA65CAIv4vljgYVKJ+uL9+903r4AQkNDg2La00thyZIlCiEHWpHAF5+T5fPPP6/+fvnll9UkyBAgX1xOolzh8/d0PfRnte3vM+JAQBnoL37xi0F1jTSPz3tDEMXjMGqwceNGWbt2rQJUtJBluaK3xvtJvwZqH2j766VLl6r7QOLij3/8Y0VqTIe1rdmmAIL7uxqF3PYFc2rlQMexIRuwPG55vCUHvv10wqhVHv3tg8HejhbNrDKJiAwNzwR/ry8jMUz+fN9H5b033SLzZ2TJr3/zoHzn23dJFwix+/YfkFPFp+WWD71fTdSfu/U2FdZnhIC2zozE/finD6iKoM98Gjbu8DJ5P5RZa2pqsHhJB+CIUWQ+tl6oWNJjgnoHDNeb4kT6XN1FD+pR5aDHHqpl0j/B1FpQnBybp4eVeghT5Y+s+qGSogZsdvdURjSqaxtct8uMIkRXbZfIWRcpgNHx5Kck+dKvS2z2XOk88Yo0PPctmfaFLarMUXq7pGkzOF6hpqTIq6L5z5G68cur+dvxprYb+R3wBhD4QrB8kZMV/2hgQJY9w3maW+DP6pgRCK6OqaHAyfTXv/617Ny5U6UdmMM/55xz5I9//KMaCIIJEFiWyeOwOuCxxx4b+Y3y8k1eG9MvtK7mAMK0wCOPPKLAEFdBBD7eyhV5Xxl9IMeDaQqSOlk6qqMqR48eVWZPlGE2780UQPD8UApSuyUnE2mxbsuSl41mT/298cpNsR9s+GC3meldMj/bql83WzDLw8sOvCwFi2iPPjnVbHmPUuKhS4Hnw9vEtAIFkHrhZpgHngAXDFWY9MMiIiWeCqH0XMANJSjKzEgH+x+21OAOKtk+3AMS+Jhm4Y/kmHQi/TAd5ZEnT5fh7/wh1QP6mdi9OTjJM6/f4hhqac4JnhEIbfrF75smSwRp5DZU19Src2TkgURKSy/Dsn3WEQP+zBQEhcx0i8LY0OPkIcQA1MYmMO3QJnB4kJ6IJCiEQrujB/0JUaK41BxFbIwGabY/Kjk0AQIvbCqKEOxhZWL35wkgcNJiB//Wt76lJq27775bVStMnz5d3v3ud6vyPHorbNu2zeeEriMI/A4nan5vw4YNKlpA/wZWOpDbQE+CYDYel4JO3DcBCNUL7aHGYBxPAycdXTFTKNy/v4CH9+Wee+5RZaH6O7oaggRPAhASHvVnUwDB+9OLJtcgqknmZYDkltgnR2oS5TQkj4Pd3AGD6tZI2YfKD81jCMYx60v3gYi4JBi7mtB9FKV1y+Jca7V/7/e+L/915x2ye9fbKgR/6YaL5TOfv1W++LnPyKOPPSF33nG7/NfX7lLbvu+G98rac9ZI8elSOXLsKCoaOmT9heuslbWz0ZCMv49H2WINVuvu3r0kaA04Wgc1NEh0pBqiXbqZuxzu6NinBJa6sNLvApmS0syaeMjtGUkwgYbJW+Dn8fBvaHf6N1jjhBoh1Nkr0SVEDCMAjnp6e5RQVDXsoRUWsqHOkIwg8CJOQHzkeP1UFGFC37AgHtwbQKC+AcmFDM8TdRNpExwwDE5xHwIGph38mQDJ8meZJB0Lv/zlL7vK9xwOh/JpeOgh5BcrKoLq18BzfuCBB9SKnud56tQpmTFjRsApEn9ut+ZZ6G0DScOoMkWnpKwmbuq/rQEjQj0HVoAw4jIFEPx5IhOzjVoVj8GhuYIOCx9/EuQYXIqkxPXLFYv74aLYhnf/bvn61+6UveDcECA89sQ/1STJCf5ephtxNxlhpNxxTU2tnL/2HDldUirPPPu84kVt2HCJsn9mIzGQYfuSskr1jpgrf30dlu5BpEv/gz+Tr+BOtpnf6Ua6IhITNsMCORBbqqislWRUFVAbgY3f53G16ZKWYtYRQzuAoK6BWaFgpiF4/flwmaxvaUImYdADxHwG1T31cqT9xGAE4ckt22XHkWNy2eoVsm7F6HTGg/Wwp6IIwbqTE78fbykGAgRWMGgbZ/IRLrjgAvXnyJEjqs6foMGXCRNfVnZ+S9zEcsXjvxmh0Ct6d+TGYNwdEv0YAaEqIW2VP/CBD/gFaIJx7GDsw6z0OH78uAI5BDz8/VQEIRh3eGof430H4qLC5N0r+6UJi4NvfvNb8qtfPCBPPfOc8g3ZuHGDfOJTn5N5/5+98wCzq6ra/5reZzK9ZNITEgiEjvQivShIEVCEzwZ/REVBPguWTxS7ICgICIrSBJEiICU0JUCANAIhIZCeTGYyvd7p81+/fWff2ffMnbl3JtMS7uLJQ3LvKfvse85Za6/1rvedM0euufpKg014860lBp8zbeoUOfCA/aVOSZNY7V/x9W/Kn27/owkQ4GOZMa1UqZTLZcrkoqBav3t9obIH8H8MxCyKYiMKiohaWfM6+Yw0zUj04h/YJj4+1jA79i0WgmXDCToSVWzKb0oIpQELmIiXt7wprTF+BkjUSgsSck3wgiLkksZ3pKmrr+soZvPW8p6bn/ivUbKy1qQ91t867+Sx/j37nW9leZpsb5x4pCnjPjG74ABCBQg4a9oaX3vtNTn//PMDTp1Ivq6uzgDvSNfvscceI3LFo9nuCNUx10CbIB0GrMR3VYNjAewG2A8CrGiAsKv+kmHGrc/fjg1LjDTz7mqW/yBJ5bQRTsIqFeDXoe2kqUnJpn0Q1sA0BfjWaEDAQoKeACSaoTau1PJBAit3revzvgIAuEOFjXJzsmXb9op+HUsEFEW6zfaKqgCXAat/q9boXeRwbsYARwLdBpzDdhww1i5d8MT1diAYDITDK+ItK7giS+wL6RIS1mhDbFcgJcep6qhRtdItQT/3Ien7GowGdQhTLq1bHPg+5qvX39KTVayyr/pRmiIxm3pTGiWpsfLJoz42rvcNYJDnlThpNFJp43phH8GThwoQSPuDDgbg9+9//ztIqpkHhZWsWyefqNMGFwGZDnATBAh0GFDLxyIpi4z3dVnUtM28kD2Ab4HyjgkQqrtl4arh8SCM97VFz99/Btp9SrKVpAJdtC7u5nbmgmZ5/bXFcvJJJxjw8h3a0UCZnSwCXQz1Ggxf+bUrjN7LchUv21FZpcH9v+Qc5Ud48aX/GH6EK7TEiQ+CiZCFdKXW67vQPdBnw1IS+6dR2xy1TOcSG/EpQQWdDi6bKZnOVG21tCUD+zN4ux68dMpuZoLMKOUNW2aE0IzggncO2YVJqtZKNwPcCa692fR20L8XpM6T5NgkMy8AH4MChCtv+HNP+qQcueq8kyRHQRUr1m+Th/+zRBI6W+WLpx83IW6fF9dlSUf3yKOBJ8TFfUQG4Q0QuKkB9tGiBwGQt7Zup2W0SgIjOe1PPfWUAUMSKNiAxmZARvI8I30s5hYyGMo33/rWt0xZBIwGeAqYLI899lgjDx3NIIz0zI/P8TrbfdLaWCXpuePDMjoeV33mgha55Q9/1CzkbDn1lJPk0ceekOOOPVruue8B+XDdegNWPECl5JeteNtgky7/f5fJb357owYNX5Uf/vg6uerKr0qqov5Z4ZeWFBoqZXgP7KKVroQa1RoBZLi9orqfM6b2T8bCDQ5wwslJ8f3aInH4zTEtUpCSGwgckhKDt0tIiDMdFzYTYemTyXqQqaBDgxZIFteGM0G7GbxByGrfh9LolBH21ZbcpNhEzaL4cQtLGldqmcHfaRFz2U9u7smbPFX2nTVFzjlqf7njqVdka2WtpHS2yCWnHz8ev2nYc3Zp28kLKuhk2zzC7hDdYNxnIFQG4ZZbbpFzzz3XBAi7wkp7oEmE9pk2TcolgCOxZcuWmZbNiXxdvJBozaysrDTtjVdccUUAq/Hkk08a7MZZZ51lAoTnoxmEcX+GhjsAMgakiBOTP3oieAQIb77xppymwUGdlisrNOVOFoAAATKkb3z9q4p/apZ5c/cwGQSe2d/89ndy1TevNJ1Tr72+WK6/zt/dQLqeMgXkRNZ4RiBd6uxlOnR/I7gRGptaPMFBjxA0UO93DXxDgzTKurbNcsikBdLdjjZCnGID0nXbpsCmOP1EDRo6tF0ToyMhU7ELMDOG0ltxFSHJcFClaO9pl9ouv5BYeUeV7JOq8vDajuvqPNgsQszb733Y89Did4MGS5/l/3z8YG2VGB1GuOHe6O5+nRokoProqqeNxHGjxxidGfAGCPTcP/300/KVr3wl0MP73HPPGezBqaeeanr7J3r2AOdP1L6frkBW6MuFDALKititt95qOAYitfG4Vs7JOJnvBx980GAOSFlyXbSCAg4lgCur14D8vT4wVKTXFN1ufGfA16CrXaXPjddywkfR5muL41RtdSwpyDcAQ5xps2qXkDHrVMfRqS1+acmpAQlluA7IFJAhAHPgX313aHYgp1e6OcbPXOhpBfQSFcWS4tdzUWrwtjTisI3egXMMyg31Gh6sa+3DBhyQMl9ysjINPgHZaNe8ZYjBflsUU6GyyMnW7i5VmfRiIBgGpQ5KE66GRCBAgCjpnmde0tRGn1DKrOwkOfGQYB78iXiDxcbHyHPvZ2o9KFp+mIi/jzsmN0DAMf31r381q9WjjjrKIIehJ4bpENEgOAzoBOAhmsgrcMZGqxSUx5AygadAnprrmz9/vqCUONGNjhFWSgArLWGSHTP8EXRntMXlRTEIE/2HdMbX3d0pna3Nkpj60aasB6AYo6n2YhVgwjZu2SaJDhifz2C9HMzoHKAV0qcaC/Wq9BiKOMqPO0D5UbTun2EcOn+87y4ol1FGdT8nWKntqZf1TnCQEptsVvXWwCE0K+eCCTh0QeLVWwg1fsaSpTLPZDAAM3ozFt59yHYwZpuVt90MAR6EX973mGTlFUpsW5Nc+skTd43HQSehti1B3lQ606hN7BnwZhCQasaJIlMMAyAgoX8qrSkr2RdeeMEINY3HqtqdxcG6HuzYKioqzJjRMNiuKUs4BPguUwFCZEMiMbZ/8803DcnSRDDGgygWLy9aHROzZ0ZLDBPhhwkzBgiOckr3ntBB9VhN456FrTJd2RQLlRURx56jYMNtFcqc6Fn9DxYgkAWwnQ+Mu6yczoRgZkkcNpmGNKVLpvZvuiA0O5FuWhJbnBU7oAA9iOf8XTGdsrSxv57H1KQSKUrwBzaYKS1ogEF2I00Dlhqla4baOfhwMcoQm2i0HQgIbGu3zWaEm3vOAdcCQYw5J8O1VMs+BSv95QVVvDrtyHDHmVDfv7Y5Qxrbdg9ijwk1sSM8GDdAoI2O1DaiQVaWmY4FVuKPPPKIEQ0CRY+NVwYh0uCEsgjaBUhQQ9BkAZeMm+ukVXMwI6hgHuh6gAZ5vK7XHaO9dq6HPwQIL66O9hKN8CMxIofz0/9SW1aekF1MM2FEJmCAg5A9SFRnnaftiJQX6lQCmdZGryGsFRuCTprgGDIhcAek5QvzlYF1+46A0yV1n6ZBQG1HnbxTv1ZOnXq04gD8dX3r0Ck1sA2elvKFJUmyzzjP2fstG6ShJxiP4I4R2u70OP87BK4EXy87IoEJmYEWR66ZbUKxNPoB4HDEqGgTQYZ2NSBUhfKklaC25+S6GZ8tRQQxKf7i7n/Id/6nTyZ3NH/AkTr2juYEWV4WzSCM1HyO1nFsgMDNilPEsaK1YB+mM8880yDmCRLmzZsX1rGO1jgZ38KFCw3hER0J4QwMBYh/xF3IGMC6Zh0sSovQFnvNthVec8015poRSKJ7ABnriWC2bYraKNiK7YpBqEpcMBGGFh1D7wy0NtdIS1255EzeKzonnhnYS7EHkzNaZKpKNW9QrQSIjUJlD9htoAAB4iCcJQ63QdP0BbnZJnuAHgKO+YP6TbLJVxY4c0l8gZQkagZeg4lQZp95uBVor4SxkVbLdc2bZUebtk3G9G8jJnA5KK2P8poygEu0hKqj0ZAYxGzmAW0GSgh0NFASMcFEb/bDSknbw7itlWGplkFGtra3SYauhFo9YIkJcWdqmeHZtVH1xwnxWwwyCDeDsHr1apNSv/jiiwMrZutUURQkexAKkTtW12gdPWWOe++9V+Yo25p5mXjSg3xGiQSJZ76D4MkNEC655BK56667+u0HqRJzABkRXQ+QQcEJMRwFy5GYExsQ2JdGYPWg10Tr15MvrZD4KbtI2XEkJmQCH4NWRdNvn/jRBB6G+2mykrvk8BlNUqCZAxwiEszpyh5YUaVCRwOYt8zAYw4wsVzJjsxzr04f4H6xZhTIImzo3Cq1nX3ZArON/nd07kHiU6cfqeHwCT4oUVA+oCRQ36bcMK3VUumrlX3S+3AIfqGnTKPlYM22OIY6H9kCOBMwWuAjo24AACAASURBVBcHC1z8+AMVbNJzIBKFBDWtm+a6ausaep54+VU59ajDTPrhkYUvm+6FVFW723/eHlLf3CTTJxfLjX99UC76xMny0htL5dSjDzdprUXLV8qh+8yPdD5GbbtXtczQFC0zjNr8jsSB3QCBEgL0yvTgf/zjHw+0BtogIdL0/kiMK9QxOD9pf8oDf/7zn42uwk033WSyAV70MV0L4BD4nMCCcoN1uHRirFy50hAo8RldG4D+ONZ5551nyhJIXJMxeffdd8e1vACJDIRV3/nOd8w1kxEhg/C2ctdvq4uRqoRdX7xntO6XsThuzbb3JLtkXkiQ3Ficf1c5h1ta2FpeIaVFhbKlrFxZBEOXoVml49ytcc/DPAiVMmJJOFf7zE9CG0H/jXiSl2yI/U+afIS2TLboglqp3XtX6YPNW446Y+uI3e1w1JAb0VnAyp8sAd0U1pHbbW0XlftOopSQoXgIJKm7YEcMYVyjKyYHZmKS8jk0K2YCICSlEfY1IPHr/3h3T4miPPecNV22q+QkwcCzixbL2SceKymqfU2AQK1i6ao1cpoGBi8sXiInHH6wpmwqDQAkEYGJcbZKX6Is2xqNqMf5Zxj09DZAIK0Fah765FD8B+MdHHARjAFegCeeeEJox7zjjjvMtQGkpCxCSYEMBxkDujCscycLgFiUa3RkoCJ5xhlnKBo6VZ5//nnjfA8++GCTvudctEfm5/cBksb6d+Q3gbCKbpKpU6easaKNAT6E3+m1FZvEl33YWA/rI3++xqpNkpZdoiu6KN18JDfDsbP1+UuOVbnmbNmqNMjZ2iYIoG+g8oI3c8CzCOERHQM4UFbrrh4CC5qpKvFcrmWGpc3vqnx0sANO1e6DPRJm+rMB6hep9ePgcbaUE8guwDVgHTrMxc29zMWRXJ9XPpp9gpkc/UJSrSGyGF2aUcjSAAfsRBvy0Dq2VlOe0AyLzhEaD3ZcdGbxd1ojY15dtrInP3uSiTr+/MiTcsWF58gD/16otY5W+fTJx0udvig46d8ee9oIOiyYO1tmqv717Q89Lt/43PlmlTHeFhsXI0+v+Wi39Iz3bxDu/DZAQOyEAIHauwXwuZmD8Uqzhxo/zvG9996T7373u0Lpw43YTz75ZLnssstMu+bDDz/cr8TgRvnsR2BQXFxsHC64BRt08N1EeIbAhVDyoZOCQIZrZmz8Xo8vXBINEMLd4CP4fUt9uTlaalbRCB418kOlJihr4KR2WVvZ1/oe+d7js+UBk5XsaHKKIS3avG27Mgrmm4z4lu2aPfCs5gfCHSTp9pnaUogzhxOAdxHpf0oVNkUPbbLqF0ldbINsausvG39K6VFSU+dPz7tmW4jBMZAdSNG2bvN8qZ9t0eO7gcNgM5ip5RLKEtbIKrhZDq9qI2UJ9BwoIbgwY0oQJUV5hoq5X2eHXnderr9sbzAITCR2ywP/lEvPPTNAF8lBmBguyqIdbZvH3x5/Wi48bWLUJQGhvrIhU5rbQwNExueWjZ7VnQEbILDqhusfWeQEBetgF154oanzP/vss7J48eJxTbW7YwYnANkRHAe0YDJOHnTz4PTiEVj5w6DIteBMyTJYYxv4BcAx2GDo6quvNiUGW4aApvmUU04Z95uFa/jtb39ryiEEPgQJGOP87W1/l5z55477GHfnAXR1tkubAg/HKyhgbnNSO2VBiU9SNEB4ZX36LlG2TYzrkaNn1MlkdXakxjdrOaG0uNCUDcq1ZOZ1fgahr/95jVUz6oybtpSZDERDQ7NmbmJ7xZP69BVwyGQlKqvrAmWGrPgMmZxQ2NttAAETUs+Dd9bBwMg7w74HrJ+lvA/moU2DBjL3sCkGQZ/oWNE/bIOBsfD/1V8maW1tlSKlW25RQqj2XrZF77VqFcJkSLwUzGAMKa/Ysddr50cApGjqDfrHvgAHexiHsu1YPdTRMsNYzfTwzmMDBCvQhKiRjapB8VPrpiZP++NEaPWzV8mKnxICDzMtmDZIsGMHgwDOYNKkSQZTQfnABhBcx8033yyXI/aiDzXiR5BB2X3Zh/KCWw8c3uzu/F72ReW2YNmj3n7vU5I4bfzVXXf+KifmEQAexif675vxsOyUTjlwSoskqLN9c3OaVDf3lY0L0jtkVp6uoENw0b26oS8YHo9xT1OWxNnZ9TJ9ymSzysc5ZivfARmAKsUDed8jXryBHbPRMCjMM5oJsBTWa3DgrtStaiIL5pSURMOpQJmhU7RtMCa4xA7RUFZmqlnVE0iwD1TOrN7dTAYZAz+5UmiSvwCOCTyBljxcoyTgfmazBlma/VBM4YCARI5BENWBQqQnq5KoGg/MnTXOj8BU2C6G8fjhh3NOWBWfXh0tMwxn7sZiHxsgoHrIzUcmgb/DoPjAAw/IokWLpLCw0KD7J4oxTjIaEDd973vfMw8epQLKC65DBekPnoIXFJkCG0D/5Cc/Mal6DGEqSIfYz9+XHCv33HOPCThsQOF2E4zlHDBet8zDufk3wRwqm5tVzTFvn12r/Xks528459q88hkpnX/8uOILQPwfOl1T6eqj3tLAoKo3MDhyZpOkJnYpy+DgV6blbGWy3bl37v6TW2T5tsjxY4z1iBmNoowAmjUoMmUEeA5sFnxL2faAPLI7+sEIkXIUoIcDr1PnitOOU/wA5EIQBhlHqs8CKffKKg06dAC5OVnGEbN6D2XU91md+58r8zT53wn6NwiUErRsQYBAkIEN1rGVrgJKTR6uA3ANrPZt2QMcAmPxZgQG+vWCcBWaOSnVrIE9Vi0ETDp25nTKZM3EWKKk4dzkE2kfAoSXP1Say45omWEi/S52LAQIOB1a+kjnWVAe9MRkDkjjQxR00kknTagMAmMmS0DXhZVDZqzwNdiMG3V7Wh0BNNKRYB0+AQMPPyRQlFRIK1rjWPx7ImVLvPeNJU2584Fnom2OI/BQoY2QmJJlCI3G+3c/eZ7y8hMYbNHAoKlvFUwXwFCsScu6r6zLGMouQdtyvtc2psvBU5rlP3qcjq6Bo5KDdJusRJ92JpAGjzeZOOvYNm0tM47XawPhDex2ONppU4pN+yLpdWry1vJUmInVv08DhUxtGWxs8q/kea6nTSmRcur3Ia58IH4Bd1O4Blz6YzIWiEi1KlagXgNzSga8O7hPOuiK6IUBmHBD30kEIZlKpQyjop+gMXK5AXAVBD8EFllKDW1tq84BnRPWwFvsNgFCjIa7O5oSot0Mw35UR3dHm0GgJZA0PFTE3Ohbt26VVatWCeqBCAVBwTyRjDGy+gc38Oijj5oXEi8Agpm5c/v6lBkz2RAeap/W/8gkkFkwNUFd6eBsrfEw0w0BR4J9ydlV/Ehe+1A7QrxZBPsyevS5t6Q+deJrs4zk3I3UsWA6rCtbI1mFsycE0+EMpR+epzTES7ekmvelNUoJB2iZIXI30zdDw83c5qd1ykFTm2WpdqAdWOoH3g10rBPm1Eqpdtt5qY5D6Su4z1kovIH9nvu9qCDXtBriX/0Uw6z2/YtMSI2sUBIpeFD/LlhxvZIwpfVidbz3CxoOdAYMZOHoj/2l/h6jpwDwkjGS3bA2FMEm7xgIiqaWFgWCCtgiyUDYgMRuT1vn7hMg6A9MkNDYGieLxrk2NlIvl93pOAQI3PRQ92Znw0rmj46tE3If6vG67lAO1TpwghcyBFbOmc8fe+wxA+gjDb///vsHiI64riVLlhiAItwCbBuqxs/LhtIEErOwKB577LGy995795sTd268gkrh5upHP/pRAOOAEBbcDJi9rlDXbDMjtqNk0fKNsrbRr1IZtchm4IPFD8rsj316SCu7yI489K0AHR49q1EVDGP6KeDukd9qMAY7Y8MNEI7RMaUmdkuDvrMztdyBva7ZhDpfH8BvTl6rfGxOsqEGdm3jZhVeUurhgWwgvIG7fZdSLyPkZLIGvcA/OvXsyp5nhJZFuAGwONQee8sKdvXtZhzcY7ulRO8Y3cxHuHk32+r7JKWXzMhuT+cTZRV/CSMyY0x0Kxr6ZzWwGnRc2KDHq0pp2h13lxIDF0yZARvuDRvZNEe3Gs4MfP6oePOytGlrjmFr9fZ4o7GKHspY3YeaBxCMwLe//W3j5K2zTFYCMcSlYFmkbLBmzZreWmP/J5XjETig6sj+BBlgGA477LBAzZ/5IMtAlgLSpDfeeMNgHtgeGekvfOELctZZZxkQpHXcBFfWsQ82Z7xcYHYkk4Fxfvsy+N///V/DxXDOOecEMBGMC0AmRElIQNORwXneXFUm79UWDmUqP3Lbkimo3LBECmYeMuGuPUdX6jUO8NAOMFc/P0RX8CNhQ33ncl7ObxxVZ4wkxfufn5qWeCO+N69AM29pDTJzamngXud7WhjddHuosYdTaGQfmz3YsGmbqbVX9zIH4owhJbLAYXel7lIQW2DjdmVbHIil0N3eHSeOnUCkHJ2HMDxCrKEIAjgf5IWt6rStDXT8UHOCGuX0qSWBrzZt2a7CTklBm3IuMgluuWK3CxDKGhLk7SGAXkbi4YgeI/wM2AwCLIrbtm0zREQA+HgQhxoYDDV1Hm50BAOUOmA6/NWvfmXwBm52w/7dXb0zBroW7PhDncOCMffdd19TRsHh2mO5/3dbJ72ZBo4LToNAhFZLshh0VEBmROaBMgdZAW96kP0MsYpuawMDQIc2KAMc+Y9//MO8KMFYUDIhkPnhD39olCkZMx0lBDDJubNl8kEXhZvGj9z33boC7enpkq6OVoMt2JUsPrZHTpzbv19/Z67hGQWJR7KgnZnbJnM1ALC2tS5RkjTLQcnBGqvbGdqdQI19khIekW4vH4Qu2e4XSXDAtvkKOsQZIuIEiVBPL4iQ71wQH10IZBHQZAAL4OIcOAY8BnQshDJ/sAFrYV9GhOcpKZGshH+mWKWDA0jXlX11TW0gQ2HfD243hVd7geUwJEwDBSgcH3oC+A6soTiJ9sJA+7hZEvbZvQIELTEAdGmJAhV35jkflX3JIPBwsEJm5Q0GwVoop+gOYqQCArdLgFLHH/7wB9O6CBmS/S7STgIcLwFCOON4rNQpOWD2WmxQYAMNvrMgRj4jEEANEqdOAIPz5mWCI6+pqTHAR46Bo6eNcrrSQXuBSjaDwLWah90BMqF3QdaCLAmBBt+R7bj99tuNcBRzY21DRbu89P5wqtPhZmcX/J4uFP2vrux9yZ6856hdACtqyH8mpfbVnbfVJ8qGalXhU2Bgd4+C2NTJH6tp+sTe1bcdzGCredsFkJ4UmoZ3Zy5oW32CrNqeIl06Nq+lJ3XJUdodEcpWladIrnIwFGX6Qbwg6Kcpoy/BAS2GBL/bK/26CAMZWINwQD06CKAgblJ24FnTp8rWsh2GvhgnnqZ1fgiLMAvis+dyV+rZWpevrfdfR5PSk8+aPiUI2OgdnxtsiAaTyEfHdZZpRidVSz79uRJ4B6TqWGhZbFQmx0QFLjY6xEgoOnbqePmcaxmsTRJ+hIK8XDMk3gVaLTBZg6zMNNPKGcrcEgvf71YBAhgE2m4G6D7ZmXs/uu9OzgABAjcp7Yyg/knV25T+9ddfb9LgV111lVFQtEBAbn7LG/6f//xH5s+fb5wkKfDvf//7BjiIc2SFHMpsSt48zMoIyrlhC8Rh2pJBKGCePVaoLALf8cLinOgXRBJQcE2QQ2GDbW8zKTa6dwMnvmPOPvWpT8mvf/1r0xLK997rcOeB78F72OM988wzcsgh/hS4nRs3k+ENxGwQs7VWZOG748+YupO34E7t3lJfIT5lOMyduu9OHSeSnYeyum/RYGGrBg4YeAJsoABhtmIN5vRuE2ocBD6uLkEkY7XboIVDa6TLl0AgAybMOv6BjveqkjId4QQPkzQjRisfbYeQFg1ElWyPFwnegACAFkWcLcDECpUVmKR9/0+tbJNj5sQIc97WyzbIfX/TKwkyuyBWPntIonnOoF3mWYlTH9PVu/rn/IZZUdP1Sb3pejcb6utOkm7lSciKq5dkzTBd+udOaVccCFaU0Sk3nF8nLW3J0tZFyTBEUKV8B2Q4XJ4Ur45CqDlt1+zLFAUhWqvWQItMiDXolhNNFqN/kEiA4mZFd68AQef4maiy41Ce6zHblhIDK25oiRFoKikpMQEDQL/S0lLjxOhkAFTHA8nKmXQ/ae7KykqzYiYgoKb+u9/9zvAoQF0M0VCodBl1fdLypNHvv/9+UzawDpBuAxw8WQAeBroMcnNzzfek7AEisg1/Zxycx+jD65g5F/8myIEgKZxxTDQNoDKOJDiwzpv/UzqAqAkiKdoqyRIMxWwAZudnKOAo9zwfbGvRVraPnh6Ar6HCqCYmJA+/jW8ov5fddrp2GuypnQbWutSp+DpipEK7DjbXaiucZkjddkSb2j9Q2wAL0jtN22C9A/SblNIlhynfwUBW3l4p2zoqzNdzk2cYRsBuxVSo2LH5DM0B82/9w6e+7jbp6OmU1p52XQUrXZCujJubcyUutU/+OJLrnps8U8+VKqsrkgPXy+p4qmYPEEuC2XCDghGTBgEjRlJSwKkiYkSmoFBVGmknBLn/iTti5JmvxMv3ntSSQ0aMbKntlp+dlSLX/NMnM/NUWdHXJftPiZflWzrl68enyrWPNknxpFiZlBIn3zk12ZQDfvKkT38TDS46uuXOi1LkG/9olTMWJEpLe4+8+mGHfP+MdMlPbpAv3p2scxgr0/Ni9Lgitc0a3KvE89+/3NdWyZw1+JJNZkGHarooEH6K1Izio2Ib6HrAKNOgr5SiCwuvoQRJwEQZpKaOtso+m6QZhrreDMNuFSBwic9+EJV+jvSGGsvtCBBwtoD04DpgNYzDApMAUdLnPvc5OeKII8zqHEQ/eACicVoiSbXj8HHYfH/llVeaujmOn9bDUAaFMdwEdBjQdkhHAYA8nDXBgKU59XZS2Bp9KFyEu2K/9NJLTToeC5faJNjgWi1AM1TJBCfOH8CPaDUwXtsKOliNcbR+QxtccPzVmxvljc2Rk9mM1phG+7htzbX6O2nNWQOC8eQqsM7/hQ8ypV0BfF4rzuqQ/Upa1AnFmmDA5Q6IlMegU5365vYyqW5vkcaaWZKZ+77ex5EgCEL/Co21MyUje/2Qf6ID0/xdO9ayFKdDGhwioW0quBSjhEWhLBy/gd2H+xigIel4n75Dpit/wWYNPvJUiOiQXzTJwitipbk7Wf70aocGXiLfPjlF0hM75fqnO6SpVUHGU+PlgoPi5L8fxmiGpEe7LUT2m5Ys3/h7vWYdRH5+dpqWVWIkX0skZQ09Mie3U659oku5JXrkd+dqBlSnNKGnSa580J/qP26vODl0Vrz8/Al/OeOeL1QFAJp2zCz2Y5NLFaCwTY8TGVsleJhi5YfAuObNW7dLnkpee1kY+R48RbJmaCyZE+8l9x1DCyY4BfMu3J26GLj4aIAw5Gd0THYgQKA8gN4CPP84aBw1+gW0+pEyp4xgiZL4O3VwnLwFDaKUyB+CjKOPPtqoKl500UX9HHSolbotV3C8Dz74wBzX1vc594EHHmjKG2QJyBAwPv6EquuT9aCGf+655xr9gsGY0H75y18aPQekoK+44grTAWGxC3QmUP+/4IILzLGQirYWLugY7R+NOSSo4XfwxeZIRez4y7qP9DW3+xqlo7VRUjLzzUs1TgmMxtvQFjh+Dz940JYKSH9naBvgZK3RExyUaa0fISU3MCjK6JD9e7kEBruGlm6frGvdrMGFpvB3zFd1v75rLpj66oC79nTTUqdBbFwfit7d2NdYLCkZ24c8fW6AwEp/akmxYQkEh9Do6xMlcg88GN5gbesGqetskKSYJJmSVCQzc0pN2yLPE6DCOv07oMCqmjopb0mW19frvE6Kkcff7lBHLXLtaQQIXXLTS5oh0azNnkUx8ol9YuWNTSJPrtSgoa1bfnVmrNy7JFapqUUuOKBHvvWYEhdpsHDj+enyhxdbpDAzRtKSlKq4rlvO2a9HaZ99GnBMkj9/OUUBjzF63B7VWeiRK+9tlbsurtLfNjgwa+7UYKJjhwInUxVPN/g9iXOnzGHfQeA2cO7YQMqOLtMj23kxF/4gA7lnxXXsbgHCc5pBGH4cPOT7O7pDhDMABoGXMGA9dBgIDjAyCGQH7r77blPTx/m6q3d3hY+jpROAGjyyxNAgU56I1Oxx3QCCz6i74cBt4PDWW2+ZrgMyFxAeETgceuihppyBeiPjtB0NdBM89NBDpmThjpV9CWTIdmzatMk8wJyXIIlsCV0Tr732Wj9+hEivZSy3W7WxfrfIIKB50FS9WTLyZ5j2MkuIM5ZzGe5ctPfNUJQ/5WHv4rle6/lLlfmQtkBrJRow7KvZhHC2o6NatrRvlzZfjtRXDg6uTEhSJ9MWvisjNl5VCOP8pRC2T06r0EzEh+GGEviegGP/1PkGbImRwICXgGcEBx5KACJcSWFJ0zsBGebpSZOlMNEf/HVogFNamGmIj8ATWAP0h9KhNRfA59U8+ONr8VLZ2CU/PjVGdQsIMvysk1YGGu0CSpacLyvZp50ZftwOv+UFf8qXh69MldtfbJf0pBj57BEJcvZNLfLwpap34E0SJU2V9uZNygfRB+T2TqrlaAD0iLVq+bZGxxPnMCGacxvq6GAwJOWFemcO/HLPSpLlDCRP6aS5vt0uQHhxXZbeDFHEdcRP6RhtaJkUly1bZpw7WAJrOGdW0wQKlB6suSA9PvO2Ge5s6t1N9XvBil5nD/PhE088ERgD36OtALAS1P+ZZ55pFCnJiBAc/OlPfzLBDgamAX4B227oBztpnXGCUC3beUYwi+wJLzkbwDHnuywPgr6oa8pWGyGkzLzp1ILG6G4f/mmOntmoq89g8NgWbQN8V7sDXJuicsx7Fw/M1GeeF10Frm/bIvVdjdJcN02aGyIPpod7BYNlIbzH1PWplG8+PICnSNCgLV9BidjW8op+2KJwwYFxiFo6Wdqs4moSL621B8qm6k7ZozBOywA9ct6+2nKouAlfT4pkp3RLfau/8yE1ToF5GuDHaWjx9vY4mZvfrUGYym3r54AMdS0tcT1+lsVrFa+QlRIr3z0pVqCZzlCip9rWGENAFKO4jFVlnTI9u0d/Q3XMsZ2SnazBh57zhucyZPHGYCzAJYc2yukL+rdItscUSXxXhWpjBJcXwAZQrrRG6ZQSrOVi8HYgsF1udmaA48Hu5xdsInDwl28IImjFdEmXeDeZ1undLYPwsso+t3VG9RiG+4CP1n42QGDVTJlgr732Clu7H62xDOe4BDS0F9rAAdZDMgQY13TMMceY704//XS58cYbTWYEkiMbeBAk4ICt7DNZB4iRfv7znw9nOCO+D+P80pe+ZAIcsiKf/exnzTn4/IkXl0lVwoIRP+doHLCxaqP2tbfLpKI9RuPwo35MygSUCzCvsiKfoWC4V9HggUFzl082av26tbvP+dTt2EvaW/3OdzQtr/QNdeyRdbzEx8RJ2aZDDctjmjraFHV+aerw6GDwBgiRBAf2upo7W6Q4O09bcztl7Y5u+cqxafLNh5rkzH3jZa4GC1NyE+Wgn1YbIOHLVysANVazCAro++UzrTI1V0HIWfFy4cHx8uyqTtlQ1a31+h759H7+VHxzV5LEdjQY0aVtmuQ461bVltHLffKrGTKnOEWWb2zWc/nkls+kmWu68fk2+d3ZfhDgl/6aIw3a7YFNz+mQX52rB/AYHXi12gKZGN+twNRgYHCbr8m8Q8jAQqaGaFxGVk4gkKJEYxcf9rCUCnD83sUUrZRwOFgL1fpIi+luFyAs2pShfcKDa3GP5gMSPXboGbABAu2MpO9xjp///OcDok3DnbdQgL/hHmug/eAk2HPPvrQsDyhKlLZVEJ6DFStWmN0hGqITg6icjIFbziD6pyPDBglkUig/WGDkSI97KMdjnGAhENGiJRNsBddAeWXJ6nJ5v6GPhW0oxx3pbRlnU/UWafc1SFbRbOnuUJnf5hrJ0AzBeOM2RuJa52iJYbaWGJraVARpfV/3hLezIdS5arsaZL3iCway6rKDNHgKZs8biTG7x8jI+VBS0v0dEeFsdvI0Wb+9UGB6JPBJ0+whjiwjPa1fgBAJzwH3BrwDaCpAEPTXJfFy+VFxcvUjHTIzN0Y+Pi9BgYYxMi2nR/b7aZMkq//979UqeOSLlby0HvnNwjZd+cdIYUacnH9gnDy7uktBhnGSpLiQE1R2hULIhqoYbX/Ukkp3rKRoq2BFQ4ec/LsGeelbOVKogcWKTT659rEW+dEZKXLIdNE2z27t1PDzkOD8z7s935QcHr08RGmhd5tGLdfQFeEaua81q981QG1wQeCVKHUeevhRQdtR+qh1uhKYE0iYmj2S0eATKLfYZ4YuD+bMfYbYZrcLEN7enibljghJuJs0+v3YzIANECBKwgF9+tOfDuI7MHVCTWu5KbRIRka9MhSYMJJ9I9mGcZHtIEjAyCTQsmidOlkFPrMPFuyQyDzzb3gbXPlqXn6MlaAARwwOgQ6Oa665ZlydG9fIddx8882mxEPq8gc/+IF5AW3ZskXeWV8ra9vn64u3SyrrW5TRrlnOPnZ0Vuis/gELwjvAn+xi7VxJUDIbBRQmpoxtu2Ek98dIb1OiQMR9VQJ54fuZUqplhELtl89RhPxgtqlN0e6dSlYRxhqq5kpri7+0hyPMSle63fh02bgj3Tiv7oTFMjN7b9mk/x4Mx1WSu11qNWD0KdgOS0ypkUn5q6Wheg8N1vIlkjIDDn//tL2CRpyh4GXS2qxuy3ZU9ruawbIIpM2TFU+ANDJ/Nw45tltWV2bIXrk+aexO05JBuyTGdMjSsgQ5dk68HHB9vdx0fpos0Ni3XkGbKVpSUDyhABSdkhMv1c0xUtnULQvf65AvH6ZBga7Qa9uV7lgxICVprfJeVZIKXMXJ4vUIXcVosNoqa+tUOrqrXUmuVMa6LEU/b5eU2L4W05/9O1MOmNomp+wdmmSN1b6vOz8g8cw7KmDmiQAAIABJREFUsUBBiIn63gDgDY8J3Cbwujz77HNy5NHHBs2Tl6eBL1MIBjRD4pphWdVSIkyM1uK1LaOzs+/fYCsGDBBWV6bInvmDp7LC3ZDj8T2kIat27P4tWeMxtztzThsgwGdASh4GQJwl9s1vftNw/9OS+LOf/cx0OUwUI5iBiwAnyoNJcGBpjfkMbAJshBhBwfe+9z257rrrzN/vu+8+Q8yEuXgKMgsAIumYoBsDAqdQbZVjOQeM71//+pdJYZ599tkB0ShwIS8tK5MHlQiyRfvA9pyeJx8qc9LxB00b9vCaarZIUlq2dLb5hNbClKxCbS2EhlpLg7sATmDYFx7BjogW7afOBb4Dlwsh+O0ugrBOi/42cPO3aClhtS88OLClsUSaameYQ80rgfK3Xu5e8jc5Yc7xcv+Kv8uBkw+Q+5bfLw9c+Ijc/sZNcvben9b/32ruza8edo0s/PBxmTZpllQ2l8keBXPk3+8/Lhce+glpbO9zgJ0d6uTjYfgbHCpOm2KSpvYTYxJkamKJ+TuYhKICfwATaYCAo6P2XtfQFAiyaeF837dODs7fR1f5SVKFEmKn4gwMMNUfPBCELN+qvCearYmNjdPSRqIB7nEsWiIJBgjoazQgoJ0xM74vHU9dH1lmgH1u6t7qM1RVbJTcrNB4l6Y2v+4EHRChjAChI65YgZodppMjR9sxMf69fsMmqagoNzgo3kGlpVMkTUHbXoMIKTYI4dpjAoE4vU7XMjNSFbDZB3B1GSOtDHbIAGHVjhSZX7DrBQdcPEjfxVt2/5VGBO+aCbWJDRDq6+vlzjvvNCqIVgyIFTStjqysERGaNm1aoHY/nheB0wR8SOACcA9NBKunwHUQDMCF4JY5aJckS4KRIaAcQXmCsopLVMQ+tDxCb/zTn/5UaIfExjtN7i3ZsIoApPjwikTZe2a+Zhda9WWaYFaY7c11SrairJIpmQqC264OX6mBdcXPyr9u+/tSOOsQfVElSEvDDknSbeKT0sbz59xlzg3t8CHT+lPh9ugyP1fZ/6wzJJ2OM4O+aFnzKkMBPZi1t+q+O/y8A7Xdj8leBXvK4+/9Sz6o+lB+csKdCsjbLI+994R86eAvyG2Lb5cT55wg1S21Ut5YJpOSJ8lB0w+S/6x/Urbze2qW553ta+W7p1wulb5gsp+hTvSs5KkyKS7TsKbS5ohtUQ4Er7RzKO6DjHRF4Df1+SoCpcauZimNK1IOgz2VS2FHn/CSI8HMfW5b+Uil0/rn03vdZUkc6DoMgE/fBzZTYbdLSdRsQWqeUiEr2DrWX1YYjlU3ZxoGSWtVaDQ47I18bmmjQx2ftkevyqS39GD3c99JzD9BBODW4sI8pWPW9lAvSPGdilTZpzB828xwLnys9olyIYzVTEd+Hhsg8HD95S9/MaA+nCcrVhgUWZ2/9NJLJj1Pan68HaW9Mtu2RHBA3Q8GR7gXKB3A6AjtM90NGGMGX8A2RPgLFy40tXxIn8AecG10N1jNBbZnX0idfv/73weOEfmsjsyWNijwZjH4HJ2K+s4MWVPvf3FHbfRnIEMR8Ec61MOuY8zKUJbERv+K3c1KbW4rk/KO/ml5d7S0FVZu0Vy52nObrpXP7n+Rpstb5L2K1XLyHmdKvq5Gl25bKt968tvy6QXnypcO+YKuntPkkocu0tp9olx3+pVSmJarGC8tgax9VZ5490W5+pQvM5KdmpTihHwpSfSrhRaqdgAkSVvKytUJ919me8sMNkDYoN0alR3+QCVW8QGnzTpGtpfvMNkB+y5xWxp5BktLCqWyqsYIJ1GDH0yjwHuBrsqj+11irGYhcqdIT6sSJwzRqrRrMid/irl+rEkzFA1KDW0CEX0WY3o/5zsAk5s0cNO0i+TGT5IEzcRYI9tABiHeaW8cSNgJLYoWn1Pu0OCgID/XKFrWqeZEUIDwdnmq7Fu0awcHTFI0QBjinTkGmxMg8KASpaIWeP7555s0tpUxnjdvnuEHwJm++uqr4x4g8PL94he/aHgPUJ4EUAgT49KlSwWeBDAEXA9BwCmnnBJ4WRPoIA+NQRNNoAB/gzUidrggjjvuONPWyTHoZKD2z7yMBejS+3OHOicvUMonXPdp510qHzSNfovcGNyGu8Qp8AenzPP32HvBeXznSvK6bWxvNr0d9vpamwsUKzBHyXk07NBjwRaoWDuDdO9Qfp10/Zz/k1ZvV8cJ5e/kaUtNyaBT2/gIVlhhJsclGSrm1s7wgmWDDaowIU9KE/t0A+hiIAhqamqWBu2o8Zo3QGAl/WLF4qDNjik4WFKTkk17n1t/5z7HIVLabNTju219Zq51Qlyp51DjJu1fkJetzrPBKFd4LT+9UWJTpkltTYUKbYVWefTu09au6f+U0kDJle+hmnY1ZrzBi8ENddfJOt9mYU68jJSTVFQKB28NwDFz5XI+8B3z06xgxU4tVU3WgImSCQyW8fH+gCMQICwrS5MDSkZGGzzsXTrKG0QDhFGe4GEc3mYQuLHvuusuA/w77DD/agajVs/nOFd68cc7g0AgA9UxAke0LIKdgNkRfIRbd4TzgCDHPEz6gqFUYnUXzjvvPEGICuSx15gHMg3f+MY35N577zXngg9iPCxUBoHPCGZuu+02OeqUC2XJtmjZbix/G5cy2esU3ZVwp7748XRkula2vB/U2uiOd0pqkXz3id/I1cd9QZn9ZkmssvVBLZyurfkECYAUCRrqWrSMkR4j1UoVnJ0WI3nFb0tDu7JNxmuHgWJEWhWA16y1+vmT95Blm96RglyIiGAKiFFwnyoPtqvjjTCjUJpYLIUJfsI0a9xzpUX+bMKmrWVB8srmGdP/GIdra5uVPbHHzz45Oa5QQYB7qVJjhXG4kADVqjNHoAnyJdQNK1XyeCAbKHWPDDLdFZR3BrM4BUaKzkdOjgKX27eEvWVqW9J1W78ODO+PHSppDUVy+Y6aoBILWQWokd2yC4qPC8v87JeHpAeLiCFRbbY3mREldaqu0/GnKINjcEAH1oBMCsdFwIqgh0DJ5oRMgLCpLknBJzsXCYadiTHcIBogjOFkR3gqN0DA4bICd7kQ/DVB/0My3sY4cNqAJwFNXnLJJUFMid4XGs4d/gDzglKNCJD/GMRJZBvIKth0sPfarEYDZQaOg5DVWJkdE4ROlDhuuOEGg4mwn0NF/cc//lHOvfhKeXltlFtkrH4XzhMuQOBFb2vglvWO/UJlEbKTMuW/778p+8+cL3Myp8ldi/8htS1NcuyMk7S9cKqyZL4py7ct11a/XDlm5jEyI2e61Cj24JF3H5UZeQVy0rxDlVum3QQRd7z+gAYCCfK1oy8298mKbavl/mVPSI6qFX7r41/S9sxm2dERvqNiZtIUyY4PzdaIGuH0KZPNdIdScvQGTGkZyfLSduVfUIK802cdq861ygBekzQ1wircKjFyPDIEdAQMZNax8j2LBLIFtA2iXxDpuyk7pUES06dLbdVmmZQeuvxS06AAxPyZQcfcqnLMCVo66Nagr0P/JHlUar3UyWQF1rStUy0JnyxInae4h+AWVkCHlmaa67HvWLvAoQMMQax6DXrclsdcBUaiAImZAGG5tgbuX7x7ZA+4qIUfTopKPo/l2yyCc9kAgYesoqLC1OTBIFjmRFv/duuqERx2VDZhLLQ14uAj6S6AUfHll182K26CAeSkMciRyDwMptVgH1x7IZG+hEbywinr0OIIeyKdFxa4RHDz5ptvyifO/3+ycFWfXOxInjt6rNAzABkS3ABYqPY+ZJWtrD0v+nh1egQMoQKESfEZqvKYq8x/LbKxcotMKyiVP758r2YJfHLdiTfoqn+rpCSkyJX/ukq3K5BfnHq9H6ym9MTratbIza/dIJ+Y/3E5da9jTECwcM0iZXGcq+DFHXLC/KPkoTeVXlDHc/4BZ6i4kmYf2gbPhO2VMltb//orDLozEa8rZlb7lAIaPaUG73ywSl5c/7ZQWkABkZo69Xv73OVo10GNlhuspbKNrpxDmUnFa9YBRUQyDeGe3VDHSE9C7RLWw0RJlv6cEC1deQarZJ+zRm1ZbG7p4yTgHYg8tXeM/fACevKk5Hh5pWqp7Je2p3aEBOs25CgnQn+lRi09aEAAhmGSdmx4SxlcDyqQCZqBIJAwAQLkQkdOC5Z83JUf3OeVbhmJ1KhNnBmwGAQbxYL05yGBjZCVus0e2IcmEsc8WlfnzWSEy2yQbaBez3awRFrGRfQbaOnkQRsog+AGBuG2GY3rpcwBVoKuEmijEY0CgHn11Vebdk2Chk9d9DV5PhogjMb0D3hMxJmOnOFPZ4dKq7staWyDEFGlppEt1bB74JT4JHl8maqozj1SpuVNluue/r1cf8bV8uw7y2Ryxp6yR/5c+emL35WfnnydrCxfqbLHW1QvIF3iO4+TA2aABciQjoSlsmzLu3Lu/qfKL5+/TfeZIR+fe7jc/PLdSjt8uWytKZdXNyyVg2YvkDYtQwxk3lr5YJOap6U7WBXXb95qFB5dc4MEnptE7RvMyZ6kKoYKbtTnLTFJV+K9EZSlaLfBN90fzcqXEMpQMoRYKFwpIdzNQPZhcnGBKmWu14DDD7asa9QFhM6ba/XVGyQzLVa216VoMKJgkF5Lp0PFM8ZQlMgEEg0tzSGDSA7VpsFjUCZCyx/5KnnNOylUcGDPT+ZkR1WtP0B4XzkP5u6CnAcD/Ugvrlc9hq5ogBDuJh7L720GwZ6TFkAeXEoN8InzkJOmJ8XOH5wTddVInOtYXkeocyHiBKcBBh6BAIE2SBgV6XSYyGaDn0ceecRwMvB78CLiBcdvQHZk+vwj5cXVO4dUn8hzMFHHNliZAaQ6ztMaMtW0nPLWiwSsaPfbsfmIoMvP0ZR4TVPwuzMmpkvypwQDAYc6ZwmqaUAafKhWnO8nIfOWGtwAAeBgaUmB7KisDgAHvYJEkALBbWCtQ+ePdL5rZC3atATBe4dt3S6AoY6b7QGQtijpWJJUS5vkSmZGH45nh2ZR87OcIEUFmnDI1qi0trf1H6P3uvyLChgQQxMrkD2pVtEleCBKS/xgUJ5tgkkv/bJ5H2t7JTgIyjBdGmCZAKGqOV7rT5HxZw9nosZ6n/+oHkNrVI9hrKd90PN5AwSCAciCKDEA4uMlgI4BwQKrbgCLcI2PR8p9OBMHIArHmqEvAcCGK1euNKWUE088cUJfgw0Q3NIOf4f/gLIDmQXaHKMZhOHcFTu3z8FTmwPv5VBlBmrFNbV1kqugtu2qJJiuILQ2FQao6KgS2BUjsR0qlmTqA2qHzemRyx/9slyyz51SWrBOitPmKBPhW5KZMktyMsuVdChZNjZFdlz33CUJBVKcqPzEgxhZEsNO2jsWOiUAO5LunqF4BBxtXW97J4ex8xFYqWspwm3Xg1GwXdsxbMugF9VvV8h2SGZ7nTtbUhgsyxDJvPq36VEp5mAQJuWgmI4yDT6Cg7DG5i5p6sgMAiF6s0Tmug1Y0S+kZC2UIBPf+bRLavoU/8IF51+tfAod2pli58Tuz3uL+SjfUR3USWHApwQIBCETABsW+byH2XJtVYpsqB1dzvERG+xH5EDeAIGbDmVHSgyQI2G01uFUkXF+9NFH5f77798lZoeHb7/99jOKjQQIZA9+9atfyaWXXhrocNglLqR3kPw2kFZRBqIddUtNjyx8d/dZQOwqv0WWlhkO7y0zhNIi4AVuChC9L2/EdayUcaRZhHqlX25T+uVULV8vKrtRlilY8f7P3G+Ulk++81T5zrH/q7TAC+S/65fIIyufkc8eftaQpm8gvEGoson3wKaTRv/r0JX0NHV06zZuViKiPlXLHnV2Jo3vCQ7scRK07NBBz6aaV8ios8tPCsTceYMDtqdG36rByXAXKLwTcPBgGayDrlWp8ZyMgTPbXfGTg5QXKXcYCmw9lltytWBFm13t4lqMnLxflKlFdRemTfHzlnANgDZTdeFlGBjhUjC0CnQp9ZjAADVIsiZeo2wV86+3mnr2303aG+0FljUmyDvlUda2IT3Jo7yxN0DgdKTmb7nlFoNBIFAA4Ed6HmAcWg0EDEceeeQoj2znD8+DBwmSLYvQ+kgtH+ri4b5gdn5Ugx/BzRzYMfIZKxwMYijaNeF+31zdHc0gjPYPMsDxByszWEeGOJF1QjhCkPuINkWiz2B+ay0z1Cmz4slzzpFnPvindrRN1VXugbJw46/kswd8Rl7e+JQBKW6q3ab9+v0dSaihE9AAnPPnBLRtji6AHm2hM05PiYkiXJGSRSCbkKMdPuAQtqlGgyH90VXvlOIiw5fgbd2z4/GSGVmchv0+WXEKlBIo17j1f77n+NTuTRtpBMb1sQ+Omv8TuFjj37EdW8Mepc6XpsqQfd1CHW2t8sjjjys/QYm8/sabco3igkj9X3XN/8pNN/xGbrzpZtm8Zav88ufXy1e/dqXc9Lsb5Ne/vUGaNNPy85/9RN595x15d9VqBYPPlMW6/1Xf+Lr8+CfXayt2vhxz1JEyX1vNH3r4ETnttNNCjo1MRcydL7f1HD+rXokxdp8ao68jVv67MTPsDxLdYOxmIFSAgDOiTo8zPeCAA4wzhZiIaBZSIh42/j5RnaydPV4OrLaPOOIIM17aAwlwyIJMtLG73SIEMrRWmtQuvc96HQRsFguyYMECk3KMZhDG7jnxngk9BpQcsVBlBq8TtKnzLnWqS5vfiWjgsCvOKoiXDyu6ZUZ+rK4yxfx9fmmskuios0zcbD7f1rzD8ByEsyRF0++TOtfwFRA85+lKtEGR8wQv9OanaFmRcgjN9ugfhDMbJJSoY2vW0mRNXYNM0Xp6o7IMupLF3uNwPrAH1rMFBcW6MXTGFZVV/YIDexyvVkG4cVKWAOBojdZBVu8zpk5WDYwN2pkweKsw46xu0u4GZbzEXn/9dTns0IPl+RdeluXKOEuAUFG+3SyiPnbIQXLr7XcK6rj/98NrTVkzTwHFP7ruei03Vchvf/0r+fCDtbLm/bUyb94e8s67q5RvIVvfU0sUSJ0hp6n2zS233iY3/OZXRv1yIDMBwvTsNpmbt2tqLwx0YVEuhHC389h+HypA4IEFQX/GGWeo8EhpEGhmVwAn2hnEuaKuZgmTcLy//vWvjSLiRAsQ7JjhPWC80FwTlFkVTX6T5557zgAWrWhWNEAY22fFe7aSLFV4LFHKXeSMPCtvHHAPqePeFLFZrdKeptstV32GDmU/DGe+piLxNRUqm15/4R/2jYnplrSsTZKQ1KTtlM0Khhx4VQ3eoDTJ0nL3KDAvPVD24N7KUDY/i85n7Px7oAyAd9x0KmSrFgVm2x8HU3hku8x0FSTSQALj/KT9CRwaNfJhKgE4umBP95yRtlyTEUnStkArrMR1bdteGTguAlA+X5NkJvW1Wg70m3RqmcG2ZDY21ClHQYNZ5fN+uezLX5QHH3pY9lJtl0wlPwIn9PbKd0zWb5999taFiZ5DP1+2fIV853+vMTTps+fsoRmFemVvXSZLly/XACZdLvj0OTp/TbJgn33kr/fcJ58666xAGcN7f8Xc/5qvZ+9C5Y/WetfuZNEAYWL9mgMFCPAh0GrHSnX69OmBIIEb1dbeJtaV9B+NfZHMnj3bkCSBo4AMCqGnkTK3BdI7N0MNQjgWxExwHlDWufHGGwO0rvA2bNy40ShYIpqFRQOEkfoVh3+ceJUgPmxak2Qp26HXWKHDlGctVWWPW1RtsL2nXVY0rx7SSWvK9x0wUHAPFJ/YKDlFK4OOPS9lpmTG9SL19R6DnQ8kvGuIInV09vka7kW6BVzZ4YEGjEOcWuoPPqzaY7gAgfNRJgCfAfUwKpiQB1lzSYFCnTccWNGCJO2+tXX1BhwZFGhowFCk4kddvo1hSytNrTHS4FMFyd6AL0nLIGRi+p5/f9BlFiXK9UAGhXcnZRJKKFwjJRnwBcw/nA60dFJKIZvCfrEKkET4C3wCGagYBZxsbSyXSUqope0WQTyYA8o9D+mumoAbRwOEifWjhAoQ7AjROgCwSFmBB8HNHkBAxANA+n4ojtAF9di/u+n1oRwr0pmECwGnC1gRnYV99w2mP430ON7tKFnso9E+q8Mf//jH8qlPfcooRNqXiGVujOSamF+OkZeXJw8//LAphVCDJBhgfzIfBx98sBHTsseLBgjD/eVGfr+T5zVIgiPawxlwUjwztm3NdWqRghXtSN2uhlCjj43rkOzClZqx6GvRi1MHtiB1TxUM8uMToILGKXnb6EDRkd5m1e6WBnDipLn7be8MwIor2Y8GChBYVFgQH7TJAPdaNbAw3YC9c8VfcZaYF+jpvWbIiVDM9I6N8RBcWBAi5QSCtFDZCJ45qJ4b67YptXXojI6vQ/UhWv2ARq/yItmJLpVwztUAAIMymjlkbK0K4LRGqyviVK7FEyA5ARnf8R6h/bFeg4mN7duU+bJPeXJyQqHMzCg13TBmgeZVcxz5W3p8jhgNEMZn3gc662ABAvWzF154wQQH4BH8D26PcV6/+c1vDAAQWeVIWc3Y10bcNthwV93274O9kIYze2QNjj/+eAO4RPYZaeidNa5j0aJFhvIY541ENO2gX/3qV41SJNeA/kMkwYEdCy+I//u//zMdF1/+8pcD2AMopem+QDyK76xFA4Sd/RVHbv9DpzdJdoqC4Tx977aDgZc6vfKkqenzb1Lp4/dUAnkw6+pM1hWl37HUlO834KYpGWWSkb0h6PvkmCSZnzonMB7yG6xgs7NUW6RXt4DsAKx+Rh2QvH7v8+mqE1JqoBQQ6j5mdTxlcqGWKpr0uuplutb0B8sg+BkHCWD82RZS/G7WwKWm5vmiYwFshLVudcapiidgBc6YkzXgwUFb4xIKlGzItTJVjvQCHe17DMpn3l38SY3dEditvTNOlTGTtPUw2KlblkyyAJRVcnMmGScPs6P7zmKMzRq8uHNG50OnM1aDu+CMntKUi11xg8js+EyZGT9V8QqZJsuw2wYIzyndso0aR+7xjB5puDMwWIDATQwgB8DN2WefHQDNnapAGrQBqJdDXww62wKNBhsHJEyWfwBlSEShqMfhtBFQwrmisDjSbZSs9KnrX3DBBUbLYShOe6DrsYHO3//+d7nzzjsV7NUgzz77rMEInHTSSQYnQAA11HPZebRlHII0MjmoU377298OOl40QBjuXT/y+1FqOHEPfy3bDRIICjCcMvfCUFUevYRJ3pGHCg6KVKZ5sso0kwI3nQrqUOhS4N7CobE6z83J0vp5SxD1Pd+jTtjQ2KfWyPhrdeze7oZAcIBegKbEO7uVobCwQNZt2mJW76FKDDj4eHWslkmRDAvOOfCM4Bgch2mDK86N4yRjQFnCbm/JiVi1FxflBXgECFh4fuh2IHNQpYRE1mzgQZBBNgV9BdQSO5o3SUt7svL0DKwHYZ16oWYdOD78BJMUW9CoJQXXbNuiW8QJxZ3gDZA4BpoTlBgION73rZf6Ln/Z5eD0Bea3tHOy2wYICz/M0psyyqY48q+o4R1xsACBG92nRCgPPvigfOxjHzPpcww0PelvAoXPfOYzxjkiET2YM+ThIgWPk2Y1/5///Ef+8pe/mNT/zJkzTZBBd8FyBex85StfGd7FDLIXYD8CEcieRsK4HgIZAqgf/vCH5ho2bNhgAhyyK3yP5gM21CDBfZkxXoIbuhqmTJkSNPRogDASv+TIHYOOsxPnNpgXeac6rQylLG8x0uH0wftXo9wXrNyp769r3STVnYPrI1RvP0C6Ovo4BuxoE5LqJSV9hySn9a18+W5O8nQpb6+UPVJmBJw06oJ1Wt/3Olb3yg1QUKWI6xv6uhcG4hwAfIfSII7YptJtgLB+4xZJ1hU0Fgq86WUcdMGKZh9Hy4IltpE9VuAiAY7XKIHgSNEuwGj/q6isCYg+8f4qVozBtu07est+BEAZSkxUFygD2jIDnAPhMpfwGpQUFQREpzgnDp0yjPcZ9zp/soOMh7Jsn9GCqUBWh1zJBjaWXZIsArLbJRrwkYXgXCao2l1LDC+oHkNnVI9h5N5KO3mkwQIEe2hWyThXnODf/vY3U8MHuIiDLCwsFLQN6HYI5wi5+dESIOAghU4vPw8otMdva7sQNXaOabsOdvLSArtzDlb2tGxyrnDjHMp5CXBY4X/+8583+gh/+tOfAo7g61//ummttGWBoZzXZhLuvvtuA0w8/HCY9YItGiAM5Zcam21tkNClgDiCXszb52+dZKQtjw3Ve0hSKqQ5PolLCN3VhjMuUInm8o5Kc05El2hpxFixk063IESeQ/9qvo87gcyBGxwgtES2wS03cCyLOahTqWbq4dbQmqDdETnn2PhgZ+4GCggW+xUY/dsk6rjatF5vnw3AirRLWstS4F+9w9RoPyf7UFKUH9hve0Vlvzo/2xbm52hNv1E1IBL9x9FlfQoYAQWLWqOMguN1yxneu8UCMbeWlZuxW5wRcwkHgpeXgcxErOP4OV6eliTAKVjjGQeP4dWfcMsMlKEoR+2fMt+PcaFF1TIpjs0tPbZneW2zpmTaQvNTj+1IomdjBsIFCNzEPARQFMMp8KUvfamXHazHECeRWYjE8XGc4447zqTdWVkjKU3fMHiAl156SW677TYDzqNtKJLjDeXX49xPPPGEeWGfcsopQ9k17La21OACLt2dOGdOTo7JmnjLG2RnLr/8cjOHZB7sdbPauOOOOwwgkbIMQFBKFt55iQYIYX+ecdkAEiU3QLBpfbt6jNOUQldvnfWdljXi6w6tYBjp4OMV94ATbu8J7punc4EOBixenXZnh9bre5O3LqUxGQakhQOOy6x044Nq5nxng4MawHhOPZ3v2jq0k6GkWKj5mzRACLNlB1ce2f/89AUM/pV2jzm/Gbends/KOl8dLYqMGFmMkMDL3vMDSqbDwggcmTOJARG69M8200D2IZTZjojK6hodm+q6kJFx5stlynT3956HtldvwAVw1OcEK/79/Wx8pyOIAAAgAElEQVSKNqPxVuNKOSr/QA1q/L9vfKUSve2uGYQ1O1JkU32UbjnknTgOH4YLEOyQcNw33XSToV/mRRcKc2CdJfsM5OTJIJCiBMiH87zySmUa0+OiVEh24mc/+9mIBwiMx/RY62qe9sGxMuaDzArMhzh45tAaLyVAhwQsKE0SIFGasAYtNADQz372szJ58uSQ8x0NEMbql4z8PIeoTkOu6ue4AQJ7u9gD7gsAdqycm7paFKz4QeQn8GwJGLG1Z+AAY7Kmp8EjYG7aG0eMo07TFSyAP/e+pLTAKtaVJLbBgSu85A6lxdeixEN6r6v2RC+fUMhrIkigmwM8gX1HuOBEdnKzCMwV2Qy6MsENsAq31lc6GHj6yNagLUOpZ+4e84yKohcgaAOEgcoMZCF8Cq60vA2Mx20TpYQEANFqKRAQFuT5x1mtoFT3XRhUQtHvGQuYEG+Xgxs4uN0TZGoKG27ffQOEbQ2J8m5FH6vVsJ+M6I4jMgORBgg8RKTnL774YqMs6AYDdiAPPfSQ0T6YM2dOPyfP9vAqkDWYNWtW4PtIgooRudDeh3GksxPhxgbZEeBCeCXAboCF4JrJloBZAORJdoa5I5tiMxGAN8FkXHvttQMGTNEAIdzsj/33JyhQMUEBiwQIadrrTm98laLcYR0kNW3vP3d1OdSWR3tVlBF83aHlkd0rPyhtHwNY9OoeeIN8P6reNDOYe9QGFJaiuEyd/0AdS3QP0M63VTMIdvUfavYJEPzUx5QY/JkGgg+XmRVQImUIawgoTdLuC3vuCmVBpAcg3LPMeZjz1pZG+c9/FykG6swAZsK76udaKZv09hYEzo1zpvUSQKJd0XtLNmycqnTTDUovTYulvyQSYzpEqrW7w5ZT2I42Rku4ZE8SCsBoW2IzlAGS45oOLw0k8tYok+2MC3ffAIFIcKF2MkRtYsxApAECo+WlAZcAAEOknykTYAQPCCB9//vfN2j7z33uc0YN0to7yj0O3oDMAR0R4BbMu6iXRthtbwwVeEyMmRr+KEzNt1fYxb7kqGnS0YHeBXP5rW99y2QMmAuCgq997WsmEAtCeXuGEA0Qhv+bjNaegBTBIXCvJ6vKouvE3BW8W5oqa98hW9u3Rzwkq6xI0BGJpcamyN6pe5hNQzkoPsdh+7UP+sq/jFF7H7RdV4F+ii2IDwLY9Z0Zx1Ws21Qo0K8rZvAx2c4KL4gPHECjZhXse8a+Eyh/pPYKKxFIUCoY7Jlw58Ouwl966UXN4KXInNlzJCc3z2zivV6CknwVSHLLDJQ3aGUks4Djd1syXXAleAPooXdU1QRRSPPMU8pxuygIWui6QL/CWiwZCc1AuPcKgEiEnKwwFXOctfxkSZ5/qRImaPZldy0xMClRLoRIHuux2WaoAcKKFSsMeRJODdCiP0XWIyeccIIBL9paOXTGtv3xqquuMhLFGC/OSHkTxmYGxuYs5mXbS6RjcR2cGXZEO4//+Mc/DBiUTA1ZB8oTg1k0QBib324oZymY+qrZnFW7AQKGUOOzxwN9T3cBjv6tpmD2w6GcM5JtD0ibL/FKmMS952cx7OMPAInfoi1/LmiRY9qyQrhUPit8pK25lhYVMhrM+tQieW/0lSIpawRpD+iXtBNa27KtPAD69HZChDqfCwjE0S/StmpKjCeeeJLZnDCGDgkcsHutZRoMUCqwoMRNW8rMYideP+sEgNBrlg6aAIZ2UYstcAMdNvWXI7pN8AWokgCHsblATEsi5YIkjc5Fb4eDKbPUvyq5SZsV35EgdTXaGRMNECK57aPb7OwMRBog2OiWm3XdunXG0RcVFZmOA74jfQljIavgbdu2GU4DtAMwauhwA1xzzTWmVTJcanBnr2mi7h8Kt2FeVr1BFlTQgKqWLFlieCHCWTRACDdDY/+9DRDoW6dw7oLS+J1tPz8jw8ngFEhhr2pZK83dkenuhCotIMS0V+ps2dC6Veq6grUFZiRNlvwE/8rZnNdf8DB/ZyUM4C4UIyGtjAMRDbkzS43eaE+o163Qklk4s2DFRL3udn1vWLOlBlbddjytyoRoOSTsdqy429SxB7cM9p2V94s9Fp9yrAcf/LucrSWGhES/vDLmpWsGC4GIE90ZM6dNNngK24lAQEFRxOZHOIYpS+jckamw7Z4EOrA32vGDPQFfAJmSNS/w0v4OFuMATgGMg82wIq1dWPd7iUmdLB3LrpXET6hyZjRACHebRb8fiRmINEDwnuuee+4x9XRYFXlYAC/CKAgaHwIl2+Jlb3K7/0BOciSuZaBj2HSuPTdj8o5rtM5vz0NABV8ErZBusOVmFmBlZLVCy2QkFg0QIpml4G2m5sbKLxddJtUtNfKjYx4yTu3Vslt1oxg5ouRy47TrW7RfPjVGEfQKMmvUVjTVWfApgLyh+xlJ7j5ZCjJipaLB72QaO6rk7vIr1Fn5U/M+X7v8+MivyhFZB2qJQYGIHkW+OF1td3X1peFpcwOw16xp41W+tRFdEJkAnP4HyqMwK2mqZMdnGYyBNVcMymYOvAfGqTOKHSGQ+32o/doAqdFAA2tV8N60qSWyYfM2s0KuVs2DcGYDBHgXAEgmxseEBA9v2LQ1IEzmPSbvHNL+MDi2aekBI9BidU4pgGtwszd1tdVaYpgtS5ctl6nTppvtrQy0PTagTTICWLnKV/M7ucdwwZOuVoQbaJjVPtLZvVoXPPdgUVydC47v7WgwiywUNbXDguCHwNKqZeauPkcSZuh7tvI1aZ5zuwlGdusAYasCFVdFgYrhnqMx+X64AQIteqx4cXp33XWX6UTwvyB9JnAIRzoyJhfXexLAgGQ34FlwOwVGeww2MGGeIFQCvwEJFHoLtswAQBE9h6efftq0f8J5wEspEtXMaIAw9F+QAOHtHY/Iok2vyjVHX62AwgS59fXbJDc1R75w4FelrbtaPv+PL0uNBhAvX/a8Cebe2rJE/rLkbtmvZD+ZlJwl5+xztqyrrJNt1bly88ZzJVFXkP+z19nyqZknyLn/vtI8Ey988p5+fe/GMagDIbVtHJquNlkhW+cRKViRND2OHwsnijTQDLltju42NjhABhqGxHDGcZijNR+sV4c9SToUqBjOLA7BaFVoYPPOymUqfTzPdPsgZc69X+cQNg12PIvt8WYlvdfHyn7Ve6qiqQHbnnv55w5zwYooKc6eMVVbPhsDGQEjbNVbjuG3IzOBdLRLjsQYDNNkLwukF3RowIraGhrj6DF4OzcYC0GbCwSlYyH9g6slfdoRRBSyI/YYycqdZVQ4d+sAgcl4UQmTOqKESeGepVH/frgBAgPjAf/DH/5gNAcuvFCRtR5ecbbh4QGDwPcHHXRQQPJ21C/MOQEMhAQJ3/ve94ymBIHCWJQ5eKEQMIErgDKZ///oRz8y58f4nlUMLZ+QLVGesZ9HMr5ogDD0u4gAwdfzrtaTO6QwvVDqGovlH6t/agKErx/5NaltqZVz7z1f2jrb5KVLX9T7VQGHys3/kxd+IFMm+TEhlx/2/2T19q2ydEuTPNbwQ7n12B/Ln1f/U6496DJZuOU1uXXlffLAkTfIjKLSfsQ4pJwRD7Kpa5wPGADq1HWdDbK2NVhTwb1C2A7mp8xR8aUErW0Pj0umS59ZtAJckiP3HBnpKebYbp//QLNMe16RghOx9z/cYFbKsaRdwpjFIdgWv7/ff6+cfPLJRmmVtl6spbfn33uoUBnIUFwCtDPGx6G14M+smEDvrTdVSnm+/P6W2+Xqq75pPreCVMxL6eQixWL4grQnvI4c0quKSjoagq8zCLTYC0i2zzAlA8COlY6yJ2Mme2L5HMA9wARp8VkEB8nl9yjnguZ54hXnsHW5NM38ib5Q/ZmP3T5A4MdZuk1bgFr62LzC3VjD/Z62ozl5rdLSEStb6xIDTI5x+vAn6J/Wzv40nsM91662384ECDysa9asCWQMrPKg+xBTdoBiGdwC6oZf/OIXx8Q5u78DGglkEAhW4FuACyESBzwSvyUpRloaIT4qKSkxZEk2u8KD/sorr5jMAQAq6KqHYtEAYSiz5d+2eFKsPPr+L2Sfon1k74LDpNmXLWvrn5D9iz4myQkpcv+Ku0zqvaOrQz674FtSNClGX9yx8swHj8iklGzZv/hA7cL6t8zNPURWV3TKY/U/MMf90l7nyIbGbfK1BZ+Ts566Qu4/4gaZml/U62h7DMp9xZbVUprql0V2zWUx3NC2RSo7+hP2UEooSskz2YZQbXHhZoJnktZKVp8D1e5t9mDz1vKA4xrsuHRrUDLD1m3crEqS8SFVE0MdgzbQKeqQMbJn0LZb45nYY17fKp/PqduTWaO+b0icHCVEL6+CPU4oyeiqygp5b/UaZVY9xmxGKSA1hdJCRoCS2Y/QsC2YfowE5yTY8LeKev2FlqS0ndXFSiSrHLSr6Ahuol2xDRwDHQxaHW0nh5/AibvOf06Cg6xVF0nKnLN1FdYinevvlaq9nzHZIs6fo/t/JAIEJqPaFy9Ltu68up73JkyK75FZuVofywmfJntmTdZHVkBqZwIE5pwXD86N1D0rYzQDYP7jYea7T37ykya1Tpsj6fVbb73VECJRhhgLYwzwLhCgPPXUUyaTAIByrAIEzgNRC7TL//73vw2TJJkMggRejM8884xcd911JmgZaotnNEAYuTsoP0Prv0ldskNJ3AZYvJqTzS6pkrLqfEXr+3EEN206R/Yt2kvKmrXc1u4nHGpubpaXPnGf9MSoWqKSYC3e8rbUx/hFdw5M21sXgbooUfbEjDi/kBNId8CKdvW4tPld4ySMY1K8wfGTD+vNOvgdk5v2DjcDtmsB0SKyFV5MhN2f7ZA+pqbvrZcPdA5W0zbYXa94gSRt3QuRRAzaHYc8SZ0paXoMdD9siC7xkLsDWQo/3bKfCwDzdgoY0CF6Fx7H3StQGTgcZYDqmmrN1q2TAw862KhrJut7iP23KX9DYoK/9ONtBfWTM/WYDID73rCgU8ox3A1QLpMJMmNU8GejdjdYg0+BzEy9vis7NDjCoJmG8jlF583+Lt16X+SsvkASZn5aehSX0lO9VCon/0wzM/gofynDhC+7M0jRe8OB53hdKZib2sOnpwZ7ILghCtI75IDSYHWtcA/RK+s1hfMRpX/e2QDB9isvXrzYBAoECFAHYxagB50wnQ0QAR177LFy2WWXRaT+GO53i/T7J5980pQ5qP1D6zwawYl17jiHNBXpca/f5Xvg8yuuuMKUXFh90U4FudRwLBogDGfWQu/zXt0f5SuHfU1ufvVGuWj/zyuZ23IF/x0l230LZUHhsVoSqJPNdZuMaiHlhxlZR8r6HXGypvYVean11j7gKYRiB18ktXGDM3YCNLQ4ArO6V3BqU2uLEByYe0cF7fbLnCep8Qpw63Uo7si9zs97VRyTujsOnFW3dWxJrGzVKXkDZNxOnpIdVWobXqRGnd/e5+EYFM3zoX8mF/k5UCBC2qKZCvgALFgx6Pr0H7SBgv73topCStSi1+Say1Tpfk7q3jptrnnRolckWzuv9tl7vmRo1qBc2xpdzhb29apMxtMW6mQszPj1dwa0GES5nK5KmEpq5D+GkkEpvbXNRBAEoNcAB4JrbiDR06EtkBv+n8SWfkKjQJWb/uAeqZ7/qMkcGKEmBSfG9ZZwPlIBgjth75SnSlmjP5ILZ8fMapTUxL7e1HDbD/R9tZY53tzkf6l/1GxnAwR3viBBQqwIAiXkoXk5ATyqqqoym91yyy0CUt8LYBztzgYLZLIdA6PRwcCxaeMkCCFTQqA0kP3rX/8yLaDf+MY3DAfCcAGd0QBh5J5WAoQULTHsXTRfblt8h3x6n3Pl9L1Olyffe1JWbF8pyfHJcu78y2Rr43ItTRwhC9f9U7JjzzIDeGrLTbIl4Q3z98tKD5Yvzj9CnqtT8Z8wPEZuh0Fdh3a4ZGTJ61UrpDSpSOblzDT6CANlulz6XXcWDAhS69uYm+J2t/EGCZS66EBwuQYimVmccpzW+U3nhwL7mrVFN5T1aOZicrE/MMBgLDRI/N6MgNch828sFIcE10c2hNKdm+rnGniOvPNlgw8rGc1KfdGiRdq9USWHfuyQAHGSd9xpWo5p9vUFIS69MsOmY8Ir7gShEx0plBMwfqMalZqepPP0/LbXpDihwPy2oSy2/nXJaX9J0wqZEpOUKy0bn5fGuX8yWRF+T47r8sd8ZAMEO3k7mhLCUjIfP0dpLAcQBonkBne3eWFtprR3ffRkqEcyQODhXbt2rQHRYDABos6I3oI3CDDIX32gX375ZcPMCAtjqAd8qL9jyBdUL88A3w3XGQ80Dq6L7Ai8BWRQuNbHH39cCALsuQxaG6IV/T9lBkoxKcqShojTzlg0QNiZ2QvelwDhrL0ukptf+7lsq98mv/vkbyUnJUfqWuvlpkW/1+xmk1y43/kGmzA7+wh5ZXNfgFCc3ig/eOeLoMdkyTnflk4NDJ7RACGcwWeALPOqlg90H23L64mTU2YcZXrxvSA477EsO6erKghIkGdvMFVCexxXyhlMAyl6V5Mh3NihVS4uzDfYg1nTpyoIt0Fa2oNX9YxxcmFBwGkjtFRRUW26N7xGi59L1ORtUyT7QFmiUxkGETcCd+AKLnE8L1iR87Ny51rRlSATgNXV1piOhszMLO0gUr6KEOblSMjWlsxaBRWC4/AHAX04BN4BlCv8nAgAQP1lbUNA1eOTZXXvBc5wSPq+/c6WtP1u7abQwlOnSnIrILFBF1S+adeY4AB8Cr9Lv4zPR6nEEO5mDPd9rPbRjoQ9vTprJA6zSx1jJAMELpyHhbQ54kOAEqm9A160KXiXg4CXACn/H/7whyZAAMk/0vgA2pLQhuBcgLMAKXpTijv7g9Gp8MADD8idd95pxk8GxS0bQHwEvTT6Cqgzwh1hdRd25tzRAGFnZi9432l5sZqNVGbLKk21F62SqYnz5PV1sTK3WFP0+r5vatXaeVqM4Uio0z/Z+vcdDQgJ9cjFey+Vm5c/L/sVTpFjJs+RF+rVifX2wQ9lhMgzp2rQ4JdDDv9OI8VNXRwEPVwA3jR4uHNTA4cFELAgMs0DgRdDHadL1RuLi4tku67EkXkGW7BN23kDKHwNVKbo99YqlYZ4sCnxkgdZ4CFdBgQ+cBu4TplWUcoM7jxZTglW8Jmk+xW3wFx6yw9gOF544QWZqt1NM2fNDjlN3gCM4KZQSzB+bYW+34btCLAsyRFcCpR0CEwQeGqNaZN3mvv4LRakzpPk2D78Vfrq/5GUmadrukdFrtqqpDr5VOnKONAwMhmmTUisQtwLu20G4V1Vc9y7IDLGsHA3uPt9jAYJ4R+pwY9ImQzA4kfJRjpAsHNHCpAef1LtPFBuKt32+BMcvPjii0Y2Gl0CeqHPOOOMEZ1+AhNaGx977DGZO3eucdI7Y7Y10Zv+BHhJx8Zbb71l6JM5l8VnILrEeSGRIqsyUhYNEEZqJjUdXPS2tDb50+AZOetkelKprN5cGlaa/tRZq4UMgrUOfYc8G0H2wB05Us37p+0V4DTwAtxCOmhN2+fmZCrnQtOgjjfcDNF7T8p/oLbHgfaH3AgWVQKEVk3Fz5xWaqiWm1t9SnwUL/m5/uwYThJa4cEop9nO23EAvgEH36L7h8r6ue2h7I+jJpDA+TMO93yA+3oU02FT//GqN7Fp80ahtXHqtBkDTlG+dp5YBkTj8D24B4IXAhDLk2DGob9Lgc4p+/H806nw7LZFgXOASjgIlk2V5p605jOSMP1TClholo7qZfJe3hV6L81XygMNRhUfgeiTN1CkOwIswm4ZIECONL9waADCcDd4UJCgGaRIIu/BjllWnyBvl+1+apNZyV1S39ofBDpaAYKdY0oI/CkuLjZtfmg4WBAf2+BwEXgCq3DJJZcE/TSk7KkXIokc9DtHsLpyt6eLAIrnX/ziF0YUaahmOzXAUsAYSXkAJsmB7PrrrzedCtAmk03h/OAzzjzzzKGeetDtowHCyE1nXukb6kCCAWQcvc2XI+0tueJrLuh3suOnr5VpWXVBn7+o2YOWIWQPEpXTYD8NDoItWKfA/Y4SAk6HNDfgu1Cp9khnBcdZmJ9rwHNehcHBjoFwUKYyQKK7QoCAkUWo0iwBQEf7XG/cvk1SEyJ7l9IR4fIEQC7kyk2HGg9p/WbN3iFq1KjBBJAP73HsWAgeCDaskREo7u3a0Dp1gH45aK4VaAiuoK2DkkHf8pP3gSFYAiPiKTWQxWhWXQtrZC5Xt34oPukrvxySMltyN14hsUXHKtAiTVrW/kVemvFzs8u8lFkyJbtQMR1+sKM1fne6KchgmFLs7lZiKGtM0OgIYEqkt+/wtqPThZ7Snak1v7pBU0YhnOnwRjQ2e526p5/iFMRrh2IpWjuUHrYzRvLSFLzTO+c8QE+9F9xSOtoBAg8TyP433njDPIQ8MAQJtpPgnHPOMTwB9fUK5tEViWuk62crPSpBAloOpC8hUhlOiYBWR4hY0IUIZ14QI9eAQiWrElo26T4gK8AL0r6AvIHpT3/6UyPvTOYAoaqpU6eGO+2Qv48GCEOessAOsXFtEpfgk862TA1SY8VqKAx2xFxdnSZ3ZitGIVeOKt4uWcnBoDxAiYATI7WsuAyZmzIz5OZeOWIchF9KWB0hqc5eC4Xoj+T8PIvFhXm6ki4z7YkEG6ysBzPOiy6AuechXFLnSbBcUV2jAUJBQOa5rHqHLKt/TxJVWGjftD0jGU5vK6O/TRSjhBCKyZF5wNlT30doiT/uux7Hz3V4n0fv8QAdLlu+3Lx3jjvuuKAsgDtgsgRu22eXYi8oX7hBANuzHfPjimDxOWOltXGZb5U5bHHNC7J/OipVOsbkQmneulg2Tv+BbGzbFjjtodn76X0JRsu+uBV4qnNNBsP+BrtVgAARUZzKgEJYNBZWkK8Sm7XBkf1Qz7sr4REOn94k2al95B6DXSs08E+v7gsSRjtAsGPhwYYkiKwADy+ESdTjSbnbMoQXyIgiJPsAdISJEDpnWhZdYBbHd3EN9sXgdfLsTwDiYiHs2PiM7wENwlPA/+lEcL8nK4BiJeMn0Dj99NMD7ZyUFSxL5KZNm+Sf//ynfOITnzAdDVbMaqj3XyTbRwOESGZp8G1iYrokJaNc0rI26X0U2ftpSmKsOr7+znRpc5dsb4+8q6pQBZSmqaZCSCMIUP/gb6cjMNBe+1DDA4Db+wxwHDoif/NcomyqjpVJ+k74yjEdMjU3eEz5GdqLH1ts+vZbm8q0xTtZwXCZQXLG3jFZXgbnoVCOh0zjWNN6OQ347v1N62Vt96bAZqFAeQNcMFdhQJY8j9TycfYY4/RrFHQYvoBwXU8ACb0ARrOP/2Vhjsn7YeOG9coCmy9p6ZkhMwhs52YyCEpCAUDJGlAOcQMV8CAQIlHu4FwVqtlRoORHBXt+UXoa10lMSonU1zSIr/RyA0Zc37pZqjv9PitHOQ8WZM8110AA6NMsJL+9+xvsVgECbYS5qf3Tdzv/eA98BMOEuRPpii6lgX7u/YFb1UZz7EM5dn5ap3xs2uASq97j+TS7QLmBssO04uBV+1DOHem29oG2qXoyBqysKStce+21BtRnHfdyjeoPOOAA82+IjaBxprYP2JAUPYyINghgG9oqn3/+eSMOdfXVVxstA0oYboDAeQAFIlNNqYNtvAbTIRgISgHQR5O1cK1JedrJaECHDL7CggwZA2NDa4HV1NKlS02WhDZPshXhXmaRzmGo7aIBws7MXuh9UzOUryN7Y0QHBsc+SWvxRQmxMjUpRjsXhvaOwzEgCz2QuTXwwQYUkI1WJ3L5vSpN7JDT4liuObldpvcGCamJ7dLe5pPcghnia9ig+QB1QO2JmkFQsaAQWQTKCf4QJNjSlGAoSwMEa1vLyg2CH0bCp7f8N/B5SaK29iX2Z4/0Ho9AiFW4CRL071Zxke0oqZA5idS8HQh2Py8DZdm2rfLBug+VE2EfXRT0SUu75+FZZg4pXYClcIMAA1DU7gbKAV4CJQIcl5Qq5/1PS9z08wwQsadBWWUzL5CkjP2DtDRWtqyRvPhsKUksNLwHdG0AzsRs5saObbcKEEh5V2jbYptmEmA3HAuDQ7tGRVN2xhrViS7ScsNEttP2BOU6/BFaspPhH2Foe1qHiVOlowAnyqocp47TpeURXnaMh27z5s3mcxw3lMSk9W3GgNUGK3cAgQAe6SKAstWyOHKuFStWyKpVq0wZg0wFHQcPPfRQvxQkglNwE1AauPvuu83/vYJJJr2nL4W//vWvRnGRcVBGuO+++8zKh9LHaaedFgAi7iweJtzMRgOEcDM0vO/JKuRPWTy8nYe4136pe5lUfCgjxcwKPdx9xDqIFeu/301UPpdE+f5ZyfK7Z/2tdtWNqvHQ1CN3XNxqSgDZqYoBSyiUWlVdzEhsUlGqPoyA60A5p9Ep0OeUIMEa7YhTSooCY6pWMB6r+zolCKKTobSoQF5a+4Y0JfixZkDHjfT1TthAK/eBDulP9SOjHTyvjKVDP7elFK7x9ddf006OJoNzGqgLJJSwFc+7KTU4uAbGQ/bCXwrwjy6h+mnJEiW/Uu2PmMw50rHqN/L8nNu0zLBgQKEt3ucQIkGQ5ZZ13OvdrQIE98IIFso1WKDcUKSYhNEyel7pWXbJJYZzrvd3JMv66rGhBR7q+OBCP2Ve5JF1qOOPdYDAGNwaKul6uBOqVUceEOPxxx9vUvNWLpoMA+l987KBZrS3BYz/8+fII480CnBQOlOSYAXv2ttvv22AgoATa2pqlIP9aJMh8PYxf+c735ELLrhAMjIyTCAy0H3DOQkgCEoIcCiT8BmgRKvCaK8x3It9qL+3d/togLCzMzj4/pHgEnZ2BJlKtzxPQWsDWaLKSLeHYFJ0t8cZIbJ03WOdsr4qTs4/NFHOPcSfRrjsz62yraZb7rqkVW76b4xceHCS7D01VdZsrZd8LUF0aAYBTG+VolcAACAASURBVCWtm1NyYqWxVbEI3a0qP61EQapB8ctnfHLjOTGGvG5eUYL0aDBT09wjJappUab0xOnKR0AAX15Vbc4HtfTWHWWyunNDYIi0b8L5EM5qO+ulVgWrWrp90qEo/06lmya4sM86zyxMhLR1tigAuL8mQt8Z6M6oCCFlbVsh2ZLjrVy5QmYrWVlCEh0QoTEYLkkS+8HOaBy3U/Nh4WBBhPa5T195tuopnCfdNcslNu9g2bruX/L2VD9IGsptawQutgfPkCupToNdnHgzB4F9djeQovfmMCW2nVj5hrvZ+AEzlWQClOvO2osfZJjsx0SzOXntMrcgvNbEYOMejwAh+OXmD7VxtH/5y18MZwLof1J7RPVPPPGEIR9ynS3ZBIIJS7bECsDWLl2gI/cAwcH5558vF198sWk/PPzww+Wwww4LKkG46UwUFylF2PMRVFBSgMeA7AOdDLRvlpaWGqAleAXKIKMdDIT6DaMBwmg/kT0KXnxttE8ig9XpcWhw+v9/9t4Dzq6ruhrfM/PKzLzpvY96lyzZktwtG/dCtYGPmB5KgABxCCR83weBhMTwhfypgRACAZwYxwmYYhvkLtwtWb2M2vTee3lvyn+tc+e8d96dV6fKzmz/BNLMveeee+695+yz99prRXu/uMt+6CDwRccdkpEi8sFrLTbFb/7OCwKjKfnx+8bk/f8xKeuxyH/2Bod0DiXIhmKHPHfWJ11Y8G9aL/KrY1OIKCTK3TvGlIPwjSe9KrmQC86Hv35zpnz10SHMg1Nyoskr374rEFVgBUNTa5tC9KcDTMfv96VBizKalpWUoQiholkouWs9NpynusBKyPQDv2sCJO1lh2b7PlQeOKe1Fcyfh4pGkIxoeGgUG8rwUtWa2prOieImMKoXOH+wNJWVJXoTk1N1pzhWvUumRtsBHhiRZydWy4ABSDUlu9k/tpELjFQ3QJMqQor/QqV2/sc4CNFelvn4PUU3ehG+ng+jQ8NoQk33hRNNuGNTAPU723tcSgfBxAnw7/xImHpgWSD/TqIl4hMYxueunjl+HkdQIBdyPWmyjHLPnj1BYEW7TjwXd5539dVX+8+jgBOloLnQayeBzsQDDzyghpM/I3jxxz/+sUpP0ElgX/iHzImZ2C1Fm7hn+1xiOW/ZQYhllOZ2DKsd8koPRG3kxtIr5GxHndR6A2j0qCdNH5DvzJGV7vKQh1u7ZyLaI1cYaF6AP/6pS65YCwG8mnHZs9Ep+0755K9uGZMd5QPyj/uy5LO3ZMif/Kxbvv+ebCUvfKRhXGq7JmXPCq+81JQi59q88kc7fJDETpHslEn5xtNT4nEnyl/emiZ//8gAKKcn5foNLslPCcw9Uwjb50JsbAjfRRpShaxaer7vSND9xAJWDOUgrE1eAU2MTJXuMKsJwuEMzIt64ETYUwAcJzcIosxqg3GMQ2lJISIiHWGjCMRBkLWXTor5zVsRHmJPpsGPfS9Jru8ZhBmSUaVQIJM198vjpf9HxpNmlntqJ4HPOAuRyz5sdGK1122KgQPQAMW08sxgWs5YByae45hm8I77/BSb8Zwb7lh61C9Dt6FnEWSqo/X3te4ghLo/M/3AqAJBi/x/7uTptTOqwDJDsr7x/7m4//Vf/7V86Utf8n+4XNi/853vqMiDNjoeTDfQsaDxI+fiT6OSIiMNdCLuvfdeRYVM54GRCaY6GDWguBKjG6y60JTQZrpjKRyFZQch2hcyP793ezokMzfAhheuVdeUUzKckLAfj13wSLcVaQElGp4LUzTj7vZ8y4j89W/ceEeto2/fMiTvuwKSwdj5TyZXynBPLUh4kqXbmyOJoHcmKQ+rELpRqugChoYLHdZP9Y5PIC2QgjS+MwkYsh5oAUyNSW2fSyowd2u9BN2nPFRaMETPSB7xDa9Mi07p37sSXOB7iFzySAehAJUd7UD8k22QrIPa+E278S3qygZyN5CQif/OI4CQC7exq+d5oaoZ+HOOk2Y+1O0zJdEENkkH5pWQ8xL28xPAeZgETJrJkuRMxGmkn3ifpK6+TSbbnwPHwR7pOfUv8sKar6sxDWcFibmyKq0sYvTCfq6KL7yeUwzP1mbI1SvmBiCM9rHo32ekI/QzD2kG+/X2nU9H6G5p0w6vRwfBPs46/8gFnJUPpC1mqoAfKhdv8hLonT6rHAh4JFCRqQlyJjAFQPAgJy8qThI7QGeDTgdTDVVVVSo6QZpnTopMFxATwRRCUVGRaluXYS6FExDpPV92EGKdBeZ2XHbRYegHxIb1ubHkCnm8OTgtcfuKa/0dmMBue2/DczPqAvROOVRPye1PcaBYuF24QD96wi17T0BECdj3//yIhQ3wJhQpZ3pq1CpBbB9IV2JCLM8zmQBHx0alsqzE3w061h3TJeN52Vky6p1AKH1mVPb0SDXopcdkAv9lOdJlwIt2E4PLK6NFEewRhF2ebUG7dfvCzsoC7vo1RXQoVcgZmg7Td8ZxMjEHdCbSATpsbe8KGxXUJEx0qrIZnUaFga7yyDtynTg2flKmeo9LQvpaOQ/SKE/5J9TVtAz1/sGjQY93e/oGSUDqOpbnqk8kzw3tdecgHAeLYkkGSmwmwHnuAAIUJXaLYQvlILDv+87BSQCQZ6ns+rVD8PDD127z5bVrpNv7upQphtmOGxdqOgxc8OkscKdPumayJWpOgyuvvFKlJOgIsGySf2dFAx0AkqPwWE6YdCjoCHDCYMqAzoR2SsxyygvNOeDYLTsIs32D4jsvVrBimnhkpadUTgyek8kE8ANMJMtlZdvlyZbgiohKRwkAf6vkscbng/LMkRbQUAyBoe4iA2DF5IR2eev38uWH7+2SvLRJhK7HJStvtYwN1qnogLbRqUL/TpoI/tLiYBrw2romSQHRjzalZwJHhTOOrslnnrzD1y0N3hb/cZ7EFEnEPD+QEOxUxeogbAOo8ejwaSHL5EWpG40F26I11gs7qxG84EVIxA6eRvAgIwvmt0rgYGf3TE4cO501o4crKkqjKlpOUWRORQwIUkRf4Bjl9f8MjEgViGA4AUg8LM9lvFPWZey2FnL8p+dgjpmW874BjmRnd0/MIHp/O7h+QUHe689BYPUChU1ebUqTXWWx51ri+5RnHs3J3omvwizVmWub5vlPQAWS97YUdsWKEclJDe9omcQa5HsPtci9Fh0EjrUO73OHz7+bYX9OZBq0yL9rjAHBhow6MPrASSZUVQR/bqY5luK5xnrNZQch1pGa/XGJiT7JK3slagMpCcmyM2ez9Iz1S3lusSqZO9h0UrokfLphhasUZd8VcCBeVO1vTlkrnhC5aut9Z7lj9M1IOnADrsRB+cbjGfIXN1s7fZIiMRSfmtgRdB9N3cnquyG/fw6iA9qGALYbHLbA3XZGR9Ibk5OgyduKP20hx8UpDnBD5EmDrzXo9/aIgP1kHUFwJiB1gPSHNSZrMCYe5UgNTQxLUUaeAgNqs1cYcCY2t0xKBprfuu1ixDQQO2DOiQV5xBQlhax+0KezikKLA3qqvyzpZVtlqutVSci5WLwnvyFPrvsBdDU2q8NN54D/5hpUN9Ysu3FO6zRFddQXCwfoqAFL9ymqxU3M6yqCwOhBbqpPCkDqQydhsY05vJ45ciJE6vNSOQmXlI1KcUZocpYZzGfGDYRzFmb7XB620TfPtp3l85ZH4EIbgZziQ8hLR9aP4fd0ffFlauH0pCXL060vx3Ubt5RfLY81PK/y7ltSZ5J46cbcqFQYU4C40KZm1slx8aQ4JM1lOQfd/QkgRaoQ72Atdv/By2Rnf6LkFwTAkdydk/AoDyJFehFmfp27dL1r54JMgB8X1lCgQrUwQhhpY/oqOTl4PqijLO3Ti12oOzDbK3NBYRJOCMc2NSlFBiesaMTmjDWSOgkitOkG7ORHduVGOvuh9CrINcCKCDpdCXA8cpo+L5Or/0pcWZul/8hXZaTkIzO66CeNQiQg9+hN4tzwMZAeVUlCarl01Dwqr6z8gqTBwVufbNFn2++VfeGGTJeExvKSsA2ep3AO0xofJFF6zTsIvJdBb5K0oH62FKmFmh63bF1AoaZIg82wmFdxIkT3wGN5aKGO2QsVyDg0WmY0QU4DspnF6j4lOyflhrWhJy5627FETOwe7mzv/WyHS07jz7Itj8DrbQRiSS/cXHqVn/GOO/V6X6N0TUQHFZpjdXXBJXKg/bhs9qwLmxYMh9znAuJ2OREdcypMAdMRSeNNakFJSK6Qnp4eyfEER23bepOQWitTXeD59U2tiCRYFVpkAaTGgTa2bbICOjGP+uAkMFwebiOyO2+rvNJ5LOh1oBBRRlJ44jnTQWB0JVRFSCKcj8tzdigSoUlEB0j+pB0WXoyYCcojJxl0kgQTkgXRb+RSgYfAyjRX16OS6W6Wsbq90rXmh8AerZLx1l/JSP0TMrzyyzgFSI5pNsnEsRZJbv8vSZs6K4m5u5TQ0mTbM0ivAAtV/AF/86EjQVOI0mSqdEek8kVzwJia4BxNbEVPr0XZzIiIcmxe6yDFUx0psjE/EAoioC/VFTtP+XxPNCQSGUJ97kLaC2BdDKWYGO2a164ZAJbAGptIxEypOGYPjqV1DydJvid0y5GiB+H6Mldn4UBjsrT2GwnOaDe9/PvlEbjAR4DqjlR5jGTXFV4KDIxV/07jYlsElcDf1jwd991dlLkBYW+vpCemhz2XDIGOpMB3xhTAIFkMjZ2FC7gkVxIWT3eWSqmNglLZDf0ImhcCbi5Pub+/VEEcBvMfF1uG4mmKX4T3M31PdsckM4P0woMKlHgM9MCh7JqinfKH1pnloU7iCjwbVGTANKYUDg1ZgkY0Lo5ZiVjYJ2biB64ruFQ5QuGIjezMh6aDwHsjtwR1DtIa7pWUXERQJkax0O+TxOLrRco+Dh2fIcnt+kdJwDhNNvxaRWUSK94qUxCgklRoZ5AVMTlfJs7+UKpTdsqZoj+aMQQm3oJj61baElY6ONb5mdEDO5hSY1Fe8w5CzwhoPVOscJh+eedCCRz312Y7gWDFAdTpLjTYjI4Q1SDHEQ2I1bQSo3l8FTkXDAZHpmZuWh/wgukgEH9gD2PF+vJF6ptm9bJ7upHCg2xvHD7Oc9WoGrFVd2iSkVjHY/m45RG4EEbgmtX9UuUL3gWb/boib4eMDQWztXK3Rya8oyNV4gUbYLzGNn0jwUA7sw0FugO9cTZ2xZRHZil3KOMiSCXB0YF6ccNhYJnj4HgWzrOwBlwoa+qhOwHeApp9l21WDHCR4k7d0h4A0x9EhpT/APxCuDTDDSWXyxPNFrbCbivcZShntLQPvJOILoM7og8MinYjA+MxgBXtdm3BbnCRhC+Tn4TiInFGKRA6YvTYgb4PwInyecHCCIeKREcJSFnkDt+PMHeN+IZ6IJ6UL46ULEksvFkSsq6WkeNfFBlGFAbVGF6kfZzDZyR1xXUyheMTnOky2fGSnE6olOqCO2f0Lx2YiY3T7JiKrhrYJ5PHIpy+hdkQ1yk6UWYKhePPc+kgvuYcBDoBdAq6hp2IFExIGdIKphHtP+xLkjxgEZbCOLjJKS6Fcl1sGxxLlOMtEN4Ymfkxp7kn5OpV8YM2+9BWZop1L3rhjjW1MJf7j+YkhGqbL/Wjpy584au5jMvyua+/EaDjzm/qoLGz1XdZ5MqXcic1CQI7YYvMxyLNScKO/UVQ7MZryaA+3pS2BjC/0NG4EURBuXOmwmE4S0l2YSFMk44O4AnSx6R3yCXZAE5q6+rpUyDK4Hw9dUbIf2BtbDSIjxERphwYNWAJoN6164WLEQRGEux2fdHl8mRraAeBx5LjoA4Sx30T4Yns6ES0+6wyTdMiOQia8rilrcMvKR9qnDLq/lJcGUUyNOCVwXKL/pjmqf1bydz9bTh5fTKKaA4t7/DVKGH8M0hco699iJi486TPVyQvpl8cJKJkynfrfnTAmbNHOmLZxHGetZO9mXwYrwkHoRdiRnQK+EpVZI1FFA16tdkjl5TEVksc70cV6/ELDVYM149znW5Zk2d9RF1DDjnaAj1zRAQuKR8WYglma+cRYVidO+ZHy8by4s32WoHzMPnFgKa2X6djKAkEU4GSqbn3Y7mF5RFYuBG4ZQMZ86z27U4Cd3Z78neCpS+wMHIyJ42vZuhjXf2+jv0x55vNOyHgcWAgPEV8LnLZXORDGRd25robgSlIwYYoC6W7eoEiAr+lrVOFu2nkFaJToO4RjgB33Bp7wPthOJu7bcWTQEZHHKcjsMQl8NhwYMXksUrJ9gxLy3hw5US8T0yDFc3zmNYhF8EYrk+dCo0tc6FajX01eR3CXS+79pOSlLlK2tM/JFO2ypFCgNqTHC5prT8oee3/ALwByNVAgDVx6tuStPZD0jcMFsr8N8sYHKMjcJDsVNJ8BhwXUkGrSICNwCnaPK3TvRSD6kfkg6acBY4/2jo8dOrCjCAQdNiJBY5cBnQISLsZj51HWc3qnIXFAUTqj0KC4r+FTjOYfSAQZgjjxkjBfFs32BxzFllG27qHgJPA0qNwpVn2+93fkCxtA8s4hfl+D5bbm98RWJc/KqunHXrdMpdHLgac3K8u2Cljw8GRUDuJD3fnv2t4dlYdK3UWQPI3oJg4o5EwQjZ0aArycuAEdCipYBL/aGvD7l/N1nbaZqMtU8iIh6ZTB8IoKaQDofUPdHkxnY9QaYbh/lK5aXWRPNcRLJ4W74BsBw/C4eFT/tPonO1MsySyLXrpJDhCKPvDf1xM7XM7RZ8Y4RiBANUA0gp8fuuhiUAHwYFURWvKTPzAFNotGiH2oF2lEwS7+bGjXxf3ts+AQTdPxnMttdlQz4UpDFaz6H7YqyyiOQdsk9EDexkmSa0IVGxDRKVurHHpHYQznckCmXNlfLHyPT7JmOMidxBRhIuNKALTEv1jDsiOwgtcpPJHEmQMjc5dwCnWF72l34lSxIVLq5zpSBZOaItt/CDPjNZK/3SIkFzy5JSPZr+v8sSFz4jW3vLvl0dgvkcgFCZIX+PMSI3syN6I3XPgmyaITwv18DhO7gfAqDcmsxdS2wP1v5HR0OdzJ5+M3fIYcuraiBMoKcpXu2odIeDvhoaGEQUY8mMV7MRB1KshZsIyYhUCdMLcsRIxr3fAdBCGIW+sFz/W5XeC4pgliCdHzgU9Bu8oSMfcw3Jx7no50B0Qbor3WW1AyWANFsSxKWssyJHA9ES4VGenr0eqx+ojXoYAQhVByN0mHa47ZNJV4D/e2fu8ZNZ8Thyb7pEpH1IKw40y0lkNCuVbpWukVCayr5nBqcDoi+aHsDsoTM/oSAIvEquDYDpjFlCRi3GgtHTJUwy9ow7JSg5fcxvvg9bHk1SoBXLPPkQhVmVDtQ9gPko/kythyyKUQaaTenkRwIr6fht7XVKWNfuJIpZxroWAVGkm6FgxjotpmhWM1yR72uYINdxmvx4Bb8Li9nQxR2X5Wq/lEUjHJuiqKJgg1vlTvKeXO0UmEZQyrZWPmMTuczhhWE4OB3MAxDsmO7I2icOH9G0YyVv7bp8LCBd/bVy0SENMcJwDWgoaKE6MBCsEdFjeigSQndCK7OmFTrdjjxrwPL/KsRF9CBVFGB3Kl415cCrGR7Hz7Yx3CNTxeY5sqXSXKgnorvFe/OnBImtFrskbQd6BTKhFduN3lIuOxbSDMD4EnELhdhkbQZTBvUUyBveCw2FEEksQIWAFwbmfSmfF1ySv7h4ZyHu3jBa9Z4ZjkoxUC1kVLcGmYCOzoxskVINQ42SFSCwYMcW6iPeJ4EqNl+MzYaqnFWPY4G1WF1lyB2FgLEn4sSyUsRwwE3TLhxBV2IGoQvsQwI3T+fg0RBQWypToR7JTecaLYQO4z/RFoJVm9UQ38CBlcBQWy86qCIIFsHTggypFWLQQDGrRzAsn8fHTZEdbtuURuLBG4Pq1/aAjDv9m6tp0JSePiZt5fZMzIBPgwMdbnp/zTbknUQ6YsSlsO7w+0fpc2OmkFORbVQE0li5SxVA7F3RmeqAboM2uWWCyJUZTTWRbDOXr0keW8IFVQE6MnFVMh3Yb6iuXipwB2Zq/Tp5tOSAToKCOx5IT3Nh4rJ1xyiCuRXpnOg7x2sVgOszHot/vuR4CViskeeAFSRl6URJztkiCC+PoypSJo18R520NEMnqkayGv5T2vM9i1c72c1SQY4LpA4YTWHJpmqr2yIAD2T+goi8Uk+pExYnl2ESe9TQxknYQGD1gpQp9MWo50MlwTADjsNQ8CCOoOtC1+fE+gFiOZwrDA14EOgW6HJLnmeWRsbQzm2MIvukCH/9i2EKPo3kPi41JYO3y0RB10AwDarrRcGPMSNJeOAnLtjwCF9IIREovsJ9maJs7O4aPWcbGagYCE4eGERXFf0eGqoIQ7rO5xyuzLg6SOLa3kYqQvxsVC2ZFA6nFGfY3Iw/UDyCCXJcv2+mJCa7UO2A72FIvUIyMZCEPPjAAZUhwMeiyPZY9UrTI1Bmw93OgZ6WkZ9fItoz1qqyxCqWCsVr6lEfWpFWCHRLAblRu8B7GUF3QPdiHtAPS3iArYlqBrIuxEhDpCAIdBG/eGyXjzCckteIq1GmPqLSCr+630n3RXinKL1AL/GT9P0lr8jsC1WKUZ4ZzwF29HjuLxMgCdrICwo9wxY1SoEtHaKKlGPT7lYYSVdJdpwNLQoesxdeBe2yRiqRiuagCIk9L7SBwAl/skLV+aUahcBUvADLWF47H0ft2AGCxkDtYenyn2lJkXcGokCVxsawfEYvFEsLiPZlpBvMe3ZB3vSiKvOuyk7BYb8XydWIZgbXA8uhqo3DHa5pyLgxkF1QLMT72VADlRpD/1zoeXAiOAFw3jv+frd1UeiUW39Al0Lw+uRDs1tTSEZIbwc6GaOcmoROh5ZJ1RIH3wvuawq7/1a4TUuYuRjg/fUZtvsWT4AzLicA+DvVViCezXlIQEbii6GJpHmyXuv5mpGOsCED6VKoUeQokPy1bPE4QGaGcs2W4Q3p8wDhg4fbhP9NSoX2R5cyQlellkupOVlGcnv4+OT/RoACJ4Yylk+RhyK37U+lLvkrS+34rjsq3KPKjyYZfyWhSpfSv+qo6fQRRmNWVIEtq/pm0Om71OwhmlIUOFf9NoCTxGYwo6R1/0Hw4jRmJ5iCYNPhsm84cIzRqDMeHZVVxmTS3ADy5lA5CFVgQNxgsiLN9wWdz3jFgERaDkplhtv6hhSm7PNgIPEXxCNjMFs8x0GNNJsb1cEoWyxg2OzwMhrEQ5kn0IDy4JmJXznW6pKp9maZ5sZ7X8nXCj8Ce1QMxs706EdrX3Phs0c42yN2sXd430tjzeL3D18dtz9gozgnsmg0cAnkQKsuK/T8zQYnEHIRjFyRRXD92/9rsxEgmJwIvp3aumB8PDEBO3ap/UGlEKixWppQKlSt1vzRzIXe4zd72MLeZIMMDxZKaPp1DB44jzZGqCJOGJ0ZkYBKMjsAqUAXTO5INR4s5e5IYurEDd+NaYEDMqg07hMSFlLoKpSIVQlnYyTPdwbSH3VgBkVYPBkU4EgmeEjAiFiKlkC1j538B0OIW6fXcIeNp29RpKU0/lOwdn1cYjdaOHpVeoNNEoLspGJWDyEoXgJ7hKhfYVhDxVASn0WS0tYNfWaFS39i8tGJNJ9tTZVNBZHGShZhkuJvsAA6BktCLYWlAHg9B+3w+Sx73N3hkazG4DSLkMBf63nrAsJgdQeFxIa5PspNz0zrz9vbTwb2+ERzs4YyTAEGLy7Y8Aks9AreAGCka/6nixkd+2cw7EzA4ACCaOZccGDzmX1i3pqyTYyNnQt4eQ+7jwBJw8UlOsrQQtBUl5qsFT+kBYDfJigM3qJNpXKj21eyXa1dZssLcvbIP4YypB4bLdUUC22PFAvUbrPasagXem9YtOI4+h9uNX56xHTguawNEemiy+00lQK0X+gxhv3Us+uPeVFBAhyZHmgTugsBG7UTY2xnoXiXpOdURX5NkRC73lO5WJYG00yPnQcZkRWFSAaS+CFUome3fk6TKu5BOwKIOIai+Pi/EmT4shV1fl87UO2UiZaU6vqDpr6Q57QNSsfYqRRKln6+ZkuFxBCN6oQGhnTOLPZHjHXib6EzyGXC8o0URdJrBvA4FmnIBQm3r6FZ9W5IIAisKEvGQl4ISuRpI/FU54ekzI74Vs/ilkoFGDS0wvLM4O/QpvQAJZk3TS89bo7NoqHPQAR34+a9AidSV0/jwBrELCGU5jixZk1wZ8U5eqU+WdvR72ZZHYKlGIBL+QFPfqjp3UvX6d/WKPihkl3sg2JSWmKooc08Mn5XRqcD8NgL+f7useKojmEiMzsgVWTuUmmJRYQD8e76pXk56z0v2VCYqLi5W1zYXsHDjZ1c6ZL68CeHqYrRNp4DpBGIoaEyNHIyw2N9YdoX09Qa+d6Y7etBGOOpl3aepSaRmECFITPJiQUXagKBFrDlwgfAzzlmR52PvaAZIjLAYO8KDExlNuG3FNYqKmkYnh5TNu5z5klv1Tkna8CkAA0ZksueodGV9UCZA6Uwr7PyqjPeeg2jTv6p/F40+KKN9LZK69SvS0dmjqhVoJGlKcgTUFfljSmZrQStLft4SgzJNR1rMaoYR8EwkYPFPBp5EGx0EsmFSL0K/Z4X5OVLXALGo6eOWxEFYqg+T163vdSvypcU0DnoHlM7my84gvE/MwVIbKxqSwb9OZ2+xjC89S5nCacQXg/ylHDnMSEZ9iRdql9kWF+uZLV8nMAKmEJo5LsEiZlNKRZC6BGqhwOelIpHYvYcyc6doZ2Pkv0cQUjfNlegEXingJKePeuSa9bv8O1GC4PbWPyvQMVSnvXHlder/qcSoIwuRnilLFBk14KLjQNkdQ+V0DPQiRJAlFyU6B4eHTkYEWaYg7L8FoEN9LhdEtUsGcDkUNfV8vmtTU4nANJQj5VAXsdlLs7bJ8NCopLgxp4w2SF7vP0tCGqSYHWBFrPquqN8PxQAAIABJREFUJK37CLQValWKIcGFElGOvSozpNNi8Q4Qm5BY8afKmWuHk6DNXg6qQYX69/bKEf58AhEEqkwyesOUTyqAl/YINn9Hp42OqOba0NTZOnrAtpbMQWAUYTFBdeYTPtSCksfihcEFhHqTxgEocaWE5zSP56X+Q3W6XF45uGTATntfiYO4uGzxU0Vq4sR/zEW2Anlr2qrkctQ1RyZTYtTy0VPLKYd43r3lY+c+AttLh0MSmulwLyduUhyb5YJ2pkGzF6HCyNVYpBhVMG0YADxtZprh6rydkpUeUHV89swB6XUGQvMXJW+QiuJiRYxENH0sxkhEWUmBClOHTK2SO2GsXRrHW2NpTt5AJUsswOqbx3frcBDJP6U0FmbLexDThacP6u3YJFn5ofFPup2CxFzZ1v0zyCeslMmB85IIp4YqjBMJ4E7Y+O9YaUPM/0pki44CnakkSTp3rxRc+S05X9uoGCrVAg3fgc6iFsuy6ybYqal5Dqtd8vAOpaJCgVZd16iqUKz2EmQUjmZGWhrKIonBwDgiYkDSK0Z4GppbUTERwGotmYOw0BUE0V6A+j5EEjIXL5Iw15LHDoTF8xc5nB9tDPXv63tcUpG9OJiOSH2qG2uWznErd7YN1KnJiZFBiXQwnjqLEjKU2i7b8ggs9AiQGCkU54tZ0qjL2rhz7OzpBVeCxaVi59lnX8PlmCladigMoFffY85kply52kobmPZw9TMqx09LwuJ128o96u/NrZ1+0qNw48TFixLUBDHy/1kGGc7S01PkyZaXYhryq/IvBqBQV2lMSSG4GPQuN1qqIdoFSsBuWOYqxrwBZsTR8MyIY8O5Moo/kxPJ+OPC7hyjg9RFUhK0gZDGePv4X8oDv+yVuz8EPQVECHzVv5Tu7Y9Hu7z/93wHGGk2rbq6WjzpWTNIpTxM0RjRJF1OOgasW0VZiWqCC381HQ3QYId7T5iSYlVJMZgxtZnRA/5syRwESvWmgZ9gqWyhGBzD3Q/Lf3yoU42KTgrTgKmquFRjFum6SxkRCtUv7qLIjMZwaiSjk/Ai0g3kdli25RFYqBG4cuVgyLJgTYikJ3WLD8B6Fwk2YzSBnPt2iyblGw7Ex1TGG4ouUzgAfU2WLHIDw13kq+dPSHOiVSFwe+W1Ku1g5sUjjQ/Z/MamqaF9ANOxJDGcsd2X+g/HNNwpk8ly/arLEHqn82/hMDR1s877x9SQ7SDyFISy4UkwVAJ0yDGOZolIdWzrHQRwE07U6ZfkusuRAi0A2VEMphgjsKPXVSXEDnzve9+TO++8E1wQWbJv3z7ZfjFTP4mImASkuXWKhpdgtKAUCzyBi3QKWlhhMp1eIJslU0KRHAQTe9DY3DbjmS2Zg7DYC/TMD8wCSi6mEayo6Tvjue7R5hTZVhI/k1c815jrsaaS5Fzbms/zY5WNfni5wmE+h325LWMEuBG6GqWNdgvGHYhyBkz1RF2yxjxzV3evotGlRXMOeEyrt0OafG1BlyxLKJQdKwKsieaCMAyynJWVper439Y8LRm+NNmzbpfK91NKOBYzmRJ5PAmWhkHwFMoYbRgBAPBEf7C2gj6W0YstnrVSklOogJGlxflBuXkep/EI8aYaOCdc4tkS9ZZOonyRTIrhrBB0xKf+9T7Zdeu7pHTDDnG4s6Wzf1Iyc3MUv0LI+wa+o6QwX+EDiMMYJQEWnCmSM2kH4fbbb5czZ85ITU2tvOVtqILQ/BfTY0nHkTv/0pJC5WCQfIqOgQlA5LW1hkUk6mWOBftQWV6sIj/28tUlcxA6UWqYB2GmpbTFYFM076+oIEfaQakZrx2DbPNW8B1c6Nbch/LRzKV9pqHGKBYn4SVIRHdCKnrZlkdgvkfghnX9ITFD5ntpr3u3CIYClQssD6Qgz+jYuMpLR3MSuGvU6oTOKYe8oewyf6khSxVZIWHKRlsLSpZKIzxSvU9uX2WlFmrqmvy57EjjovpKVP30TpbHpqexLDN43iLXAcGJLFmuzCyWZ9peCWo2MzFNLivZLr0oHzS3b4m4aY3u1yfwZ6qsEtdkxCRaWR/PK3blS7nLCsNHM/ImsAQzlO3sfVHqqvE8+nvl6juulfPnhyVt1eVK80fxGKCs1L7Y6miR9RwDKVlGb1gJUXP+jFx22WX+yz3y6O9l5y6rvDSFYkzTBFl0HIkv6EfYgtUg9vQTnwX/5CMiQXVNRqTCjQ3fQeIbyFdhgiN1J5bMQWgdcEpR+tIuJme6UA2Qu3jVAAQrJoJZUQNOor2g+vfLDkKsIxX+uFichOUowtzHebmF4BEIJ8oU6n1kDTrJdxQDK/5OGWUTGMifK5VEUOwy0B5NlIeL5lrXCtlQatXbc9fa2NKGsLNV6mZHyI+NjSGHXayY/cjYR62FcBEAfZdKDwBkcF7U43NHnJXhAWWvtevm73SYWx9vYgZyHNAiQOjcm+CTrQD15aZnShvSCOQ6sBvbmkBlhHOaT0H/XmsR8N/R8AgkUyOpWjymdQn0OUkAFl490Sb7HnlBRgb65fYPf0ZGk1fLKEL92qisu31lhrR1dQVdSkeM7JEWpmPoTOiFXj+HugaLrEiPJStCssFRQceopY0L/8wNDUmPGPXRctmaqCqSg0BMgwPR7T6ocdptyRyE5n7XopEVhXshFpsTgf1gqKylIz7FsWUHIZ5POvyxZr431FHLHAnzM87LrQRGIFT0INx7SAeAWCViARQhEpphuWCSsRAo0iGUP5q76VDRBC685cVF/o5Qx0DXz+sfmvK++mcmUI7YBFqkDQ0Xbi5YWhOAjo1vusSR57I9E/h2drQGaoha9tnCObS2EwCJ9KuiUg5mjuSYkEGwo7MXi1hox0Gx1YK9cQjYAfJA2I3MjNRssTNIxvKeNgD4TH0CWpaMiuvAISlee7E0nDoIaoVRWXnTp2bwTPBYL4CMjgQAGG1kP3QMqTFhd4J0FEE7A6wo4CKvibLoRJQhpcD/J/hTOxMW8VSScswYhdD4FToEvJZOw4RzJvkuehGZoGN4QaUYFruKINTL0NTnUvLFi2nAmyhBk3hs2UGIZ7QiHxsuktDS7wCIbFKqu5xS1zM/Janz1+vlll6LI0CtEoIT7RYpmpWNxa7H0EUgh4CdudCuksj2zQXAgQWDdLlqocKCwjCza5oZ0d4XO05ApxnOnq+VjIwMyE0H9yfUc5ghCY35TbMfUglSCy5R6KjZG4yL2J65UVxYTLVRpbKPiD8YmQJpdDgimWZnZJbDjkfIBXna6ijkaZHapvN1YOiYrB8FYZRroxx67L/BwIg2d98g7oKtShMhlHoiHZu01FRUGwSnWHQUgU4XnT1t5C5gqkSDBhlloAQ28Rd0wkoARCRBFFMTZkqBVS8sidXnUXXy+PAZ5QztApUzHQTSdRPnECmKoMitWHVik/1esghCTY9bVmYvXplhqJeApZZJACoutlhUSopLPbBY7fXsIDT2wtOGyFRRRuzjEeu4hTrODgwbB1D5bKdbNhYE3sUzHS7hn2VbHoG5jECo6EG0VBcXlnHupKcrGbiQcBEy+QTUzp87Ddtkzp9zIdHW0tbhX5zD3YfJwz+CxWxFhQVUpBYDd+U67RFpHBj14MKl+2hPXXA79PLgkZBNpEiybEtf72cDVKkTjEEGFr5gJsnIT8JFkSJUULAPh4ZOCBVgN6SskgyIPs3F1E6843FEX9Lk+LOPye4bb5Kp3J3QcrBC/3SOGJ1hlMde9VCYi3JMW5qB5/AdCEVwZPJdEFtRWlygcAYZcJpa2jqVY5DmSfZzQnCcqcBIx6jd1yW1Y41Bt3pxymZFGEkZaIpxhYsisD905IoBnrQzZS6Zg3C6M0XW5y098G4p0gx8YN1xyEC/VhyEI03gIC+N7ZmSqIiKkFkps1ehi/fDpw5HG7AvXjiGjFbSMclE1CDdPbOcqbbbKcdbgznr473e8vH/c0fADQG1NwCcaFq0FBeP5WRPcJ8W6eFimQLmwdHR4EinuQhzh0kWvKxMS3VxAIsGwYEEHEYzK81g7dSJojcdESs1QMCbRbATzpjzdoISWEcNLD2GBNUuxZjaBjvl2ODM0L9u7/qiy4OiJG4qWMIpiseYdiH4r286NcPFmuM9J0PEI6XrMTl6Ylgy84pkpLdVVl33YezEWVKIagUQTHGBNtMD5i6dmIHqjgSpyAm+FwvECNpnljga42rKY/OZMs1Aa2xu97NqspSUpYt9jBrAYdDvQSjRqJtLr5om3JpSz4ZOZagogt40MR1kL3WcNwdhZArAlmmvKpaHMjiWJGnuxVscIvWpCXiI0kUSb2I/FBsW3l0ztxipf68VB4H3AIwVXsTob0AV6KI3zJEumhGgxl6nythQ0TITId00/NFTGVHQBAyREpqlZmaUItpOjnfQOuCQAw3WTmHZlkcgnhGwOwj2yFWotpjLT0NKgYu21irgcXa+fH0unQcdftY/C1XLHq3fmditE5hInYP6xlZcfxwlj2UCpV9V+UAMQPe0KFG4ttgGd/w04giS4bCcaj8PQblk6QIJEasWwtmG9FWSNpHmz9dbCo8WBiOaqWjDtG4Fj2XIXYMko50b7vcI/ou3u0qGOhqlp6MNLIpF0tXSLKvf8EG1sLMkkVEejj2Nz4umuAjwnxlJyM/OlsO1g0hlB0dIOf/YpbDZhguRCAJDGT3Q1gCKa50i4v3SGdJpFy767AsdDROkucpVLtSmYdSB53hQ9cDqlXDVL+wPo0lMa5gEV/PiIFT76qVvckA8CSmyzgUO6hhtscsMw3VrAM6Kx0Wlsxg7Pg+HlRTlSWtnMMo1XLOn2pJlY+HiVVvM9vb6EBHgIh3NmlAOaf9gop1j/z3LiagoaWeXpFPQP5IkJOIqQdoi3MYnlglbX/Ppc8glor1lWx6BWEfgxvX9QVTy4RxS7rZJq8sdN7EGmvDGFOHhQsSF2sxZ8zwi1FltQOsEV4HewcfaR30cqZHLSwtVmkAv8txN9qBawos8ueWIYAcawfMneI6h8MGJITncfQoUw9FJhvT1HdiR786+yH9/ZlQj0r3wOIbqTYdALaAkpYszAqGvw3vc/+//W3bd9g45d+iAeId7ZdUVd4ozq1KNg+KkwLiQs8KsMDFxIeYu3YMqhLZenyRjg2JKC/B9sPNesA8ksCLuZAi8FAQoMorAZ2KWRZqSzjxHp4HOjFRL77QjdgOiMnpcNPiVfAlhSZOwY/Wp96DIn85g23NyEDonuqVhvCXoGe5wI+8Rox1vS5UthUvD42/v4qmOFNmYH1t4PMbbi3wY43ZJqJldTK9kXjoeuZFYKLTnShtNJ4D0zpVzpHeOJeSr77YF0YRXl6MJi/AGvfYvQWd+haEYG8o50NUKTCUoUR0sCuZCZy+FM/PTDG8XFVjhZy4cnRD3sZf/xTOKdDS46zfzz9xNctfJ2ngFuEOu3Yxq6PbpgNPBOddXL/XDzX6a5niuz2OvL0aaAZgHbWZEIlRbDMcT1BfaEdAMCnHu+ECKlHX+o/Li2Uvkmrv+SH7+lT+XN/zpP0mi2yrHZAqGu2vu1vnM2EcNIDWjAeYizOMKQZz0wplRWZsf2ORxg8LdPx0vnWZgeaMiP8INa4VIDRo1K0G0OqcJaNTVDt3jvZLugNS1BDBUjECNIEUVqSxWb5gIViSmQjubs3IQmE44460JqcIVj4PAnDC9qgjprXjfszkd3w0Z5ZxFlFFWNcPDF4aDNKeBM05+sTZNLl8RXdRlLlGE+WRtjCXVYI7N6XYXQI3LAMb5el9eb+3YKxdMJ5SLAUFmikWPBDfTuX+OwUwwIPLGyNdpfADP4Z98COxwh0wjex5BjMTzzNZ8qN8vw67RnprQILna+iZEKVJCsiJygSSyfiJhAsDAyGJG0fq3IqVU8hJy/Ah9VT6pNk8zF3nusLkgRsJFMAzPyEisi0ti/37JHvq1JGZvRc5gWGraVknOhusVvwOdAzpsfB4sPdTXncS/JwFidEAvw9yl2xfiHFSDsDKjptsRpFlDLQQu3lRTZDVJOq5hr1SYxLWplWAvQTSrTxQNMx0mRAH0MwmUQQZSEtGIpDgXag4G7SzG7SCc99VJ/2T4BSAeB4EvTSc48PNS4wOkRHvZZvv7DrA75i8iu2M6pDjtZTCz7fuFcl5ttzto9xSuX3WzjADMNx4jnlSDvpc2RBP2L0cTLpRX7oLpByuibtoQACba3y2Gp03ZY9MpsOeWeVNauIl/Z8lfDsLatL7+AUVKxEUg2k470uDwmkwltBIhP+2sqNQFrsMQN6MczEl39fCegh0WtmtqAujKgdk+jISpBLk8e0dQGoXU9KxMMMv6qMHQiXr/UOJV9mtz/IidiBSlZU7eU/0FSStaAy/NI1Pdh6Ur7S4Zh04DF1QKZeVlZKnoCceLz4FkVtpMngez3NNcjAkqTMaf9l6LiMjtmBbDYvUAFvciOAB0g0LxEGiwopn+scYegk14RtpZYRSIGAMzFcHj+Pzo1EQj1eKx2pkl6LK7t08pZsbsIHRN9ki9rzni86dHdJF7Y1zvCKsZ1uXyRuM6bcEOrkKqYcMiphoIVqT393oxL6JCBAzGYqcBVFyZOxbz8cdBOb1lASin+d7yQ+Ouw4NQ6iBywczXRdqhjI4nyBNn4mNli2VMlo957Y7AtWsGJMVpLR4Es+VmZ/lz+vyZWYrHf9v5DBjWN8P4DKMzBVFRVuRfEJta2v1kOGyDCwgXLjutbyyjyN0rcQNmasHNckHsmmm6bFKX2JkOi/49yzFJ2kR+A/IcxGueqRTZWbxFfCPW92b/7nSqRWE1kPIYZVQgDovkQE1M+iT3JPAFa9/DByZjNQ/I06V/KROJlkwyjSWY7km3fy6gE6BIrKYXLDJF6pJUDRpVpE9wLrSp6IISrkqQU62JsjoPCzYJoFB1kgKMQiT8CJ00611JD4ryWKJerKawrsJoRqIdI0JGTjhZ46jljhY90H1lFEHrcii5biBVI87mCLDIybGz+N/o4LOSpAIpdATqcGN9jkSZjwCRnnsBRBIWu6KBsqjt3ZZE8f9EmwDY8Ax4CNbAUYjER3G+yy2rccxCGT8MSxQFAjPcncFnY9lYL3Zr+iO0X5uh3UdPpS1Ul5bbfQ2NwKbCEanMCZQiZmcAPIecuhUqtwCu1kLO/LV1Y5zkGbbWKQMrt8yUq6XeR7EdjV4npwF/rhcmLyh/uSt0J7gs+mWIOcVjGpho37VqlUTdFnfIFGtieoQ7cfbXdJxNpyEa1bFuk9uhzWlrpDijUI2PSQTFBZjjZu76mRcnFiJeJ4iLoqpy8HjUN61NVRlAFj6//V5JzIP2AY4brn1Kald/VWrGGoKGkWRDWXCiCEjkfbM9yzcIbOoIbOS40BThkIq4BMtxZyPNwGfKCgjm+KmTwPY4/nw/OA7m/RGfwPdCVR5MEyV1AxxpkkbZHTa7g2lGeOJxENh3RhFYWhvRQajxNUrvZHhNb3Mki+EYFMFBmIu90pgmu8ui56/nco1o53on8GCSYkfgRmsv2u/5mk0C8Rvvyx+t3dfa7/l9nWoHULQA9du2goEWcBcUL7Buhw4Hm2AwjqGeEIg4JnDIHtpcdhJea2/a/Pf31o3Bc6QHOfsRLEhcANIQFRhEeFqbnSDHvrjz93RK/UyI2DETNW++d6wUOAU54mxoGawBS6AXOALOH/HMIbwu+RLs9MvcEdMj1lLNXi9L7grVu8+FKhl1+F5fYLNIR5ohd/bv6HCVjE6Gd+KzJVN2lm2WPsgja24FzeGgoxYcJ80OyL+TM4YphUjRvFBPVO3m8Z9aqFGJQQpihtC5UHpq75X0AhBCUQreNyDdvhXizQEBEv47CJIlWnKCG3LxJZLpyPBXL+iqBa1voK+rVROtf4Poavp6/JcuK8xMQxno4KCk4d1g1KYN9NKq1n3aNKaAAFT+3o6xoKPGezIFleiYEKSp3w1GG8znqXkVYnUO2BU9D2qFx7AOwlmAEAenYgPQbXdvmhXPtf3BLnXZI69PCehYSvXmc5qh19kzEL5OeD6vdaG3xQX3WEuqCsMpLnp84xS8WYwsTCKVzfDREZgUrqSLuwfmaFtaO/07vx6UVT5fEwhLXkhjzKgMyz2J+Vi2+R+BPM+47KoIFrlJRD6dJDY0huyJINeTOCd08p8o/QJYIjYHk1PWsQztUnZXH2vWv/P3ddAFaPd1qoVM227kyml6IY31Drng6NSB/RxzwdM5cA1WtFdb8FytTsiFiAJRdrs8b7skJ7pDVkFYY4SdMvLkih0SxoUwF9GTAYgH+aY5BmK9L31cuEUx58Dl4tr2WZVSmKj7b3m8+DOyPX2XOk05IRja0ARLAcIopo/Ujn+aCpoifEwTawdtJksixZNGpaLUerYUzOoZdUlBWnDwnlGFDkRKQhvxIrnSjBRT0jTLJo8zyZVUa4pjB7wv045pLNgD+/U0cFsRZ4VLMYxNeeWkNzz7FRvd4lonzoT55a0PCJzG+0rM7fgjWJS2FcdGzjG3K808m6GgUd/iakLM9z2Y7XUMAuyZFl+ucC794cTKj5u7BObl4t1tBF0bDglznX3YXZEJLRQYijsEziXmju0EWBdrwL54oRirg27ZEFi4lkmfFubJ2KMHnFztVMMEtpmhYV3/np8ONjx0q7UvFWmCbD9bHnf2xCLo97gK0YL+idCR1W2pG9Tia79GuLulg1JWUqAqIMwqCvN4e0UF70fxi0xXDpDzQIsC8TwrL2/hyHSaocJRIltL1yKE3qmOjYYxs+s5zOZpff9Mg3yn1yvFmE9bEMHJG+iWp99wsb+pgrqPS2LxDerfIwf/rzy19UH197SkVNmUsjbqJc1SRrtDZkpb03mg06OfOTc3+dDGGAT5U/+Q9U2+2pAql5SD9wLvi7ZxjCsXd3skaHzcBxKrTAVMHAYdtimhbcexkDKZ85clDR2c5oh6g9MH6D6p6ohIGIRDY1a4xW5FSCcUzzGdEK6z3EEuxm5RX5+ljW6kFDwgslgqs8g9qNm9dH2Yz3s/CsrlbTFSLs/mukMACRUX5CvWuVhMg4faISU7CGeCQMRw5kkm45ilwsZwK/c0LD+i9C4/uC7kevmsuCvUdqoNWg6FY9IF4qYXay+MSMK1a6BPb3un91VD+Gd0mfAplncmlmNygJm6tDLghGkUuPXuTOsl8P0BdbI5qbuSQCqUjDJHPIqmziQpKyvzX662nhK/LoUgp7PLVMJAGOdAn6SjCGNYFKgEGcmYp2YenAI/kYygQL8yIJgVS4oK/KqM9hC7Bsy9PGDpLZS4CmVjzqoZIlPm9awSzsC7yMXX5ASIZfzNY87AeXlLlSUE9ZWN5fLFqgZV/nkXiNvuzXsRaQviEbDgOTPlaPMpach/c9Al9BhGuq5533SSrHnbGm8z389/8364cdHaFrUNTeIyns3AGOS8QfFur3QxaZv5DKitQVVN8lTw2ZFzwows8RiCJM1YBNNALJ2cTfRA3792EqKCFHnCMGQta8br1c1sckX3tOJ9uObx5MovXOB8s77eq00euaR0pgb2XPo/23MVCUdvfECj2V4r1vPIMHm0OQWhMJ9iLOwccgijA1sQaeHiE25X8My5dCGiez7Nhxe+srzE36TStm9ulQRMMuFyr8yj5WRmKgSw3biDmo7sBv2qBI6HSUoS7R7sVRtjqG54fImrG6hKec2q0OnBh08ugyqjPdNov+d7f8uGYNyBfaIPWjAmAfZKckuOB6I+SGFyMi/8DXhkkJfW9pMVmXLHKhcYO/FnzB0UhTgydEoY0Q1nF6duFr63jDiEene//0/f9tMBsw1GxT7+p5+OeJucj8x8t5WSCIg/ZYN+ucegX2ZYfW/Tc3JR6kZxJ7rghCQFYRX8Cw+uTSDkk+frVNXQJuTbFQBymnyIk8rHn3pO/vmGq9XPY7XPHTsnD8P57bptp/+UDU8ekY7ebum49IwCIk52vCR7M++WSfTPbrE4CHTYWGWh00N6jOgs0DEz++tDRLispEjhPCjt3N1vESyZNupLlGRUvZhRBDodlIMuhUPWDMfAlLjWVSXcpJillh6WPALMqE07CPFgD+zjEZeDEOtDmo/jXqhPlysq5ndxCdcv0vWa9Jfz0f/ZtsFdx/hkwGufbTvzdZ72cCO1d6gxFeJMQBzbqjRPoXxx4xx1FvR1qVW+otxSmDvdUCtnfbWKre0Sz5a4bnUMO34Cs+iBmx8qP+5mTHxkouPOih8bUdSx2sv1KXJpxUwGzkdQ3RCu+iHWtmdzXBJSC7caqQV7G82QtT7Y+PrUl+BrGPuSMpvRZc4XXAegUbZbUX5eUP5Y5+V5XAFSCb7EYnFOtqh3Yv3Dp6XbkyM35meIi5UB+Nnv23qk8/pC1f+OgXRLWIfIXePbsnMNpIhbrqu4VCHhuZMlWJGLvxn+5/VdjgTp6OiQtWvXSk1NjeTl5SEEHZl7RqcR9LdC8Fwuvh/eAFMN4yRuQpREpymmWJqBBdD8tswKDvZDp1a40D7Z1CLXlZbIva8clHuvvUKaQCT0sd89JWtwjVZECNsQin/oztvltgd/K5sQnv/N2Wpp+NQfq+G46xePyA9uu0H+bO8z0o5d+i/eeJPcc+SM7PU6lIOw9emjcuy6bZL76AHkEgaUgzB+9CvSufPgDIyElkWO+jaoCpSAIJU+njv+Jo6/KmO0TAP8iCdgCSiNTlFHdzC+4GyHG+yKFqjTdBLsLJpm3+io0czSVM2JQOfCgfeJcYm5RA/Yvo6GxRRBiDp4r9EDjrYCd1AU+2Kw0LeZkw0E87QW+kJfK1r7sbIVcsc85AWJC8Kt/Hs9ZLxZRr25eG7aEXzZizCR8aPs6u+RF7oOB3V5Y8pqSTXqlaPdj/l7fsCFebkqp2dOaCSMYd10rGIvXtyvG6qQJmjMvM7h5mRp6g0O/8XTz3iPZZpjdW5s2I9955FuQJjzQrdda8ZlP4RysqVSUtLF6AUOAAAgAElEQVR6MTFaZEHcXDJCzTVUO6jOtFbJQ+67pZfcAAESPR6LrJCkZLTJisxs6R4dlq6ubLyvVLmzRkC3YYW6rXPNa/DfTjgH108rNNbB4SxArpfZ+QmEeLuxg8tPBGYFneK1lX4Cdsjc6dFBYFRgFFS6eQWVkvvwy7hgkpy9YbvkoGOjOKZ070H5p5UOuQO7TkYRrJLbZEVyo41YhAFUMKxLXiFrCivhGFDlLxj3wtw4FybzvT5/tko5DhkotfvmN78pn/jEJ6SopDzqo9cUvTxQ7161gBN/Zgcsmux+/H0wut8C97JUjw7CM4j+3bqqUr7wh5fki5fvRCWBD6R5I/LlZ19GyjdJ7nvTTVIH4PbdD/1eavv65Rd33SE/O3ZK3rZujfz6zHmI66XJWvBM0Jl4z/rVcgi76g/X9krDzQHMwVfPNMups0/Jjwr3StKWr0jviEuODTT5haNSgN3YCgxHNOOOnJgQM1LJ50PngBEbOoMab8BjM1Hi2ooqBUu/wsIYTAAbkIloCSsZtNnnWO0ksG1WU5nVL+qdxzvFyBTbJ8BUc7coaWykjEiS5E8LGTwM0e7P/L2dfv6CdBAOAzC4HWHsxbALSQ9C0W4SqHIB8CYpGmwg4GPtynxhR1QplRO13aCUHcOO6MmGl0BcEpqDI8+BZcNtRRfCWSO8+zLm8fBBlUL4hB+V4kDHR/jKkZOyZc1KledLdgeknTuAVSAQkbujw1VnZfuGtXKqpg7eeaJsWr1SYROsCThB/t+P7pMvfvwD0xO5tYMKcKVb8r3Up9hfnyx9C5T/J37mOmAO4jWWYD1+Jh1I8VifcrxXmNvxKVj7WiZPS6Vrg0y4W6D+6sIC8ox6dt+47q3y9QNPyMcv2S2feuxRyQLhzGd2XyFbckvlL/c9KnesWScvNTXKobZW+bPNb5ec3C6o2+VLp68DCPJh2ZKfL19CW3es3iCtwwPyQmODvHvLVnnodBXo1lPkYGuL/OS2t8u9Lz8l79+2Q77+0vMy4B2RX7/lZmBYPOLAcx7GO7KvvlF+X10n1Vj4foSd7Kf3Pi03rqyQBpQqtoPk6Js3XiNjSNF+7slX5BO7tssu0BprB4GLWSocCu0gfDk/Rd6+otg/aGYUwirbwyKTlq5y+ywF7MNOPpRZ59GxsJ7r43sflerqarnnnnvku9/9rmzZskV2X3Zl1IdDSmOTo4AhdTJBatEoIugZclcCU5gACJgz+0SuhUTwPjDETmOqjxwAdBCeBZL/ZjgI33zlkPSirx+7eJtyEL724qtwEBLln299gzQhPP+vh0/IQ1Xn5MD73iE/Ol4lH7xokzxw8oxk4nvlt9YO4N/bV1eo9u9++aQcTQqQlyUN90vLHpRgpgfS4u2IzhBIuRZOFstEIxnHnFFH8kCYYGVVZUFnB2NBY7SF81ZFWbH69usbW4AjSQ5KE/Fb47yRgQjmsHo2lpnqt0FpKrRDFkct3pUB1t3a7mZJlzQlrMXrsZLKTEHoNmcTPbA7BpSVVpiQaERJUd+iBTjA9P4XoPkZTZ5oT5XNBfFPsPPdN4bxqP3uZS3yBWAnW1NkU9HiCVhNIdZKmVPuVl6oOSy9STNDufZhyXfkSAXqlRt6rbwisREMA5MTn/Yfv31MPvT2N8v37/8lBG6AL4CC5u6LtklNfR2iNcNyJSamFw4ewjFvkm/+9D/VpPPuN90sjz3/itz9xpvl+VePKgfhC9/5F/n7P/uY/N0PfiJ3XHulHDp1Rq6/4jLsUM6qyeBMbb2889brZe9zL8vaynIodXbL+YZG+dR73iEPPPyY3I5z3HB8OgaThGmJ+TAr3D2I8GT4Bd7icQj/+3OdDqH09nwb+0YSrLlYQUaiDCQ2yVhfsZTnT8hYQp/8ouqkvHHteqh1euWl5gZZnZUj53u65S1rtkmPt1+KsYA+cOqYuuxb126C4+CWIzVu6Uk8DWD1esnPmJKmsUblIKQ70+Tje38lzUMDcv2KlbK7uFQuyl0h/332IEDLLnkLrvN3LzwrGxHJciR6sZBPyEc2r5VWhMgqMNEn4Xmm43s90NACR6RD3gZn86OPPaOuvRUEaHmshkEE4J4rdsqf790HMbgcee+qbLnquVppT86Qquu3I1+fAO6ASdn4+EE5eWkwvktHISicw7I1Lr56oVKKh0Q5hnm2PFcvYseOHpK1a0AlPG1Hjh6Tyy6P7iDQESOynvn1LOxaOxEiLy7MD8ImMOLG9AIXS3tqQ+XT4UQRYEfjv5nCI1CYYXSyRM7FTK6DBERW8k7fLau7/kaGUrDwY8d+/IpMKcIzMK1rCJoKk9EjZ3xzORezj/x+9DfEcSfImSRC2pjaoQoiSY1MhyqQ8ELYH3O7ijQShM80wHTqoX3QAYxXYL43F2o6gWMY/6bBNjk3UqcuR6wEf85nYi951P2JF3sQim7+y9/7kXzgbXdcmA4Cb/QIwv8XLWL4/yQoljctIsVyuA+DuareC4QTgaBE1nkvtJHIpLSoUH04Z5pr5PRYrSI0ISZDV3bww0kG0Mu0tESPrE9ZqX70KvAQ7QC40ugkVEJNLztlQo6cOCTPHjgCEFce0grZCh3+7jffLPXNbfLovheUl/6mm9+MHdYJ0J465HR1vVx60WY5gsjBNbt2yHmI1VyPEOiHv/BV+fIn/lj+4h++q65xO/Kmd1x3tdJv/+z/+45cvmOrXLptkxTk5MhPf/WoCju+/223y6+feBaRkDFZWVYqq6exFC/XpUjHUKC8aTbjuw7KcGvzEW0KEePhxEkQGQlmuAs0Ky7s1+Kxj5yaCeKMt0+5eE9WQF2zwAAYn4CDSdXNudivmx+TLXkFcvemS6RhsFMePncGO881UuLJkofOHFcOwU+OHZby9Az5o03bZGt+sXzrwPPQVPFI80C/nO7ukj9e8ybZWJokPzv1opzr6ZK7N2+TDblY9KdS5Usv/A5/z1c59UuKimVVWrk80XhUUhG6v7KsUh49dxqO3bicgsM3hsXhW9derha8Tz35vPr3D66/Wr6FXe5uLBArUYr26zPVcrKjU+10r6gokw89/Lh8/cY9ct+RE7iGTz6/u0wIbC19EsqHRj37R9MT5NMbrHfZND7HLigIhiq3nVlvP3OktdhPA953M08e6zPRO2gukJoToQltOWypjVDtMW1jxxmyDUvOeG4pSP+Ciws7e5+XHN/TkpC2Ujp8AD6evlT+T/GU3LOpMORtMooQznR4n2lGPeZaz4Dln8SFaJwL3wOKXRVibmlr75rprDECgUgoWS7NXb0D6SWmHHQ7JhaB/TJTDd2TvXJ+pN7f3WJngZQ6C5UMtJbjtt9LvA6CPXrA+9134LA8+szzF66DcBoL9vpFXrAp+bwia0whS+e294n185t5nOVdhuDVnn2TczqzDyRAmVhoF8LIH84JiOH91t5OOdB93C8XS8dgbCKYlY0fjjspeMHRYMUXahDeHLUWXbdjUt6w1gK67kfe8trdF8tPH3pUpSwoYUvP+KEn9skAwpNb162WOgCmbr3mcjlYVSe1jY2yfkWJ1CMEug2/60ToeM/uHfLZr31HLt2+RW6+are8hAWBPAm377lCPavHnntF7R4u37FFcrFI/Pfvn1YlSWz/bTddJ/v2H5R1KyokPwsgL5tVtbultoe56tjeuDSQRl29atAPIjKb02qBSpxlevYxw9ThnuFcKhtCEQW19jtVBCd1uszyZFuy1EHEayHM406Qg/2vynp3IPc8n9fZARBuEYim7GZO4sQaBGreATrE5K/lmEmQ090zgLr4BMn1BFIC+xoS5M6zLMtLkJVjffLIVTvCdtsO9tMHssSNUQRNymRvQOF4EMnogfAOOf81XXA842PW/vM8ViekIArQBxKjUMadsdORiPc/dRpvYEUPtMXi1ETrn7kApp//vHjKMHbYTEyNtkNwqUg2Hd4kJ29bE7ZcPpyDoGiZEdkIjgJY+AsrGkNHDXMQAM2nT5+WvY89Ll/8v58PKjtk3zV+hHOCNpV6xH+K5hlGbQZ+m6TPJs7qmRNj4I0IHK/fL6ad/9B5wI9zykxKx6ZolRLZotnJrkzHKdo46t/bHYQqpFM592VDAMqfYhgVLIxAxUYyLl6ceHSOlcdCP0pSE6AVPjUiKWiBprmpvQlecU1ZE7qqecUcOEFqvBhsKRwEs1sUbVqXNxL0khGEp5W4YriFWR/CXYMJZpl1Q/Nwot27nYcm1U4kxZ2sPjpOoI2dbVLlq57R9CgcBP1B6V/mOrNVGZUDzoILPPS5yCO6psuWfncqkFO0y+7yfIrJtIGJzjQKNWU7M2S1u1L9mMBDrq3mc+augYx4CsU9bV6E/phjjXUnZJaFmTgF3V4VZKTPQUbaPiHr35dkjINd0guWz/DfD0lSTL5+nsuxJomO1ncP9fxm4yAwhXA9nDD+v7bmPqccaQ7mpqDbcwmYBqmzsr/eI91Qb72QLYG0585h7JBHxOnuBzCyFe9GhWSBclebPSSrOfG5YNMx0PX9dmElghW1cZF60zOvyrnkdDl52bqIQ2LnUTAPJuMgIwyhjO+SFQGwyqc5f3PXOzLCaofYHFK79gBTBqXF+TPkofmekeyITqopiWz2y16ON5v3wO8coHQ098x7xLnyLuUcTHa8IElr/wIfbr6KWujb804kSe8wiKjS6FRb72rnIEorwXZpWgoWa5ILxWJjmLOqqk5BBRNRGWxu3nDddQHRJJXasfQYdATCxHKEwwckp+L7b4L+BtgVrQ2qJd+sgI4pCYq6m4RY2ghWJDeLPc0Qb/SA7TmBEdElmhPTnBec30jbnHC+uWEqw50mt933Qfn5O76FJT5ZfFjYUx2p2M2RBhS5RC8myGSn3PuH7yE02i3/cOP/lmFoZqchh3fLz94vD733+8ppcPic8lj9HwB6Qo4uq1i+8dy/yQ/e/HfqxlLhwTYOtEieOxdhmehhay7QpD6mOtr24qXhKhiCiNQAEPqZ2LV1oS9NfS65tHzhtSIY4hn1BXTHY3lpF+oYXas7b+3jGy1BHpNeOVHYSdP5yfOj9dI7MRNzMDxu5SmdiQ65LD38LovH9CLa8WKtVVvOqgr6pIWOGikHruGVkyclqRLIckQgvBNepCtciFAQEIqdnTdHUnNcUpzAkOSUnOlwIT0xjj+TyD1bYVKV7sV/v3nmOfngnXf4h4PvPdXYrJyiNel0AXVdhNKsp19+FUjnbFlfWSF658RJgxM+jbvOUXz4PJPt8HdtA0nSA1a6QR/ASFnkn4g9esM2SJoybqOntYPN7M9yNg4CS/1M5+CpsxmqiiWcpSOicNXKwaBnNG/v1Bwbcqd2SVpWLShsw4e9d6Ru8lPwmiVpvDTHm+x1zMfT9I7fzknACEJSIsBqatFKoSyTvPWZA/LQtYHa/VC3Ekr2WB9Hp4TvjT0FEag6aPWT+fAc7n7pOBD8pvPr0YbPToyUgw0Md8dDXLSwsHKXOzQ0qtJ14YzvJjFW3IHP1vTi5xg8Krn990tC9jZ8mABk1vxWhjb9FItrMI5sYBRVIFiTtNFB64GzwPHXpqMDXNDD0avzWO24twG8unnTBjlfXaP+7Ny507+4WuqKliy2aYzyKI0LmBJUwtiZlU9NUMJsBXj2qoJLpL4V33y6db7e2evzTdEvOkAFoF7mu6YdQJ4Tr4Pgg67GcwePKKfuvW++VQbB1EiVyVeOnpTHn39JEroH+qZ+dfwx+fYLP5Mf3/U1SU/2KKKGrzz1XQB1UuXNm26Qi3I2yzNNL8otq/cACNSH3RWiApg1737wz2VwbFie//iDSjSCoZnb7/+gPPyuHykd6nf916eh0lcpn7nqQ1KSVSCHmk7Kj/Y/KH+z58+DohD2F+ZFcCH0g6RHG7URLitfHG6EUC+vBk0yd9gx5ESJTWye5mw/BHpzHo9bAVSW2nrADpidGvsiFa6/nMgKc3MVuIaMhuPY7drt0NBJv8CK+TsEUWWHZ3NMQ0Fip81FKEnCzpYRhYSux+XinWvlN797Torys1U64/JLN8uxozVY0LwoR+pWqOo737hHfvv75+XI8XNSjJr2t7/l3XCMB+To8QPSphyASYTd1si/PPhr+f6XPidHT5+VDatWyA/x7/e+5VY5U1MvW9auVmULj/zhRdm6fpVsXLkC5FfUVZ9AyqJdNq6ulO/c91/yBVQ96MnokX0vKrzDbUhxdPT0QjkuXQEe79gTHUQWakDs1KvqGPSJToIyTCzkedCgq0GUOj6Dksd47A1r+4MiLC/VeTDxRo8McFKjroZOBcVzzfk+lpGCjPxT2PjERk7GTc5m0PHanQMdxmf/FLIc1TI0gm3tEQQnqnF8k/EvkHQ+k7Gws2IgpDFsbQj/8Bi+B3Ro7YyJQbtZCgNhF8p8eyQgKxd2zoF6gWKkimBFovu1uqOdXpp90I4TzyPNcCgcRSzP1QQjpkJoKYNCSwl43yZGpb+rW0ZXfA7pG0R94HyZFglrwONIpa7ElWwLeqg+0fE+dOigNDU3q+/5tttu91csWYDQDGAN+kKStjFaowWoOI4cK6Z7KCbVPd4XpCB5TcFOqW3xAkxr3Yt+33gOnTI6ZCoFAo+FJa10HnSaIV7ngG3/BHipP3nHmyUTFSZ/870fyxc+9kE5ee4sHIYRALUPwEHo75t6x398UvrGBuS+d/6j2v2vyqlAjfQgakw75CcHfiGfveyj0jraJiWZRShF6cYuzCnZ7kx5030fxiTrk+c+9qAKFTMM8qYHPiSPv/8++drz/yyHQWlJB+EvrvkwpD3zUabRKN976d/l85d/3I/iNB8GF9+DzYEyFfN3GZhYLl8kAqVoLy3L1s53Jy9o5QO99F6jZjZan+bz96eQMyZzYhawB3MlklL5OCzK5BIfwiTR3U9PPfQkSSW4EyPB+h/pACKumwYixnuPVT0j0njuhGzcWSa/+9V+qa5pkj++642yCWjz/fCQ9586pT64PVfuUBPliGNYfv6zp4BM98g973unnG8blROnDsnjz72kFvx333GzfPLv/j95243XSWVJIRyeHGlsa1egxl8+vk9hEtKBbv/PR59QTgbxDaS/bensVAh0llseQKnWW264JuhWvvWzB1XI94Nve6OcOl8rdcA/3Hj5rohOdLixUJMpJvCk6dIy+3EKSY7drpkfjSeCQGphRme0ne5IlmrIdb8WLLPgRMwOQaj72e7ZqNJatDGUqpF+mM4lzc5uxwWa1ts3PxHHiFoFNgdBo+ob4ZRyYTMtVDt22eBQ74zJyaCdIpNZkU6ElTpDGkNhEEAvje89HjbEUGNuOgfZJ98p7jXvgOcxJJPdR6Qr50/EgRLGHDgHoSxUKoHHcTevmGuReolFAbO2tkZVc+zedYk88ru9snXrFtC8WyknOr0kWRsD06tp7DejNUzpcEE3nSM6FIw28edjmPOOQAXTtGsLdisHQm8itJNgx6Lw90whtXV0xUXTryMT3LT94dXD8q47bpJ//81ebHrOydc+/S45dLZJPTflIDxR9cLU1rz1cqzjNBir1ohDnHKi+zRIKFaCUAQSn2TQQikZH36rt12FkcpTi+VU7zmgi9fJ0fYq2VmyVeVviEZ3I9x0sO2YXFywVU52nZXV2RXSMtSu2qvrb5QMV5o4J2Yim8lH0NQfGfGcDPDZnpXRS98WY7I63QkQJTAKC2fIPeFDW2hmuFD9P9DgkZ3lc0/rsPyJ1Ql8sZuYTpieTCONWdVItQxNWh98jiNLVroDPPWxjHWHr1vqvc3+Q7214EtfAQKnV7rkqosukoMnTmOB3gOQ4jPSg/K2DWsrpauzT950/VXywG+flIMnT8tbb79Gulr7AU7cJb944nmorzXLqopK2bnjKnnmD7+We97/v+TnQKfffOVulDI2oToiR55DOSSjAPxgfwJA5AdQwfBvv3wYDgPovDetk2fx+w2o+25HqdgNqIqg6RLE+379e4AfL5VnUBO+qqxEjp+rkbdeH+xExHLvuk3uEiOXkAWU6XjOMFJpT52LHkXYDsBesQHYawYY8UhT9PNi7ftCHZeWXS2p6S3z0jzLzBhSpyQvTUUNgGC3dqMB0yH+cIqJ8XZG6R2Qb8B+IkPaipAnoIRIYGI3drOhlBDZX7ajy+z0PfB8DWwN1Te7DDoJgdiOSebDRW8Y1Qkk7IkUro/13jXgLnGsSfI7/lEScqG6iEom3+kfStfW3wEI60OUO3yU1Z5O0PeqyxftzlOofpHjgI7g/T9/AI7BVikpLVPPnFiMvNxMRTcdzB5pkRzRCeE4hIua8PccP2td7Qias9iPPQWXIdJn4RhClSHyGP2O8e9N2KiEiwLVAiCchZRpTiqTWmDsxbWJ/0pGlJ925NRZWVeegShVghw+0ybb12ZL33Aiop+4twuBB+HlhjTpHQ14usQdjICnOpSVILy/tXDpOQvOdCYrgaeFTDcsFVixBRO/uRDE+kHr4wje4w6a6YR4vVu2MQR8iwcKa7Mx6rnTsSiFYAzDwlpdjm3Fwrf+80cfl9XXFIhGC/O86i4nlBpdAOVZThMRxCSi6QbWIJQppDN2DtnI5WljCo5YhXAKesOIwD3x4n65E1UPun58NvfPc1KxgA0bddr2dkwhHv27+l5LdyOcrUTZ6IbCQI6e6bYnzwTub7Z9Xcjz0rJr4Bg0S287+BAKTs75UuVJRXJR+UY/9YA9hWC/AB3kIpSjUdFwPhZMO3Mh3xNGwAgm08YdLUvrTB0Fe79CSTbbcQahBmuCVRPTEQn+vQRplHgcIC5otFh27do5SGn8nmRkcm3A0ubOkcm2/TK54UsKcGhiYEL1dxiMlINgsNTGaA+lmfkAGaHtNrQk7Ocr0CUcbUYEGzpaAIoGDbsb7IaIinATwB0+70c7APymyBQ5BN4EplZiUZQ1n8N+4Co0LmFTyhrpAYh1Y6lblbybbZnOAseIeAHOs7WNzX75eX0vnMcJxizPArEb6ZfxvrAKJQcMlNr6exoQMQ2PHUl4ouaFqfUu5E6X0J6qzgxic7t5ba+qFX4aPzeNyPIrK/qBulyKffXiD5CiOkUN/Wxzd7Pt8VyqNVJRnUDGtBHkyyg+FctkMNt+mufZS3X0786MVkuZqziIlrkDpYv/Dt53OjIEDX3krbcG1Yhrp4IVDqlJyTg3VbJQXqSR7HQQFJVqlPgOJxkeQuVJc4Gw0gDIQE7rylsALmt60BVCfrgfSVp4M9P/r0lbCJoK/N0icuEfpjS4OyGlLSsaXAhz2k2T1dgnsZfB9tgB4ha75YPjYCcqEexmVo1Ee4bXrB6Ql4FVGEN6bqGNoMOM3DO4f2viG+orE09m46wv65hwyLXlu1F5Yy02LBscQUhZERWFMFUuRxbC6cWkD4uJKfc8247wHaKjqecDe2pA7yhrwd2RAjbIcBaqbFLrJETqm92x0N8B37OIhvFgyVw0BUndhs6lZ598l7hX34mt8rBMDdZKQsFtkpCxKebh4+LINAON5YukI9YloUocKkTIxHLOIZYE54fjtK9uvwwljCiFyjJXkcIS0DnQxm+T812s92Z2nlEYcpTo75DzznaIXTGlwLmA+K/VhSgXRVo2nMPB+AIrZ/js24DHoJHCmRww+WlWNQSNJd5luCf97nR1tSOqwNRHeGBxghMCYL+pfmrq4pQtiipzqYwCTVQOpNE50EYKWDoPaxHKL0fk4H+KY6DvX+XvU5cGrDiGCI4bkZxYbZzscqAapdWDVyAUBWisbcV7HBfyWDx2ttuDj/snYFc0j+fk/Zl3v83/8RwGWNI7FTp0uTapUjZUrIrJQTDvw3IWppS6ZKqN3S3e+433eC4qLFvqBdsdw9EsjQuXgrDjERgl4+IeymJxEOjImMqHJE4igdJCGMsTcwqPYhEIBsBOIqWZmDQ7YPH29I1Snlfk724zQIjhHAMeRPwH00pkC+Q7RiKdMpAoUVBpPpxlltuO4VtT6Sle0GBS5CLPCd9EtYcbZ/tCp9D1UciLyPdgAiWZY+fiGOreVJ4daRgvVA0pPRzL96lLABMgb51X/xeSVHqT+mYmqr4ljit/jYR/fFgXil5xVWMFEZkeZ/YBJZl4TmlQ1SQ2gztxfczZ5jqpGgsuvWYEksNtylLzGcx25dQbA3MDaAIN+a2Ug5eH3CrhopV8vlTypO09MigrcrxIvaBaRAnVWzTQBUiB6o0CNxAJvhbgRKJ/gaebUElX19o85QAilNoOJr9B9NOXjzBHgCWRwz6UL6HUbm3e3FjCzHaXilnxWEuKbC2OjrHgC1gM2lq+gCxbnMIEFVuF9fy8P+Hyc+Fa/9IP7pf8nHT59N1vlVyE5843NMu//vJ3sqKkWN5y7WXqtJPDZ2VwGgdhb+e6/N2YUDxxOwj2dvy7OMW+inApdw3TkQWGQk1wV2CjMz0V6aiCv1FGD4KvoL9lgsdIMW3uFPi7AYAmiV7XNLjm2XqiJlVypDBuLA7CLmBZ8gwqWV5nIdITuSWvhi1TJHAuYboGPta3LnsqQ65YscPvNDY0BZcLznieGFMlTgTgmz3ix8WHqQCi3OdqGmRoCimxzWEsdCsrS2MO+fsjVXhx2Ldw3AVB7wWdErxnfB/ToQ3Q2NUq68tWBikLMvVQgAgbnRSTojjafWsworv9F5LlAoYIabqE5CK5fx+qgnreo/hJcj1grnyPtUuOZGbkgMcRgEyQsP5G+O0xfWvqrzD9d66/XvplUG0OqBhrt20QdmLakgDMIYz3fJhd0MokOuI494P8LSN5XPKzAapERDaUpXkyoPHgBjdFK75nC8fHc8mVwMiJtp7OOsmKR+09CURJADf4R4Jc+JGAKvMxIK+HNhrggXVN9ogbiObBju2SAvDkJmg5MFrD8SOHg7aNBXN7kUiV6gIHRahw2EKOZQ2ALcw7R7Jk8NXnwLslaprgu8VOhbBv9rKzaGPy9//2gKqqoE54PSAAACAASURBVL3njhvkOKoGDp06pyaRq25cG5KLwWwz1eeGot8Vc3YQQvVTOwkEUZlc79HuKZbf6wWBO9ry6UgPz2O+tBnUuW7wlGiLtVyKHBnPVqehZDW0S8if3rIx9KL49Nl0JWI1V8vMqxKmFMLZ6BCEuDwdES/TcPC8dJwJgBgdkiR/8pGPSi7KcvuhrjqM6qxoO2CSUYVLI+jQfyPG2a6+GO/9sy1ya3RxR2yczEW5HWkve7ljpPZ1yuDcSK2UQ8+EBGTRjOj/uo5mOT50Vjm2b1xpYWYGwCxqlTNakZN4TDukmcffKSlrkVIYR0oBf771ytXyYpfltKfhkx3EdESq9F98LJjszLzWxATUX4eDK+Gsd99a24i1YKSAP2tsApMl+upEVIYYgGjGNOZOz1aLCBBRxxleebQGQvzexHXw1/Zvz5yHs1EC3WOj4W+EBk1+8qCsrLBE6/i+slqsGMBKbd2YmzOTyQIZ33PpHU0PdhDY4LKTEPopd0/0SuN4C/TUgsPumYnpCtBW72uWHe7gWv1zXcko85x7NIFeJvNQi2mUAk53h04xeBGmqgTanhNBHVD8TnxwS2XxOghf+P7PEDlIlw+97VZoI5Sobn/+Wz+S9CJIv+6OrAyp75GTYjtKi8anaVPn6951qmQ+6GjD9UkvCsyzEkSZitCytkFM8krqOs51mxMvGRJfAVOiacyDXrYidJlfLNGHSOPqyaoTT0Z0XEFv+2YAFE9EfES9LzXJu97+v1TOubW1VSoqKuTw4cOSX1gyQ4DI3hB3aXQgolkSVA3zcrKVPPBcTVe/6HaoEUCWz3jbTnQmSMNQi5Coh5G4XWkgHopg3N3WjDQiJ0/CJzAygsTs0tyLJC8dKo/AvNBBYvrFJEwKcCdQRM0Sl9JgRV5K75jzq+6UpFV3YwECNqf+IUna9o9y149Xq03XDz6YIl98cFTaBq297Nfu7JGVuTM5IUiAxMqFUJaZ4fFHDEzJas1wehpS2n1IbUSznWlbVfie+AGmTubDTOfS7iDwjocwF6dhLiYMgGmqvlHiJ6zNaPugU6XgSwsDDoHuUxccA48TvEV4zvFaS3eClJRUzHQQmFCZhJe2bNYIHPeeFt9UdOZHHktnYZXTkh6ldYN90eNE6SfAlXMxFzxcJTEcpwc4l2sypOey9ZulPcUAxLA8qA27lYDcyFyuNLdz400xkMXsX3/1+6CytCGwh1175/qgjmQkpUl/mAmDDgLz+h09PXPrfIiz6fDQ02f785GzNi/BiZt5ZJPpjZPM2NioVE47SzyeC2UtUi/JWPziNU5ce6sscPGtYaIH/N1sHQRHkk9ySvejBeubogPgHbWuRybE3JKDQV0eGwY5V4QIAw/uOd4ib7vuTXL//ffLuXPn5G//9m/lPPjocyHoFM26vT2S48qOdpgf+DZfWAR9QR2dqK5tUDLUsRgdDPI0nG6vkXpserRR1yScwz0AtUQi4BvhTLR1lMrDh6BYWZ4g79qZKE+cBKHetiQAk4fkwz+flH+5GyyR46OKB+DBw4I8eqJsKwcpzwsWa+iHr3CCKTRRitKnpKWjVTITGiXX2SS9CesAtEPp8bqt2EoPyF3/nC+fuc0lV6zTapAi7/jOsNy5fUjeuTu4km0EFQsDRsWCvidGyIpR9klHpb6xVUUPTKNzRaKkEUhyHxs+HXX4NFgxUsQoaiO2A8wNQajoHb9RjhudgZIsOKSjA6BjDiz6XjgqK4zvl80P9tRAOTNOT9/o15SrQs3xQSkG/fvJ8bktaPEO0IV4/KGxyLuOcH22RxF43DEoU26dozIlc44kpVosI5aCREnanPjA8vNAkw1HpRVqdfO9eM3lvuKNIhw+XS3PvHpEXZKL4fveeJOcTwoAknSuUffJLJXkzwp8OXLpuoukuT1y6Ho296SjCCSmMcmMZtOW/RxOaiyJC5cKYuUJgaZmKJKlfAnY/cZrL0I863JQK4ezeB0ElrXllb/gb843BlR8GxYSw9ypnZKZFzzJRwIo0rnck79LGiD9/corr8ggiMlqa2vls5/9LKIoM6s/7PfCcPvDtc+IEyVwOzzR0fVE/UcrjYx3nMngx7JashpGM+UYAIVPxP2BYUsS2zSWB69JrgzZTCYcisebnpfcZEYqyuQ7j03KPbckSmZ2rfzNA6sgaJUg332nQ6q7nfLieZ/cnfZFSdn45zKWmIM5Y1LJPD94gNoqdBy9MjXcIF/4XapUFHhA2e+T27cmyBrnUamW6+S+l33ypVv65U44CN97f4r8+A/j0t7nk2++J1Xe/u1h+ekHuhQFv7bhMaR6vTOd2VHQB1eWFyuAbjeolEOlPlT6gdgKzG/27zzceOpyaQd4asZj1BaK9GwYzVPS3kjZxpLeI2ixC5U0NC+qIFZMpxf0NQhEdE3NnvejvccnhcVrlEMV0kFYBixaQ13ja5DeydhD+9j7yTrXKklOmPmyHmgC+VDp7MmHiDzvWcQ0g859ae+UHxJrbe0eeLRJaTF+H6+DwD594/5fsTJY3OmVsmXzlXLJih6pG2uUjahBttshcCuYUSQuLHesvNYqd0NOf76N9xNr6Dqea4eiww11PlNa5K8gna6eVFkm1YqfhQI1xtMHNanFwaHAUsX88heDLjEFuuKORis3bVpO8SEslj4ZHSqQEfxxuQckPedcyO5tcK6StZBzpnV1dSHVEghNHz9+XCpWRC795nicGj4nXofltJeiBI7cG5EsA8C+YWgWUFp6PkxTHreCqIngRQLx7IRNvI4qu8S1TYrtOpAP2YXLeGworhASbz3RajlndBDa4SAwgvBW8H1tLpuQl6qy5O27UuRRoOjfWHFEvru/Qv7EfZckrfmkNExdgnc5RfJSxuS+gx6lbXLbug7xDffJXz21Tt67c0R8iGB97pFseejjHslNc8rX9o7J39zaL3uPu+VHLwRzbdgxCOOTidI9NDNyolkGW1F1Ek7tUj8DLa4Ubkzsz4q0704A+5U6LBwflnDSue7pH0B0NbpjabZHrgyCkrWYWiwOguJfAB6iEBs2zeRJp0DPzc1gYi3Onn1q2wtNGgfuo6mlI7SDsJxmCDzCUaiGnfIF0/+aD5iLRXFSAUSBIocjSSOd75l9BIBeJgWzFiu282pDsty81a282i5oBFwIuhDhJtV4yhx1G0Rtf/s/fyOffNc7/bLE4drvGe+Xs6M1Qb++Y8W1avFcqCiCzjPHC/gKdw/cKKlUVTg+/+kTuZPhMXqyITq+HGV6eiLiYXVIPzjQ1lz69nvoZER7l7m4p6RREpmLXHAlgnc0S/o6NuLnVhjVCU2F7BBYg76ODZKZH6CyzZxIk2vWgJFv2rjzng0dMHnwH63bFzTclxDAZnACdI73gIU2y1+Lztr7fEQd4sUKhHqmula/vrEFz8rakDDOoySgp8mM+A5RGMwqaZ0ZBQq1Y74IdfgzwYpT8tLAYaG6qhORldzkTOUo1EF8b1VmuRQ58yR7mnq4b/89kp6/Vsb7qmSy81Vxbfm8oinudF2ldEbG+mskc/RZCC3txkMF++5pMCRmIq+/+mOKQjkBrL1TgnkS3xztk/cjYoHQuvUOiPzXR2dG7egg0FGwjkEpMRZsOrLEGsSyoVElyDBG1mKNItBJoKKsvWaLgG0ySlLumsDNYcwzocpi2U9u+jo6e/zR2FikmnmeExEjCjX9/+19CXgkV3XuaXVLLam177s0mt3jWb2OjVccg2PjOIaQQACzxQ+cxOGxBvgIJoQP2wGS+LG8bARsYxsbPxYvLDbeBu/Ysy+e0Wi07/vSkrql7vf/t/pKpVJ1V3WPZuwxc/jmGzxddavq1q17zz3nP/9Po7NAB9GHdz6HCHNVpeGkRqdb7YaNu3+DemlLa6caR7YRBHWB0xUNizpzf+gIyl8WdosBSFwzWpCMHQZoMQMkT1W5CAGlQPZUWlIwH1pK5rpJHYuPUDk9YIAjkVA30gnLsWtM6h5SODiVKMK9v3pK3vP2S11dzTpxrPLWyvq6VRBvAcCL26JlNj4PS5TGsCtcDmOulekFp9SQ3k1Zr6lCoJh0yRanHQOWhs2gzt1ph2Z3/2blTevvWWA/zAULopqH4AD0t2+fP4R8BpRgDuS3A7TllYHOc6UQ3Ae+jPj9xEqGQPaQXF593jxQjWObzgEn1uQtioXEHvVOoB8n+lcm96lm81EqtjamJcJdZkNdletSxET3xUWQmBKSMJlNbSSQ+yeNLlNUiarS9kADgPonVrNGEfg8PTN9cni6Zf7QDDgKPgAVs1D2dwZErIiwz8JuurfpMSkJ/VJ6Sz4/f2z5yLelP/Beyer8nuRWwakbbxJPoF7mDv876JO3i3f9FxO+gnd9rwRVjx65E6kFSiHbGYWZWHJdA40URRoEMKjTWNftcNFlBIY8EG7BiuZ7yE7LkjOz7SW7We1QWAjxQQikaeP98TsyvztXkQO0VVtlcHIoQC05OSzjl2ksWldni1QWJ58aHBoDDXPZSmwCuo0yVXOZo13HE6j9epIoJf/xnrgzggCyzHlmJdeTTDHp0vvhzolhVn+STgIn6DC0z49n55aodziYOQD5wexv7pOi3OVf+E7U20nFQUjmXvYBwMT3r42A1Ivrz17EYJZMe07H8nkYLmb+9HjLR+349+Ndn0Bzpwj4NGihmX7Q5Cu8x76Bwbg00vGuRWZFwtQngHcJAe5idgx4Dhf2scHFE296xrgUVjiXpJmvuToD5FbVC868HVjN6X2Yfyc84YVhA8Pixlgax5AwjRN4MvTEdu0Tq1wK8pt47XChJC7Bid55EBEOyqybTYPwrNfNycuSxzuNNIN+lgxgLzZmG+BePXeEgj0y0fKwTJf8yXwTZV1/L3O9z0n6GTdLdJI7WyT3pnogp1gk3tU3O3ZhU59X/u7HhfLI38Yvbxwcz5CS0kpV5kd2QjsjhfuBqSbbag2qDzOqyGOsgnFON8h0QyK1WUYQ+I3QYSEOiGRTeg7X/A+JrsHvt4BkTijFptExZ0rCTp+DxHok6lLYipnF79bpOfh7GOmFNKQXupBeoDk6CLpR5Ynipk7zJLjpZudjuiBMRV2JZI1hYjup5GTb+dXDDy0hxvrIRz4C9blxCSInyPfchhrb+sLk7zHZe1mO4+NRLS9H27qNQyiFWpe1kJsmJzsn4WOgtqVImZ1xItCsZm52CeY2eJ4f5VQhMOelaubdkbkN1p5bw6PMqWakpy9yQPnZx9uHMBXB3HYuJi494ZEsaw6Dx7o4/XDPg/LX579Pja1WiGlxIuYudOfRNrl0/SYZmQEJDC5E6tjQXFgmxitkerwSTkhQBsYW8AGZSDnkxcEVWPsoR7Llkvpz5h0sUh9TTOh4jM/bNzos3H27tQJEEbQiKcvqZsNzioY5FdO75A4QN6Uj/RfP4kWCrMebI2PUAMjx2ldCpKOC4dnhhQqRsvRiqQWF+bxhJ1mlSu08i4SDAq23S0BaJa0EaZ30PIm0/kQ8lVdghwQK+YYbXHfBoW6frKtc+h3QmZ2KliICAOImpBQoCMeNlJ2Es9Y78AMjtjmwbsm1ueByEXebZtANbET0IAtRhERGTBE5MIbBX6EdfifnQKUZ8QFSLIrG77N/YGRRRFdJR5MEKnZxVihVVRjp7uH+ZqR13MuLjweBVSlqEFbEkHCporzYvYOwaHKho7A8OBvXA+TNeOCxYZARFTrXUJufXcmUxmHUSqaPBnq6MVkGZcOGDbJjxw656qqrpBUUyWbu/lPNSTjRUQRr/2pZXaq2DY0uEAJx4VXhOcvS6jQhWNvn8ySS+TVTtbLygPw0YSw+5oiDHTCxJzwgbQCp5WIxWAnUOneC2gw0NYRpEC5mCJu7H4LfnIx5ZubXiVmhjUDIinTDaXCg6Cz8aO8v4JJE5LzaLVJTUi7fe/Ye1X5pThFEsLar4/7zuR/LpavOQx7dJ+sr6mUMuJ2mAYSjQ5epNv1Zg4vwBPHuKQ14hXMKN0pZoZGnpSPTCarjvX35cm5d6g4CScvYyexfhubdOglZaZnzO21O8nXAdNhJMTv1MX9naoHjzqyiaHeeHY2v3XGaNXSbyqnHT7dwbO0bO6x0CWgsiTRb+uizUli1VXxIHbQCF0HyoeyW2yWvvEaiMwAKZlVJ+OC3JX3tjdhowgmtvNrN4yY8ZnIaqYGCBrWTJgU2nVsamSGZXrFG3swREzswJrEDDPt3hLqlC8rFbs2NCFw8tsp4mwathMt74Ltk9YsdyRZ/U5FlEjfFjNgGRh8VmDHszBXCTcAIyKWKigzHYgpl3xSyorPhOoJgPwhj6QcntJHbnv4DO45McqOg0sz1z0m2S90DFVbKMGRCj8d2PPWkXPHWt8rAwIAq8Xrve987L/Zhbpf3SJntU8VORiRB9wU/Tkrr0qg/wcXRiWg62SiCB4udkoWFA8C/ORlwMeXHS14KLc7EyZB/iDgnboHjg5MSKWHNudieMKRlZxbksPWzrM5skEJfvuKttwrPqJwpFqYRhG+dno/3Q35+TfGqql8GO+Xhg0/KUVC9vmvTVVJZUirfeeYuqSusQrlappxVcybK1PLkt689JB/b/kGJeMflvXd+Ul3rzvfdLnshG+/WqgAYPqtugbCMolpmMaGecR/q71OLyFj7xql23hw5WLSYIm9MCvVkwYpejAEqNbpRh6RzT3IgNxgWUBPNR7ni9zOiQqirf75/l2KQtebcAy3/ROCa5J/3bWORefpKCC1dL9HRg6BMLpfJ9hck0AhtBQ/oe0svUcdMhnMkLRqULOh9JGvDcB6LiquWpBTojNJZ5ncyGVy6+VoQYvPI2RZiKJ7HskX+nWwUoRTpEpaJ5vtybR+F36viILHk7zSLpD6JapNlxUXzUsz89vhNjSugqb1Z0xZmGej+3hYpyY+/VjAbk55dMw9CJgC5HABIrQZ6XA6C+XaJUzgdVUh2mC8cT7raTqQdKB/tS0vscZUCQT1o2rEmc1UO1FxwiT/4kwfUInL11VfLE088IZdffjnwFfaYA9J51hScGqkG3RfJEigl04fmY0keU4i6ZE7EzGE6mXVCcDo+DVEE5nfNVQRO5+i0AqVprUp7+4KHgaWwn2y4E7Jy/JuvxbLQAEK5ZFskIt/JGI0g2v/5tp1yceM5SBUMI201JlPpQ9I30i85GQFMmHNSkV8qo+EJAYRXDve1QCujWNJBmev3gfwGC4iblFpmNEMuqj57HoSo5LWHluoiON1zvN/5vJzcrY75Tgh7hW2EvRh+r8xYym6n22ckcAjVQbMuSen4PDVVZUnxKPAVsSwwWYpdcx+QFI2O5ghK+OjUPNb1nJSjaoHKhmYraP2ShDJXS1bjB8S7+wOSVn0V1gN8D8P7ZMx7JvgSEIJPr0b1wjZ12jTSAp7ZAbD8Jbe7pOMzMVsEBzRXuhEVMsunU3BqnGMTjjJBucz1W6MIieTfuYZlkm8GAFamE+MRpdmNEc43daCrZt/Es3igY71pyEBfk21TW//AkOKNyMFzqW8ujnooj7eKb2mRMBVJAs7E+rly3E2GcqSg0LhfckaQxIugXX63BKarCAJCgVG+/HQbWdhUPibFO6F4IFM5+/Q53eMsh5xN6CQwLx2eS2EXhPfCfBZ3njv37JHJsYWw+NGjR+Wqd1xr+wKODvplZbHz4vdGfXuplEG6fRZzzs8t+MxNOZP5+qmkThLRNQ/PjkoTyqC0/ry+Fh0EnYdN9PzcCXGhZGrFumBOR6fBA5IJsFNY0qNGyHcKuAOSuxCrQGsbAgYBTHtNCrC21PLBYsk+mhZIVwOUqy0dqPnwFErg/AvOSRrK284q3CAVsfAoj2We16w6qM9/vjVLttcnr43CSVbVqmPCNNsx8Gb0h5fqQKzMrEN5Y2J2xZmZGUVKZY1w2PUH59SSItTaYxJ3Q+us21COIoWFEG5PxQiGVPTJiFzRsgHkG5wcAXZkMfbBi+qG0rmnEGHygU0W1Sd+5K4zyyR89H4ZPON+qZh5AHH/1eLJXQCchgTpKHEmdzLf9+TUnOQUNi4JufM5mR4gfsq8iAYA2DNHEUKzIdk1fVB0tMyuT3RKbxwsqgfhJLixRO1Zz+faaGXE5XxcXWkoMtIY9RtGiF9Xj9HxoQPClF08M7gRcJTJiWA0kYRrk5MTkK03xikdg2AY8gAFRuST1+4Eb4J1I0HHnsJjHnSuWsqXS6KXk84sQk1Edp6OKrgZXkuP6QIitwycCYkiCQyl2SmO2V2Rg6ACpBrMLfeibJEgsmQskS5DMu283sfGiyp0jPgQIUnB4Yo9kC4t0ujieM+ZLAZBt5N02oS7BgKcEuw42PYBEP1MRBbwBefAQWCe3U15mC57tILBbnnm3+Rrl39K7tr7U7lhy/Xy77+/Vz581rugcjouO1p+L6tK6+TRQ0/JrVd/Rm5/8j/kzPK10jXeK0cGW+S6rVfKwPSwvHxkt7z7rKuVWuCTTc/LtpoNKoqwq+OArC5rkI6RHjl31RbZkLNKVpTVLOpuPrcOj1rfA+Xjk5WMj+ccaBwHr1GjCJLSVO6aIFbSdDsZsR05mMC5Ox9EpMMOVKfbYAiZZXFOUtN210yVEliJCNExMG09uQCZHTZez4NoVNnof0qo5efiX/theBQAm2YUSWTwoPRW/yNSSHNSMIFoZdnizUeyDsLwBNIyJdWKW2CS4lmxh+U4pLqiXfROpRtwz6xQoMNIICOjSk6WLFjRDQZBX9Os4cCIFKMDeZDF1tYFrIG5dJHpn9apTjm/bjPAn9jhozolnlmVIc0pUPYbx5xZap7XijfuNLbB09nTGzXQpyLtXd1L6iqdOpPhNXrS5Oo2GwlCGvzGx3vaUXDqxaW/dyGSUJYgkkCkag9KyxIZXzIVF4sLC5RXSk1xp9KneO31T/pUZONUNzsngQvHk03ZcuVaZzCe3fPPIZrDyEy8xSnZtILdNZKLIrAECgDD2M4v0TubhKz1fshb01QNv8vzeLxdyJQOwjXrL5NfHnpabrvqs/L1J78nq0tXyE/2/BLqoI1wFAbl0xd/FBK2AakpqpSvPf5dmQpPK4fhlY59srZwhbz//k8DpLhKbjjvernj6R/Kz/c9Ln9z4fvkPZvfITf//Kvysw99Ly4GR5HT2IgnHRmgqE1yRGXxnAPKAe9CaoG2wl8tpbGwMkPFTu+JbVIHgSA6Ttj5eUbOmuA4RmSsNgvym2qQ36Sq4cDrcYG0azvRuKC66Rj60mxcbKdQfWBOd5X2fEWkf4d4194E52BMImNHZDD9Cik/491K0CwCxZayqR8fl4MwGS6UnNy8JSkFJYuO8ZpI6TaLUtaxfg2jL9O9AGI6pMdywYnAnH8XdCc6QijHjBnfrR2GqBQVHStia53T/EiHgPoQrKaprFiIGsRzEqdlBmmYdDkw0iQXVG7FOIk/R5EGn+/I/N3rqhfzffG9sBTUCcdGsKPCINBjqq00ckqdKFNyKwrEUqWjM+22OTh9Q/X4gEp0uC2WfkhyA+vU52/a3+kklGNR9tpgErgopYGgJ94iMIvSOJKGMOTWgRASgW3HY9NhDyZ3ALzykptkj+eaJ+pcu0n84QNg2GsMYuFKHjBlBgWZJ/LlcAzMk5Pb/mB8iKqNzMc6mTmKkKyDwN2bwiKYJlw6CF+55BNy74FfyKWN50HSOSQvAoNQnVeO8P5F8g+PfU3Oqdkkf7n1Wrn71Z/Lc62vSmVeqdx2zWeVg0DA4m2ILHzuMqDdYXQ0/uqBL8qnL/mofOLiD8p9ux6GGNQO+Z+/uA2T7JR6Ri4QDA0zhcF3MTC0VGL6cH+GrCl1j6Phwsrdt90OS+ex12Y2xgWl2fU7J2Q6B2ZdAM2IyOOtzg2xJ1UIPcdzepzerf49Ea7Ero146SnFOIjXrVNTxU0fFW9GFkoYz4NSll8izXfLaMmHZKb0OqkqMxY/Mo1WTN0jnvLrFl0q5AEVdjRxpcDUDITucurVHGfVsKBzSqfKaZGzVg+YHYZ4/edHBcZMrLT4CNInjf5a5fjZ8UboNtxGEbhgV1eWzd83+5SpSSthlwYGP9e7UyZjmKENuShDjYLjIMGLJ7bFGkHTvBk8jbiNeLLktmNWEyUxDF0XY2miN2MnDETULss/xqC0BfFJt+NTpRsogGO201EFd91HTAIjCXZOQnlpIRQFF4fMuHMsQTgyKzMTTHFDBinHMqlAElpyZCBT1pamltN098Qn/ig7B6FrzEC3p9pVXKAY6uQEMAhhGIYGl9OSTTNolTqne9CLHZHpmwPrXWEQzG1aNSM4mRsh2jS1u6MTS1KXbz73A/nk+e9XEyOBZdFYpII0x/QvyGxIZ5YLM/9WDjBAsxVg9DQWzwlFGcz2mS/V9LjmeyE2pwA7cjtBpGAI4VWXaPlEzgHvPyPTB+VAqBtGMlTajvfC784AdgFQyj7Q/wYngwBD5sjJfeBHRE8ps+KZuSgQoU6AGJ152iSOYQkj2yGbKa/nFtsS710b6aB0tXN1Mo5/OkV2gDi2w/fKdE/egQ9KVtU2hTUgaUqk/ecylblFxuv+Xl0igPmH0RHW1NeHfyBptR9YdOlZL6S055ZW0wyNI6qSXyAdXf3S0NCoNA5Y569BsXw3xZjfBiEv7eQc8IJ0wBhB0YuiljtP1A98TrJR2i2k8aobuBFOBFDkvMC8fmaMFpvXjxdxZIlxy3iHHJvuXHKbV9VerJ49npGQiaZLPvV1WG3F67E/7RzoeO0tqmJgZ9ZVGeQXowAuToIxTVt3qF+6wgYvutlGwIcensmX0poX5v85EkEpVtricLSdk6Bu/jRTo9M3K8pJyIGTQNYMk2VlAXEbGxD8Z5LMVECOmRNQL5ntHHLQjheOc8DB3kxZX37qOgknosKBkwondBr5JJabnjrZe+bCy3ynHVhPv1aCsAjGom2Bc5ABJ4EVMv0AJ7k1OgikqI03WVPsbhIbPAk2zgAAIABJREFU9wJwHVkXKKdwPJ2CVSvqQCkL0ZgEuVd9rzqc2geaXbvty95uv2ysTAy2TeQc8DpcOHb87nfy6K9+Lf94yy3yuc9/QW7/+j+BwGZAfnTPfWpBOvusberbY2XQrbfdLo2NK+TCC85Xk/PevftR8TKmyumu/uO3SWVlJRwElIaiJFFrKqh5kRgSOAcdoPK2q393+370cW4WRn1dOgmk0VpkCtOCMkA4B/kHbpCsFW9HNAEh/hGwWga7JJRWJiMNt86fkt70dSm94Fvqv+cOfErSGhczJlIQKCO6eD0ZnYjI7gOdcAzq5RcPPyJ/et31cKIwq5mqq/hdOemJ6JsguI9RpgKU6BL0R+N3ynFoXkD572yTY5+pH1Yx0KGzKxElhbZdmqExsxaRcoPm2GoE9VLQyWpL8Aa4rwC0M3b0/V4ilrlenwvUimzMXZuQsJCYKGsJrU6Dsh06bRRjcmNLyhzN6QaGtsZBpqNeMlbyXUEj70bra7twUftldc/O//dsCKpdNtzoFLdY6a8HW9cCM9r8SafTDwnfF52E8hzsskzfLSdB+gD0GpkiYk6uo6sHuzb37FluBondMd1j6QgNn7rpBqfFKZV+4YfJcPc4+ALMznUqbdmdk+w9M9+ZiFDn9xN75yMdDJFygeWilIw+gcI6cFDa5HUnZlhuBsVM8GiwKsFqTlERlm5xQUjGYeE5FOix4xhgKXEi4K+Tc8D7p4Nw5913y4sv/V6+/W/fwoIDDpPsgHzuC1+Sr331y9La0irf/8FdcuGF26Wp6ajshTLk6lWr5eMf+19yz733Kjnp/Px8ycvLV4RHN370I2rBYrSlMsaAp/uJuCFDaOn4je9VCTm5wKVYUxJGueQcQNFQc9x/raSv/qDa2YWP3iNDa++Usom7pTf/Y4tuMnDkU5J/wf8oJ2JmzyclY83fLfq9G7LQZQVRCUVQ8YKS1iefflauu/YaOXykSQ4ePCTnn3++6pd8APgmwGeghxcZHcksmjB6QNxFTC5dP7d5TJMBlWBFhc/AWGEFH9c6M2coIyWMaln7qx0cIt3gEtFW6MtDVcQK2xfE91vNNG/s5umccFzyb84VvCcKLfE+eE87un8PhlHn931x2dkyHUww96I9bhLNjqUZsEg66pHR+FLs5oex5UHgYK2JqUINA9g2hZIcmhYg4f+nSEpkbsEL0Q7CFOhRs3Kdtai52w2Aya0atcKBtMUOw2mhKPsJoUdFEhY7CUWgbiUylQN8FH+Op+Y5mWkoFUR4Mu2f6GNPROmjOdfX0QPcxzJHcJwWVGufxQqUEk6mZFTM86Ee2psPhbgiAMuGku56u5w1CYkIatXQFzMeQ5EtKVrl+LiYMESgapDyPHqsfZ6D3unGyNPgo6AUSirjgfpahtOlodB+cnWTq+fO81/vuEOaUBbMne1tX/+qfPNbd8hll14iF73lQvmHW76CtINfLth+nlx+2WVy6+3fkCuvfKu88spO+fM/e6fs2r1XjjRRghoVFVggPvLhG+adAC4ajESUlhiRqNGXPy3TDV9wemzXv3NHzWiPG6MjxJ0055NpzP/pkUEp6f+GpJUCb4DS04nOnTKx0ogYVEx8X3oCcBpMO/2iwzfIcN03pbIOaaswGDXnDLzB4IRfSkoMvNvDj/wSYLlp5TyuXNGonJDGlSvVeA2iDJbjhCyfVtroeFEurluqPM+G/8KMK+CzsYKEPAN8h3bOhgJ4w3lgH5iN4/goSoRJKkYhLm56rcbFuQJkQ2YwJzdupC/WxuduqK1Sz9zc3w7eBZSHujCqbUImyzFlZIdFMEcRjrV0uCpIiEuUZI4ksFaXmIPdwYOqhJE23LNJwqEF1ijtIMyGs/CROntB1r7Ykn3GIqlU/n46/bB0xPRA+rQcJZCh8IysbKhVB5yIkLaLsapIPFLN2btp/0Qfk+yO3Ol+zICzHpSTJkJXO7Vl93uyaQa2wXxtH8Rd7CRnzdfQu0s3eV3rvTGoxWfV574WAwQ6UyktfUrSvNbVVKmFyUlvQJ/NXSWxB33gqedmjQstKY3d7pJ0O0ocK4YET/R+uCM0gHr42/TcXIAnAJo0yksN3Rr2iT5m/ljjBxXEN48RXS7La8+NH5Lo0X+RweqvpzJUbM8xl9g5NUrHjoJPE3gfOf0/QpgeCyEooyOjB2Qo+zqZzdk430RZx6clFByTkTX/of7Ng4q28rlfyXjT45J/6U+MXHtfj5SVVSxajLt7evDv/XAYSqFlgraV1o+RHNK5fka2ODbZnzoszmMYWTBXWRADNE4G0ThOOTUw6GCTI4P4EANPkTjSSg6JRNwD1j40KkYy5itT+HsvIwTsE5sIm9Zy2XXskLRL4k01oxSMVmhLRMHOY8hZQX4jTX2uz9NjbAg4BjfRqYRMiszL1FcbmIRdrXiIyMJDzASLZXRgAXhIByE4Vi3ZedCRjlMO4jQorfze5uMjs+5BkU7XOZV/5yBkrpveaSe8Us9JSCfE66/QLDx836n7XpbbQWA/5QQyFUCU0QMiuJfbUrlnOnEMZybCIzASRf71VM0HOV7NCrgHuf5NDrl+83U4eXJCO/Taa8jfbwVBy5Bqy8lZ0UhvakWYQ8JcqFnzbo0i/O5YtrxlRfzKDi4aXLSd+CPs+igTu9Jpy24z2b7Uk/cMiKXSu+7AjaRLX/YHHPvB7XXYXwbdb+JvlnNMGdQiGQUr2fcOyVwPfgMsrnMH/1U81ddIWgAbE7XgAVQ60SLBwWOIGudLWh6UHb2ZKq0Q2vcv4qu4WHzbvr/k9rg4kbdAh8C1U6APpPP1ysQ+lf7KRnT5zOzVSO0sVBbwOA1S5V0E4BzEI5Cic1GFckKG8s0RPbsdtvVG1XigI+dQFsnzpqenpL62er4JAk9HHKos+NykNWbznSO9cmi8WUVOrJYJSW0ryJ/PxWhWok2ITqWY2zNXXHV09dmCfRd9m05yz+bqhheO7ZZ+WQhBEodAcKInzYgqzM36EbaYgT74KqhbZcoRhGJY8eDWyD7WADRoIouQmvTUXZPcdoX9cQCu6NRPB2lGj69y8fjuBWdPAhkecIkMP+6LnYAGUtmRO93GopLHXoRVXUwuTm2af0/FQeD5Gv1NMiczPS1/M/bDqez3F+7MnGb47ZFsCDA5l1jy7J/+9KdSBWB0EOj9bdu2SG5egavUDCdvVRkQK+Xk8zF0TCeIYMCGuqoldfO/eS3gyHWhQ+vJvBOVn8f9+GJiQcmcq48NgV+gNrYZo2NZ2HSTZOSWykjaWTJb9qepNGl7jir7Q//Ec4Jy4VgNjZKi2iOley4V7/pPKI2FucP/ARmFNdJfc5tEkRrOh/wwsSH+SK8UHfmQgUuAczB37D5Eb4D1gKxyxubPo3oB/Agwvi+KOGVnJVY9NN/0ftCCs8RvG4ShGMq3LurEvrDSwC6Vx3dCJ6ef491moiS+wCxMF6+DrVU61uO0YJv536nu6vY52S+jI0OyZvVqufO+e6R4e5XtrdiVUTqljOhwtkPh0vqcWszJTOzG74d9YjVPW3df1KlE3hxJePrYywKdtiUNDfZskeKKXerfzZEA4hYGu7ZJQekB8aY757+2IMfiZhL8QyqT5CBsbDBIp5pb2iQToa9dndmypdrdJLxss4uloZEphHaznEunTtT1l6NdN2MtmetoMBA9e4bLiQtZTksWh2C9NoFfjBaMjS+MHe7egy50JBI9hwrxMrwOh2hXV6ZsqXL+1qkA2dLSLEebW2RFQwNywv1yySWXxkLKiXtNk9noo3QJnuZYYWqFUTYzWPGFliw5vyFx+tPartO74/smqVCq8s1s3wwga27tkExUhnhmx6V89hGZGTgsY7UgI1pGi8YAo+bqADo4WaoiZUxKnl8lvnP+lXemIgTR6UEZyXuPzOVuUXfBhYesjkqL2GL+3h9L7tB94q29GiqOo+Jb+2UEGrIQaufxiXc03BVTEZSpHg1MNacajEsZqZ14xisQXzACQiEnPFY20gFBqhUlsHgOAt8ZqYxZ2qyNctOpSBY8s+MZue4d18gP77pbVVNcfv1bQUPeJl5EaJjSJz+JnfH6ibhODPAjS0LHFp1uToXq74PltgTcWs3zX0/NRM+tn5Ti7MVliaxa4P8Gw8MyBjrWzLkMOX/FZnX+483Py5RnYQIY7N4q5VV7hAAK8rwTwKGN3AkH4E32tV2gXmxmoFdyi5oxkcSvE0+UarA+ACcEghrfjKZybSh/IhUn82tjQUOlj9aFKoKq17mKYACKaiXAQ5zKtlxgRX4vOrTlw0RYhtAhrR1pIGrUL5ctV9TD4GhHXT6cA04ObsKo8Z7BQLkbtfP8HhnBTrjpwEFPQE20CpU3DQ0rpb2tRUUP6LS4uQ9+F9YcslWshosgS347EUYlcJF2oNcvZ5QnLnMkVoNVQU75ad0XpVBX5C71eIyS3Jl4D9YKpLy2ryB0XyB9hZ9Q+fPlNgr65AG7wUWup69Tinb/sfg3fFxFDAR6C3MH/03Gy2+UcOUChwH7nQu4Dm07kYHNgS+itrZBVSQM2hBYGWDAdKUZQKeAqTBF84y/aeayQu6irXgXHsN7INsgv7MpGxbNeP3mxhlUoXzFdbGwxmghJN0uF/UhYBtSNUNcyit0FM4752xgZ0bl1Z27kCYLyHnnb4/bLO+NaRprisZ8gl3JI38nYRc5OYgv5LU5/vh+rN+fchB0gyTjWV3bIkPRpQQWPKZMiuS8mJPwSPNTqlaTPAh1Fe1KACOeMdUwAiTrQAcQsCYrqtyJj3fpLpiTIPXJk7U3U/qB3hzFXAio4SLjJhyWbH8d7/Gnosqj3TOnGkWIJ7rESbSmolztdfrwASIAfbxdvej8VO/XehNMH5aVFBwX9sA6Sb3amSnbquNHD9KwMdi5c7fU1daq3Rb5DQIBg4ueOz7zRGzXaezJArLowWHWRlIoos31oq52dySuQricYVMtX90xCs2NfGe6cKuzEe/lEazIhe94qlWCyF2vQO6ai0z/sMXRwEJdMfOgDITXSDTvrGUdQ/NjNzoruU2flUD1VuzfoOQHEGJa/hkyfegHMr7t8SXXTMRDYCSqFu/udbpHARUHjOfj//cCs1KIcs9e0P7SKbDSduvw+cjsmByeNhD+a7JWoNomz1TVAOAiJdCJ/1A74OS+M94HS3utQD7rQzN9RnIijnUSWulFlN850wlcyJfLIiAIY5nuzl27UPZaAed9RiqrauI6zk6lzFxHDAKvxX1Dp0zTfLd1LNBJW58j5iBEZUM1ylhAxuOkYFUFisyzGjZIB1Cpz3RMS23JoFC9zMnoCVqBjTzHzJ9gbmNVZj3KSOy1tZ2udSqnH1SNbFmR8u748Rg7U3t7riVHLmhwV8/q1Gep/N4EVsVVJc6h5FTaPtnn6ImNfyfaxXLnhP3r/O1xxzwVTpP20QxpHvCrf79y7ZjkQUmOkR+2tdxgxeNNMyzqW/U89ihrp3egUNsIS5Poh1VOR6ZapNbbCMbCxZORwjhgXD/x1FPSuKJBlbbl5uRKbX297J44OA/AcpPqsJYi8h4YBia3vDYu8HQKOLFzsu0mQA3vwS1mRu2SyfOfYMFRuzb8SQXQqO+ThDuakvhYe6e6V6vlHLtFciBSNJB2kURzkt80mdub3+1DS8I7hVRl/wMQC5oTT/569SxRRItnWx+WscZ/loiF+Va3E0+y2G6svPzSC9JyrHnRT1u2bJUNZ25UCzrxEBo4S+eQTpJ28ogF0WqhSySaVbWAHw6mbz5VRvAlj0/WWdOsjInGOu+N7IZmoaMepFiO5907fVt8HgJ/n3x6h1x00VsU94OdOacZBARQ+fPsiRy3Bfgu6FSzr/inHQ5CPNfKc9/uQ9HsXPuIQbyHeFvNWxSC8tX2A1LhXxCcSPTQo8ipNc20ysxUkWT4x9C5zp58MqkGu2ufSukHvjiyhlWWlwINPSNPtL0o5Zkl0JRP3L8vtwfknNrlzXM7DV79+77uLDmzciGny52tU8jRbdunwnFcPw70ZEGjwgvq3YU0QkPRjKwqHJd6lOvRktE3MT93OnZHBDuR44KOotlxWa5UA6/nlmVv0WKD8crSMZYSMhX56sR+9Xdg4hzZULGwWHMieuAnD8pfvufdCPd3q7rzEtT5d033SwtE3mgbs9cqUHMiiWoGkjmxMQxqDv9rbQO9MHC3RHlpH6Shp+GI1KPW3MxGeKgvQ9aVOWsy0OngguPF/SpVQE6m+Js7Vk0JrSMTqYxVOgfpaLMUKqsE1PWiciOeZQz+UooyAQ8P18tswWVG6aSLqJQOPaeBHt87sUsCvXdiNwkq66qrUNYSy52D0yAy8BJy8ekytfp2h0dxLwLGhu4H6O6mmz4ug4OD0traKps3bwZZ1H1y1R9fo65jXdy4KJorbRiL4MK1L/iaBJGqpvF9nBXYqIC1rMYwOwRuIz/mh3SKWjHdUQXtBG0cEyyVTNYRSWWM7Nu7ByDDTnnndX+iCM/srkmgLjUpEhmjNUwBkh+kH1EcnfLUaTg+k5X/hN8Rr+f5RfMTycVlcCfZU5Xy1jPWqY6iupdbMxMtuTlnY/YaRf+6HPZGTj9wx1JXU6FCbzvbDkhnZEHExMlJGgx6gR95fYCCOwGU3GoCSupF6w/JSbCOzbFprzQP+hWAtCg/T3GvM8w6PO6+mofjoBDqdUNjowv6BFgUihCSHYD2hllbYzkcBe7uVV1+EhUXdCoY5qfkuHYO2Bezg+fIBfUh2b9/r9RUV8vuPXsQDfPLMSwQN7z/fTIWCqqogdnWZkH0CNFCtqnqzolhwA7ej0mKaQgS4NAx0FgCfS4XFJbL0WHghoWEPgqlH5uTiC8hBz3NDFZMVrhpOeYfcxt0DjyguK6oaFB93twGYCJ2xInMN75LStL2yAQiI9O522UOO/yoHSMt+QIm0OdDv5as0cfEW3aBeAqBHZsNSjTYKVFs1NKKtkl0sl1C3c/J2IrbEC1YkZC0St+XmwiP+RmOHDksbwHF9MsvvwwOhDJEm7JkABTwxaWG7gQdAKZotMNndVTNDqM5ilCdUaGq4zYVrUVUmsRxBj6D4XSGzUmR7HYscwyRXtnKHsr7IiGTlZKZ5ZJu2z7eccN14eWXXlTMm5u3bEa6YSnei5GNSdx/IjP4GZYqeprBsS1tXWqu4buYJ3giXUeyDgI1FebGV8mV60oUQKIN+XEzY1SiG+0PD0lbyH20wmlxTOUFvJHSDxwADNlxZ9Q/OiQvDO1e8kjEdiTSl389KwmO9GdCyvfNkWJIZSw5ncPdR21M28QtsyLHZyEmuRHoENhZMSaLwRGItcRSvcuFRyBQzpzXT/Rs3Plx10Lq3Z2TRuRAW2Foq6xH0Oull15CSuEZeduVVyggXH39CpmOzMie4KElTdf5q6QivRS5YE7WkBN2QQfMlAHxOXqy5g6JzkB3P3QbTI4O+4uh+47uPsVcqK0J8s+rkpR/dnrfbn7XPP6FQSzgDe9Tm4JukGq5sTSkcPL6/0fSgb73+gux4HfIXNdvJRTYhOgG2PU8UDesQIQhowC/dcEJaJPoyD7QEqAqouJy8fhLZK7naZnwbZDp2puNGn+X5a28T1aquGVi1M9DkNzhw4floYcekg996EMYKdzNLuxJzUBBo7piwVE1k3e9DKfHLmry1srtMoaKBfM752JIoiwnTALHvJWrQEVyseMuKTZ0FfjfxOpobZXjFc5y8555DJ1jpjAOHTokLXCuN565QfILDHrm2I2pMl8nroX56xHYi/4l+ZXZ6GCw6sNc8sjfuSbx31w5CAGUqdBrK4gxOR0ZyJDanDEVvqMlk2N1G0XgxMeSxxNlKv3AGHHS8ZPluSPO79VVZcqDfrb1FRnz2KcJSJKxIWt1wou2DGUoPoJSYEhOtg0GfUsqYE72PbyRr1eBEDI986auVjk406yoY2vwLTGkzgmPZUzGn1kpySiUDITGww6qe6xBH405EMvlIER4TezEnErDWCc/Ci53q3PQ4KuSyeEJObjzgJqcG+rqZNOmTYgAYHHCC+I45yRup4ZHqvVKUK7ne4HZQMNO4VtGFDKxSJrD0YrUhiBHC2ZHl2jTgVD8+6YP/qhyEk7cN8NrcYExX9M/+CiAdk3iXY3yP2y24kUPPOFB4ASa1Z/0qSOSHu4Q32yveLKrxZODyANkkElIpCYwA0SC6AAcBNBmKwuPS3QKuWX8iSBqQ72DyYZ/lKjfoDl2a0rZEA6WwgsA8MlFy0sHTMlvGIs5UzBGZQmxJsbzGqyIETl0cEG/h4C7NeuAozBhN7iDJ8BUL/BWtkdrCH1gdkiap9vnb5/j5Yqq7UucW7350qW3+gTepyJWosaFJWJmpiLm8WQiZFWEoS4KvAgIl060g0DnJANRx0ncH/uEkuNHmo4oxslLLr5IYW3I8Miy2mQjGUybkT3R/H3xnRB4yf4isRijNtwo6LbjOgiMFFDvPAvkF1Yvkw7C6pKQCsHwYm53R+z0MYTWJuaCEoqGJIxJsQglkSRIorVBCKMfA4C2CXnJdEymJ8NOZlRhFkCcmuoy5Qke6m5WZFJO5pYbon/S4L8/mRaa8wgdlMbiUEIhHLt7SlzRfDKfIvVrUZNiBoySM7NA0uP/878jmLRiGDapLZiVhipjNzIJXoSZ2ZA0jbZKLxYAbWnRNNlUsBYLADEczqYmbfC6qx20yx2gc6vYNcR2JPGOjecc8Pih57rlve/+M3l6x7MyCv2WSy65WOU9aQYwirnSSXz3oAmPhIWOr5XH3o7umRMzAWv8XriYcDenEOvsYJMxPB0vjZOTla0idS0AAmZYgIAcuyuLlydFp52BRTtdRE18yP+nI4+eE96D6sE86fK9Q2pqV0p0/KCMdr0kPiz+6XMoNxNE4wJ1WPzxJ9MIw1P3QHkAaZgL55DORfmhWtjQbnQSUYKpTvzfEagsZsusJ0fC4CqYzd2KFMRaNTaSiRKY+5MRmhwoC7aMdUqhFCRcjDinETBoeSXzzXERYkWW3qWaUwdKihrvl++VZqUQJgsoWTHpdHJx5HqzF1GoKTw/LRP9sTFrHaiXA6BeXloRR1DrDAB+miVTlfdaQvK8NtU0WfVCozNLEKKd2NFyqWtavzH2dzYYQBmZs5bYsg8YSSBIsq6uXmEvknUO9PXMkUIjOoKNCbgSDBlqvgN+s0zZ4A91Kh7YvyuanoG8lHchv5HvKZG0qXpM+vCeeJDNJEQ61Y3lU0qvfQQTQjAm6ORmIkp0DJ0GOievh51oUCM9uCIQuFBN63d9r8hcWvwKBevzs+zTaTHY05Ulm6qS18FYjr5mMKYJKP66AqCTAYRKZK3DxJV4pL7QPX5lOe5xudqgE8CFpRjOWJED/oMfYXW5AXLSJGMByZKV+XVSmg3NADgMnZO9UhDNc9w5m+/fh1AhJza39fpunp0pEe4Q7Xbw8dIKBZIrF9RthW5CF8Bow1KOZ01HBY5eLBg9YKUDdy6c/M2UuFz81S5JIba9Si+C/5+LP38jZTVpec15arvnYGqCWIR4vpL5HdhFO1uVg5uck2B1Brxw9H2jL0nGbBeEjcC9wNI8LuZc1EkoxE8is1RFAIRRAJ9NaRw7Lbarjc5gozRtRABIVDSbViRhT6HMBtbhz5nQQjhTRSC0GckCI++U6uLBPuc74uK7b+iwBOmwwBr8NVKWbmA57Myo+sB7I5bFxoJwjFfUVauae4JUyYBopns2Yw9U2Szass4g7G9qblAmm2kaHYnmvOhjeSaubR1f+lYYySBAbxD4HWuInd1NxkVt1lC7+XHISZMOmWRGolI3PAeej4BXOgWaA4E8CvG+Zb7Pg4jEVKJ0ugry4PyG3Gwk7O7R4J0wRKjY13SgigoL4j7OIh6ERRMQZFr/aA3QmnEcBB7bhEjCheuNkFYyaYbUO/fknbmcoEaCwGqqjfrZZ1t2gmci+QHmJuXSNQrypPzXn7ioCdiE8ryQ5PpZ/IZ5DpTMQZQCMh1RhX/Pwb+fitaB/g0hUkDHORnLxG6fjiF3Qb/pXJBFN7eRCt6mtLBwnqCFoUg9wXCH7daYUtBkKwwh21UScAJnrtOcVvBG0mR72RaAKYGMRmqBkrx52dwJmiJYasHjnRgLl6ZH5jFznOjxXVD5zqiLX0omFU+1z/xsPFeVuEH9MaHBg62qKIsrh+7kJMw7BKD+DXT+X+z6O8U3+AQ29oiwZqPMG1UBniyE7/HHk4m/kSoi4VAU8r1G2D8WL8MGSOMDBKBBTNEoLxxHe0gfFIPrAI7D1ES3zOZdKdPFV+Pc2OStovrOdNh0ptxgOKx9yAjPvsEj0j2zVD+EW8Sz47D56XYSVQNMIB22ckWddHb3KsElOoBMU+hFTgVEYtTZQaD1SZ8cz8nRlQ6MRBObxffC6BBFsthuvEiCdWyQ/4BSzLpHCVQk6D6R1DmZP3lOMkBFOl3M82eAd4AREEZT+Cad0mjW+40CgNnX1ys/uOtH8rnPfHr+m3L7nZuP0xTVIXwzdaD3XsDxzMmr/+/DMpx+oVx53Y3qFE9Xb3+UYeKBSS92RVCAQsmWtqvWA0WdwEHgcUSm5iEU1dzSDgpgCHW8yex4FCU56ClVytBVW1+X7J587bh6x8lJeCPQL+sH5Mc/i3GVDkfzVDYKUh3Dd1EB1sr8zOR2mfN9YYoiPHrsaQTyljpIqTgIbL8wNxf9HJFbfoYwP2AsfSB0+84HUB7pBWo9XszX9EKYP37/js/IA1fcAQDalGKxYxSB57JGnKV8egLRpDXrshtldXm9qltv7hyWgkB8pkhOkKlGOeI5CEbkARtyhEWJ/meu2E3Zn+YciMduSSdhRTGen0V0MeyAIv+BOmFOx79I5sSzaufPqgBPAXLpc9OgIm5GqgB/sNh7MsvEk9topAmAJ4lOdUu0/3mZnZmSYNG1Es7fLgXlZ4o/Kx+6BIg0+MB5MvhNUBL4hG7dAAANa0lEQVT3S2ukQNqzt8h41kr1dkrTi2SF31BrVVoPCjznVVUdGdiBEm/BfiUeg7lzRpO4QPIYN6JRekGmU7hr5KCMgy03kdlpAZiPJ1Bdpwms7UxOToIqvlbaoMXgV6FsAwQ3grG18I0QcOrMFmkOkfOajDppvgS2pdJZigdjwhZPQ+eU19YUyTyeufdEjoH5eagHQX0DO84KfX1+L4y4zafDTGDaVOdClcrvaINs+Kty+aWXSgBVTsdjJFgizw7fi7bf/OY3ckUGnQ/YxbuMMkd4Q0tmcIaLWT6XhQGc4088wY9MRmRtg6Ff/maLIix6AegGFVVwaT50bnk5a5xBENP6gsykud/VJboEAYvM39rZADAIJScZg+CyO065w5hCIF1wTT5piI//9v3YORUXFWBBbZf9oaYlDabqIJBm/MW2XNlQmybV+QarH/0CxRBHimH8xzRzxJhMfdExiXgLlSPAcKxy4HDIdb+6SX565XfUc5ILz4/dzgBob61GTZBKALW4CBGs1TWe4chM6CYKYL2OSjFgwaNq6QTAWHwOPhcjMCSMUeDO2C6Tk7GuDHB6SyFEVhpiinv9A0MStuGe75vwiR8KpQW+Uclpv1X8A4+iLHCTeErOVRGCaN+zMtf3O9RhZokX/ya5K+EYoGwjPCqR3h0yO41daG4NRIYqZaryIxLJMOZGGhfjhhg3xsD+/5aiwKi81tcsTaXvXHLrRWn5ckb+KsM5wDthCZ9G5TvtPpnTtxPe4UWUYxDL12vHb3/wCO43sa4L6fMTseUSNErCLLPtg9jSDLBmtZEK2di4RlhKl4XdNI2OKdMFyX5bvH8u8mWojuCO386pYNicz2ZVeOTOuQTU2Np0ysNp3Jh/Z6knQY5aK4K/8VsjmJKpA47XeAJSyVzH7tgI8ChdXV1wPnLgIEBrxEW1T7xrqsgbeHeKihb647e//pms3vklmcgqkjV//VvlNNk6CMk+CPnIGWJqgVf8RqQETvZ5nI7npBxvc8bBW4t0Ar37Tsil7gweVLXiy2VEfK9D3bidneryy8vVR6m2MxnyyrFB7CJBdBRY5jSIOQ/+0LEnl9wiHYRUMSQf/1GO3PuxNDA6inz4P40Q/z3Xdkr4Fw+Ip6pa0korJDPvqzLX8DXxHf6ghM5+TT5zb0T+/DyP3PM86GKL/1YebPwbibS1SviBuyT733+0SMyJixRJkYgJGEaJ5TTqsdWOxgV1sRXXoFMQrC/noqLysWiLC/4MQp6zYSNKQyfBjdwuSyzdREp0h89gEWM+nMbn6kT5ow8YBhq5CXKOfl78w0+It+5aRAmMPP9cy49RMJApoakJKCxWSlr12yTS/ZjMjnfIVOHVEiq4BKDANYAahKVs8i4QW2FxqvzokndcAGZNEl8N7PsvKfR3yjPhOkzGDUuOIzPtyqIaJTiUilGXgE4g0wbkjmD4nZEW4kCM0j6i1BdaJu6L5ap2Ri6JNbjHPAdWWyu4kG0dDB5FZGJC1nlXyOq6BnBhQOUwJm7Ed0un1Ul62u6e7NgPjWhtPjArJOEzkjFqXOBBDaR+xXxEYYhjGOMglcgWdTpqkWbg7rsA5btMTdAh0GM1lffl9hxFkEWHfyYoj/3mcbkWAk+ginJ7+qLj2E4wGFwUQTjyi+ulDhU2HBvNDXfLujPgGNtFEJK94uhYUNasrEGnz4DcJXXRimSv+3ofb04/MFJQWpKvJgBOopPoCzpNHaEeINbd1Tm7fR673WbHiFHxUVPw+mMQ3D7HG+E4ptf2gw1xJXAFeSmmENw+hw9IdGofPNH0gkx6F4NJmefNGD9bslCu2ggHJRmbCOfKi81Redc5xmTxrv8zK/dtelq8F1yEXLhXQt/9huScfatMnTMg/rZPSVfhrdI97pfNiC5+8h7DQbi/bZ1EOtvE/8kvShS7Ewo4qVwwpiAKT3FhJ9mQORTrxkHgHB0ASJG7f6ZC6AxwMuUElWgnrBd9nTpwk0Jw6rP8Qx+VrLpLgNtIk4Iz/2b+WUJN38OM+G3xNlyPKEG1qgygbLG37EKR9AIJjg5Kpm9SvFVXSgTOwlDlZ4AROGfJ5TygKqaD0Ftw85LfZgFErVsBhwMWfvnP5NfFN2LjsBSMXQtOiEpwQhC5zv5PZRHj7oVgz5B6f4bpXH08EiFr+SlL2pnicAsYL4QzwrC+2dpmOqUHc99m/zqpAx9Ic0vHfKUAjyPoj5UtyZqVcZFsnXzOcKxqRreXBTAe+0FHLdgHxA84RWCc7qcE1XvtSJcwvX4yjeWd6Uh5RsdmZeuGzSh/bJKiYndMxtb7VI4GmEYbYs4yf+959GIpyx6Rroli+V3HVvmLj31reRwENk5CDNqbOs0QZzRo9T5OoiQ9sX7Ubrkf3A62rdlnzLOHvdgakI2gO87GwnLa3PUAU2i7OrKlsWRG4QqSDXO6u8rSoxg2r8VOhjvXR9ueWXIAU0drMtYkjdtgqHEfKlhufQT8AD6P/OBGqLN55yT4V38hAtrh7B/+VNJCr4lvzxUSqbxRZutukS8+GJGjIOysBgauuehv5Wdv/65MvvMK7L4wod7/S2jUjyFFhmomRgpAhpYOoKXZusZ8Ug7eDSepeLuJyaiUX76omtP7CDR/WXLLQFPc9jMZXHOnkh/O332NpOfVi7ccTkBGPtIDeB9TgxLd8C1JG35YokM7ZSJtnQRmXhVvzdsl0v4zmcg4S4J1/zvu5RI5COWFuZC7z5Rg6/3y2wjTDsbSfSYiD9m4H9o4IhiHwHtAeV9O4Hbsd07Pqn+3W3wT8fbvRRkmlXeZwgzYMjQmvjKxABzX5o+pD85BC5yEc/E85XAyjx5rR+nkQvUGz9H8GG6fSx/HsD6d1SJgvJhqsJawMDpBYLC29k4K3i0PKy8xDKyMSMW5SfY5eXx3qB8bTeBZ8L8MbDIyOpGCm55T1Qir16xLpUkjEmFxEHp7e6X04B8pB6HmGiPKuSwRBDZEpD5LHlvakWZADvMPwRgxYU6Rk2hbZ/cSKljdBwdAdKLrdpejXzaBZlUxWkYAVIIC52lz1wOkhmYZZhGkzU+WU2C9Mw2U+3nTcxKaRv1xYIFWm8emikXIAJMe87E6NM+2FMgI65DmI1BSurFStg//V0QuXQ/+BUQRVkNwS+3ocSx3+SXAShAAxrKwMEL+VkR597jhHPD4RBZP7dLd2zr+ozJ775f8LJAj9e2Q4dKbJPfQX0t6w59AnGitIhmaa/q+BHMulmDVx1Bq0y+VK+EscC4b3SOz+z6DNMN1iKr8SiIj++XImqcly5+JEt4EjjgWjfLR78jEyDhIib4w/wBlI98V35ovq/9+7PCDkg+ngGRZdiRX7LMJAAYZ0ncS4nHqIS6iupZf8UlgQYkHJLRTYnRq3/q7FXhI5txjM+3ylsJtSFHlgxGwU7JiKQaeyyoWclzEu6dE1y8FWJA4EqtjwEWPnAt6zPYiYqDqR5bxg9e8Dmb67mT7ys3xM5EQOB9eW8RUyvP8XhAV+spldVmD9PYhqheTM3fTpj6G3zsxRXm52UhFLThSd3zjS+qQmz/9VfW3qmJYDq1xXpBUp5yMeiHO8WY2hkgrS0tUpGAQNbEssXIagMsZRSCxVIPfyKOeNnc90AbuhbrC5QGKurui/VFlAAVxodY4hKnxKvEHerGYG7n3VB0E6jQMQUfeLbMiyWfmULcYDk3PT9BaApbjm9K8dmM6iJJVLpJW58CcEjiZ0QFrL7PiIKvju5Kbi1r6gRdVhYF33U1IFeSBT6BP5vb/s4yt+28J5V9g8BTA8pv+TjKL6mTAf40UtX5WvCvfL5Gep4A1+EsIG71D5e5V38IJozjaKqSjiuKAgT3QOiib+KECMaoJFpN5qPT9cARLsXnaJ3tn+5WUPWv3nYx18mSLdEtlb23PWrKaDJ22073F+53hfjqZtCBKQglUvKz0XBU5MFcxzM6GsV6UqDSKk9iQ+VosNSTY10oxzIqaqgoj4kUjLwarJI43nWD3nIwUV0PAKZlyx2T6k8Xhr07sW+IYmNvIQZTn3OKNyukbBO4iFaPTODAwIOvWrIqLHfR09va53oI6CcPoNEMy+gypPNjreQ7rd8vhHDA01g36S7c5QvOkOQkmyddiGuepPEtVerlSeWR+l6RDDUWv/8KXynP8IZ7DgE8FFDsfbUa5o2dhNzrSt0EKyvan7CBUQCGxBx87za2ToPt/CoC2hnrD4WxuRZ4422CUs7P2EZ9ih9T2ekYJMgYelkDHHVj7wUMAcp/IwMvAFGaj4uA8Sau8XEUJmDoI9++TkS0PSTQWyjc/V9H+d4qvoFEpGvrW32w4FeAvCI3D8d9416IwNZ0g5tGzAqDJxnskc2kAzhJxIzQdUNnXAxK5CiMfr9JK1UYp2SPNT0kEgGWnkkHz/bkR44n7shRSb+FXVg6wusHtnJXK9wmmYCk2VQqwDQL7KF8/BlVSVnfR6TFYEckHACcI9+RUZqh4C7Aoc9dudlz5TkhAR2l1bU8dfUnG0yaT6udkn5VrnbkqI9nz4x0fT3PCfLxOS2m1UgW0NemMuL0X9h2dBJahjqNUmIqxNFZkMG3J8s//D/fWi28Qa8/oAAAAAElFTkSuQmCC;" vertex="1" parent="1">
          <mxGeometry x="30" y="20" width="520" height="310" as="geometry" />
        </mxCell>
      </root>
    </mxGraphModel>
  </diagram>
</mxfile>
